<svg xmlns="http://www.w3.org/2000/svg" viewBox="0 0 500 500"><defs><style>.cls-1,.cls-2{fill:none;stroke-linecap:round;stroke-linejoin:round;stroke-width:10px;}.cls-1{stroke:#666;}.cls-2{stroke:#000;}</style></defs><g id="styles"><g id="About"><path class="cls-1" d="M160.1518,288.9307v57.4006h0c0,7.3706,5.0736,13.3456,11.3323,13.3456H223.76v-51.14h52.1324v51.14h51.672c6.2587,0,11.3323-5.975,11.3323-13.3456h0V288.9308"/><path class="cls-2" d="M184.6141,161.0863H165.0926L125.704,238.1706a30.9551,30.9551,0,0,0,61.91,0,30.9551,30.9551,0,0,0,61.91,0,30.9551,30.9551,0,0,0,61.91,0,30.9551,30.9551,0,0,0,61.91,0l-39.3883-77.0843H314.4345"/><line class="cls-1" x1="250" y1="195.2339" x2="250" y2="126.9386"/><line class="cls-1" x1="215.8523" y1="161.0863" x2="284.1477" y2="161.0863"/></g></g></svg>