<svg id="Layer_1" data-name="Layer 1" xmlns="http://www.w3.org/2000/svg" viewBox="0 0 464.726 156.225"><defs><style>.cls-1{fill:#fff;}</style></defs><g id="Logo"><path class="cls-1" d="M92.6852,1650.5593c0-10.515-9.049-21.424-22.624-21.424-15.569,0-23.288,11.576-23.288,25.948,0,11.842,3.06,19.56,14.771,24.352l9.717,3.993c6.653,2.662,7.849,4.259,7.849,14.371,0,8.65-.665,14.105-9.847,14.105-6.92,0-9.58-4.789-9.58-9.714v-4.258l-13.575.787v4.271c0,12.773,9.979,22.489,23.155,22.489,17.565,0,23.422-11.844,23.422-27.811,0-13.841-2.263-21.426-14.24-25.951l-10.379-4.125c-7.054-2.795-7.719-5.324-7.719-12.643,0-6.254,1.73-12.243,9.182-12.243,6.919,0,9.581,5.191,9.581,11.445v3.061l13.575-.788Z" transform="translate(58.2344 -1629.1335)"/><path class="cls-1" d="M143.3717,1629.9305h-44.98l2.212,10.771c.191.67,1.043,1.996,3.447,2.005h10.046v81.975h13.572v-81.975h10.035c2.527-.009,3.338-1.484,3.467-2.064Z" transform="translate(58.2344 -1629.1335)"/><path class="cls-1" d="M182.5691,1702.3235c0,6.522-4.261,9.582-9.182,9.582-4.925,0-9.182-3.06-9.182-9.582V1652.29c0-6.522,4.257-9.583,9.182-9.583,4.921,0,9.182,3.061,9.182,9.583Zm13.573,0V1652.29c0-15.438-11.709-23.156-22.755-23.156s-22.757,7.718-22.757,23.156v50.034c0,15.436,11.711,23.156,22.757,23.156s22.755-7.72,22.755-23.156" transform="translate(58.2344 -1629.1335)"/><path class="cls-1" d="M304.7544,1695.1391c0,9.315-.8,15.969-11.713,15.969h-5.854v-30.342h5.989c9.846,0,11.578,4.924,11.578,14.373m0-39.658c0,8.652-2.398,13.309-11.445,13.309h-6.122v-26.083h5.59c8.914,0,11.977,4.391,11.977,12.774m3.459,19.43c5.988-3.725,9.316-7.452,9.316-17.566v-3.459c0-12.376-6.523-23.953-24.086-23.953h-19.829v94.749h18.497c17.566,0,25.418-9.315,25.418-25.818v-5.324c0-9.848-2.929-15.568-9.316-18.629" transform="translate(58.2344 -1629.1335)"/><rect class="cls-1" x="391.7554" y="0.7975" width="13.572" height="94.751"/><path class="cls-1" d="M404.3206,1640.4971l2.171-10.567h-41.506v94.7509h41.506l-2.239-11.583c-.091-.6809-1.015-1.9219-3.324-1.9919h-22.368v-27.811h22.897v-12.776h-22.897v-27.812h22.24c2.834-.011,3.435-1.633,3.52-2.21" transform="translate(58.2344 -1629.1335)"/><path class="cls-1" d="M243.69,1655.4806c0,8.652-2.398,13.309-11.445,13.309h-6.121v-26.083h5.59c8.914,0,11.976,4.392,11.976,12.774m12.776,69.201V1693.54c0-9.848-2.929-15.568-9.316-18.629,5.988-3.725,9.316-7.452,9.316-17.566v-3.459c0-12.375-6.523-23.953-24.086-23.953h-19.829v94.749h13.588v-13.573h-.015v-30.342h5.988c9.847,0,11.578,4.923,11.578,14.372,0,.296-.007.575-.009.865h.033v28.678Z" transform="translate(58.2344 -1629.1335)"/><path class="cls-1" d="M27.5586,1629.93h-85.793l8.686,31.347c.045.089,1.349,5.923,6.555,7.333l24.919,6.919c8.059,2.292,8.142,3.692,8.04,4.542-.223,1.832-3.919,2.548-8.659,2.676l-25.245,1.021,3.118,11.35c.499,1.934,2.065,5.591,6.74,5.591l37.834-.003c4.684,0,6.372-4.305,6.862-6.26l6.085-23.199c.423-1.587,1.38-6.224-4.369-7.765l-27.271-7.063c-7.939-1.938-8.605-2.429-8.605-3.815,0-1.527,2.208-2.265,9.453-2.456l31.002-1.277c4.591-.201,6.473-4.327,7.049-6.231Z" transform="translate(58.2344 -1629.1335)"/><path class="cls-1" d="M-36.7317,1717.299a8.18,8.18,0,0,0,8.178,8.18,8.1813,8.1813,0,0,0,8.182-8.18,8.1817,8.1817,0,0,0-8.182-8.182,8.1809,8.1809,0,0,0-8.178,8.182" transform="translate(58.2344 -1629.1335)"/><path class="cls-1" d="M-10.3037,1717.299a8.18,8.18,0,0,0,8.177,8.18,8.1815,8.1815,0,0,0,8.183-8.18,8.1819,8.1819,0,0,0-8.183-8.182,8.18,8.18,0,0,0-8.177,8.182" transform="translate(58.2344 -1629.1335)"/></g><path class="cls-1" d="M75.5406,1762.3v12.7256a16.6693,16.6693,0,0,1-5.1011,2.5781,20.002,20.002,0,0,1-5.7974.8154,19.3446,19.3446,0,0,1-6.9721-1.1962,15.5826,15.5826,0,0,1-5.33-3.3282,14.57,14.57,0,0,1-3.4043-5.0908,17.0623,17.0623,0,0,1-1.1968-6.46,17.7622,17.7622,0,0,1,1.1533-6.5048,14.3256,14.3256,0,0,1,8.4185-8.3965,18.6106,18.6106,0,0,1,6.7871-1.1748,19.8733,19.8733,0,0,1,3.5786.3047,18.0989,18.0989,0,0,1,3.0889.8369,13.3808,13.3808,0,0,1,2.6,1.2949,15.5117,15.5117,0,0,1,2.1538,1.6748l-1.6753,2.6543a1.5974,1.5974,0,0,1-1.0225.7715,1.8249,1.8249,0,0,1-1.37-.3154l-1.436-.8262a9.27,9.27,0,0,0-1.5986-.7178,13.1733,13.1733,0,0,0-1.98-.501,14.6571,14.6571,0,0,0-2.5347-.1953,10.8489,10.8489,0,0,0-4.209.7832,8.8915,8.8915,0,0,0-3.209,2.24,10.099,10.099,0,0,0-2.0449,3.5029,13.726,13.726,0,0,0-.7178,4.5683,14.02,14.02,0,0,0,.7725,4.8184,10.1238,10.1238,0,0,0,2.1753,3.5889,9.2633,9.2633,0,0,0,3.3828,2.2412,13.13,13.13,0,0,0,7.5264.4023,15.2979,15.2979,0,0,0,2.6758-1.0009v-5.6993h-3.959a1.1907,1.1907,0,0,1-.8809-.3154,1.05,1.05,0,0,1-.3154-.7725V1762.3Z" transform="translate(58.2344 -1629.1335)"/><path class="cls-1" d="M85.0909,1759.6241a9.6207,9.6207,0,0,1,2.48-3.1435,5.29,5.29,0,0,1,3.3935-1.1416,4.1552,4.1552,0,0,1,2.48.6738l-.3482,4.0244a1.037,1.037,0,0,1-.3154.5547.8679.8679,0,0,1-.5547.1631,6.2385,6.2385,0,0,1-.9682-.1084,7.5,7.5,0,0,0-1.2505-.1084,4.5065,4.5065,0,0,0-1.5884.2607,3.9709,3.9709,0,0,0-1.2505.751,5.087,5.087,0,0,0-.979,1.1856,11.5049,11.5049,0,0,0-.7939,1.5878v13.7481H80.022v-22.3193h3.1543a1.3,1.3,0,0,1,1.5884,1.3486Z" transform="translate(58.2344 -1629.1335)"/><path class="cls-1" d="M95.4459,1758.8624a13.2461,13.2461,0,0,1,9.267-3.5234,9.0578,9.0578,0,0,1,3.5025.6416,7.4,7.4,0,0,1,2.61,1.7841,7.6259,7.6259,0,0,1,1.6206,2.73,10.48,10.48,0,0,1,.5547,3.48v14.0967h-2.4365a2.46,2.46,0,0,1-1.1743-.2285,1.5813,1.5813,0,0,1-.6528-.9248l-.4786-1.6094a19.2533,19.2533,0,0,1-1.6533,1.3379,9.7071,9.7071,0,0,1-1.6748.9678,9.0231,9.0231,0,0,1-1.86.5986,10.7225,10.7225,0,0,1-2.1861.206,8.5945,8.5945,0,0,1-2.61-.38,5.7344,5.7344,0,0,1-2.0669-1.1426,5.1277,5.1277,0,0,1-1.3486-1.8926,6.7159,6.7159,0,0,1-.4786-2.6318,5.2464,5.2464,0,0,1,.2828-1.6866,4.927,4.927,0,0,1,.9248-1.5986,7.6527,7.6527,0,0,1,1.664-1.4355,10.839,10.839,0,0,1,2.5127-1.1748,21.7317,21.7317,0,0,1,3.47-.8155,34.61,34.61,0,0,1,4.5245-.3808v-1.3057a4.8853,4.8853,0,0,0-.9571-3.3174,3.5028,3.5028,0,0,0-2.7627-1.0761,6.5832,6.5832,0,0,0-2.1645.3037,8.9614,8.9614,0,0,0-1.5117.6855q-.6526.3809-1.1856.6856a2.3467,2.3467,0,0,1-1.1855.3046,1.5538,1.5538,0,0,1-.9576-.2939,2.4605,2.4605,0,0,1-.6308-.6855Zm12.3125,9.6807a29.8331,29.8331,0,0,0-3.9156.4023,10.4568,10.4568,0,0,0-2.5454.751,3.35,3.35,0,0,0-1.37,1.0654,2.6385,2.6385,0,0,0,.4238,3.3506,3.6284,3.6284,0,0,0,2.1866.6094,6.3657,6.3657,0,0,0,2.86-.5987,8.4758,8.4758,0,0,0,2.36-1.8164Z" transform="translate(58.2344 -1629.1335)"/><path class="cls-1" d="M123.1378,1758.798a11.6474,11.6474,0,0,1,3.1108-2.502,8.36,8.36,0,0,1,4.09-.957,7.3289,7.3289,0,0,1,3.3394.7607,7.5024,7.5024,0,0,1,2.61,2.208,10.6076,10.6076,0,0,1,1.6968,3.5684,17.96,17.96,0,0,1,.5982,4.8613,15.2981,15.2981,0,0,1-.6744,4.6338,11.3316,11.3316,0,0,1-1.9252,3.6982,8.6878,8.6878,0,0,1-6.9937,3.3282,8.0078,8.0078,0,0,1-3.1978-.5762,7.7981,7.7981,0,0,1-2.371-1.5986v9.1357h-5.3736v-29.6064h3.2852a1.32,1.32,0,0,1,1.37.9785Zm.2832,13.4873a5.2783,5.2783,0,0,0,1.99,1.5654,5.9217,5.9217,0,0,0,2.3384.457,5.1317,5.1317,0,0,0,2.1972-.457,4.2883,4.2883,0,0,0,1.6641-1.3916,6.8875,6.8875,0,0,0,1.0552-2.36,13.4876,13.4876,0,0,0,.37-3.3613,14.9211,14.9211,0,0,0-.3154-3.3174,6.4224,6.4224,0,0,0-.9024-2.208,3.5662,3.5662,0,0,0-1.4253-1.2392,4.4312,4.4312,0,0,0-1.9033-.3916,5.4256,5.4256,0,0,0-2.85.707,8.6348,8.6348,0,0,0-2.2187,1.99Z" transform="translate(58.2344 -1629.1335)"/><path class="cls-1" d="M148.1329,1758.1446a11.6919,11.6919,0,0,1,2.8711-1.98,8.3331,8.3331,0,0,1,3.6767-.7607,8.0068,8.0068,0,0,1,3.2412.6191,6.417,6.417,0,0,1,2.36,1.7412,7.6519,7.6519,0,0,1,1.4355,2.6749,11.379,11.379,0,0,1,.4893,3.4267v14.2051H156.834v-14.2051a4.8078,4.8078,0,0,0-.935-3.165,3.5026,3.5026,0,0,0-2.85-1.12,5.59,5.59,0,0,0-2.61.6308,9.33,9.33,0,0,0-2.3056,1.7178v16.1416h-5.3736v-32.3262h5.3736Z" transform="translate(58.2344 -1629.1335)"/><path class="cls-1" d="M173.606,1749.2481a3.0606,3.0606,0,0,1-.2827,1.3047,3.5455,3.5455,0,0,1-1.8491,1.795,3.3658,3.3658,0,0,1-1.3487.2714,3.2325,3.2325,0,0,1-1.3159-.2714,3.46,3.46,0,0,1-1.8056-1.795,3.1571,3.1571,0,0,1-.272-1.3047,3.3661,3.3661,0,0,1,.272-1.35,3.4487,3.4487,0,0,1,.7285-1.0869,3.4939,3.4939,0,0,1,1.0771-.7295,3.2491,3.2491,0,0,1,1.3159-.2715,3.383,3.383,0,0,1,1.3487.2715,3.5988,3.5988,0,0,1,1.0986.7295,3.5079,3.5079,0,0,1,.75,1.0869A3.262,3.262,0,0,1,173.606,1749.2481Zm-.7392,6.504v22.3193h-5.3951v-22.3193Z" transform="translate(58.2344 -1629.1335)"/><path class="cls-1" d="M194.3375,1760.4728a2.6867,2.6867,0,0,1-.4678.4785,1.08,1.08,0,0,1-.6636.1738,1.4742,1.4742,0,0,1-.8047-.25q-.3918-.25-.9355-.5654a7.0311,7.0311,0,0,0-1.2945-.5655,5.9379,5.9379,0,0,0-1.86-.2509,5.6729,5.6729,0,0,0-2.48.5117,4.6929,4.6929,0,0,0-1.7729,1.4687,6.6129,6.6129,0,0,0-1.0552,2.3164,12.4438,12.4438,0,0,0-.3477,3.0782,12.0582,12.0582,0,0,0,.38,3.1757,6.781,6.781,0,0,0,1.0986,2.3389,4.7239,4.7239,0,0,0,1.74,1.4356,5.2769,5.2769,0,0,0,2.3061.4892,5.7024,5.7024,0,0,0,2.0772-.3154,6.5291,6.5291,0,0,0,1.3378-.6963q.5436-.3793.9463-.6953a1.4282,1.4282,0,0,1,.9029-.3154,1.0921,1.0921,0,0,1,.979.5l1.5444,1.958a9.6852,9.6852,0,0,1-1.936,1.7509,10.417,10.417,0,0,1-2.1646,1.1309,11,11,0,0,1-2.3056.5986,16.21,16.21,0,0,1-2.36.1739,9.9033,9.9033,0,0,1-3.894-.7725,9.1887,9.1887,0,0,1-3.1978-2.251,10.7514,10.7514,0,0,1-2.1645-3.622,13.9976,13.9976,0,0,1-.794-4.8838,14.19,14.19,0,0,1,.707-4.5577,10.3173,10.3173,0,0,1,2.0777-3.6328,9.52,9.52,0,0,1,3.3935-2.4033,11.69,11.69,0,0,1,4.6553-.87,11.0847,11.0847,0,0,1,4.3833.8047,10.7024,10.7024,0,0,1,3.3828,2.3056Z" transform="translate(58.2344 -1629.1335)"/><path class="cls-1" d="M212.9366,1760.1026a1.4276,1.4276,0,0,1-.4571.4893,1.1791,1.1791,0,0,1-.6088.1416,1.9137,1.9137,0,0,1-.8379-.2178q-.4461-.2167-1.0332-.4892a9.5919,9.5919,0,0,0-1.3379-.4893,6.4253,6.4253,0,0,0-1.773-.2178,4.0833,4.0833,0,0,0-2.4907.6748,2.099,2.099,0,0,0-.9028,1.7618,1.6789,1.6789,0,0,0,.4677,1.207,4.1773,4.1773,0,0,0,1.24.8594,12.0924,12.0924,0,0,0,1.751.664q.9785.293,1.99.6416t1.9907.794a7.0142,7.0142,0,0,1,1.751,1.1308,5.27,5.27,0,0,1,1.24,1.6426,5.2156,5.2156,0,0,1,.4678,2.3057,7.5265,7.5265,0,0,1-.5767,2.97,6.4193,6.4193,0,0,1-1.7075,2.35,8.04,8.04,0,0,1-2.7954,1.544,13.119,13.119,0,0,1-6.0913.3486,13.3278,13.3278,0,0,1-2.11-.5772,11.6048,11.6048,0,0,1-1.8711-.87,9.05,9.05,0,0,1-1.5117-1.0869l1.24-2.0449a1.7393,1.7393,0,0,1,.5659-.5654,1.58,1.58,0,0,1,.8267-.1963,1.7385,1.7385,0,0,1,.9462.2832q.4453.2826,1.0332.6084a9.1869,9.1869,0,0,0,1.3814.6093,6.0763,6.0763,0,0,0,2.0122.2832,5.2186,5.2186,0,0,0,1.6426-.2285,3.4667,3.4667,0,0,0,1.1308-.5986,2.2477,2.2477,0,0,0,.6529-.8594,2.5752,2.5752,0,0,0,.2065-1.0117,1.8047,1.8047,0,0,0-.4678-1.2832,4.1172,4.1172,0,0,0-1.24-.87,11.9926,11.9926,0,0,0-1.7622-.6631q-.99-.2944-2.023-.6416a18.6319,18.6319,0,0,1-2.0229-.8164,6.878,6.878,0,0,1-1.7622-1.1856,5.3613,5.3613,0,0,1-1.24-1.7617,6.1459,6.1459,0,0,1-.4672-2.5234,6.43,6.43,0,0,1,.5434-2.61,6.1228,6.1228,0,0,1,1.5991-2.165,7.9251,7.9251,0,0,1,2.6324-1.4785,10.9544,10.9544,0,0,1,3.6435-.5547,11.1715,11.1715,0,0,1,4.1987.7607,9.4809,9.4809,0,0,1,3.1543,2.002Z" transform="translate(58.2344 -1629.1335)"/></svg>