<svg xmlns="http://www.w3.org/2000/svg" viewBox="0 0 500 500"><defs><style>.cls-1,.cls-2{fill:none;stroke-linecap:round;stroke-linejoin:round;stroke-width:10px;}.cls-1{stroke:#4c77b0;}.cls-2{stroke:#272659;}</style></defs><g id="styles"><g id="thin"><g id="Joints"><g id="Joint"><g id="Grind"><line class="cls-1" x1="397.59" y1="319.82" x2="357.59" y2="279.82"/><line class="cls-1" x1="397.59" y1="180.18" x2="357.59" y2="220.18"/><line class="cls-1" x1="102.41" y1="319.82" x2="142.41" y2="279.82"/><line class="cls-1" x1="102.41" y1="180.18" x2="142.41" y2="220.18"/></g></g><path class="cls-2" d="M215.59,430.89V331.27c0-6.3-3.14-10.06-9-14.33-14-10.22-18.3-24.75-18.3-36.85s11.13-22.32,18.52-18.61a33.32,33.32,0,0,0,15,3.53c7.54,0,15.09-7.7,28.21-7.7s20.67,7.7,28.21,7.7a33.32,33.32,0,0,0,15-3.53c7.39-3.71,18.52,6.5,18.52,18.61s-4.29,26.63-18.3,36.85c-5.86,4.27-9,8-9,14.33v99.62"/><path class="cls-2" d="M215.59,72.63v87.62c0,6.3-.73,9.76-9,14.33s-17.3,16.84-17.3,29.85c0,18.5,14,33.49,32.5,33.49,7.54,0,15.31-6.7,28.21-6.7s20.67,6.7,28.21,6.7c18.5,0,32.5-15,32.5-33.49,0-13-9-25.29-17.3-29.85s-9-8-9-14.33V72.63"/></g></g></g></svg>