<svg xmlns="http://www.w3.org/2000/svg" viewBox="0 0 500 500"><defs><style>.cls-1,.cls-2{fill:none;stroke-linecap:round;stroke-linejoin:round;stroke-width:10px;}.cls-1{stroke:#272659;}.cls-2{stroke:#4c77b0;}</style></defs><g id="styles"><g id="thin"><g id="SexualHealth"><circle class="cls-1" cx="180.79" cy="268.83" r="41.63"/><circle class="cls-1" cx="322.05" cy="268.83" r="41.63"/><path class="cls-2" d="M302.38,118.3h0a27.8,27.8,0,0,0-39.2,0l-11.76,11.76L239.66,118.3a27.8,27.8,0,0,0-39.2,0h0a27.78,27.78,0,0,0,0,39.2l11.76,11.76h0l39.2,39.21,39.2-39.21,11.76-11.76A27.8,27.8,0,0,0,302.38,118.3Z"/><path class="cls-1" d="M207.92,300.4a70.89,70.89,0,0,1,43.5,65.18V384.5"/><path class="cls-1" d="M110.15,365.58a70.89,70.89,0,0,1,43.21-65.06"/><path class="cls-1" d="M294.91,300.4a70.89,70.89,0,0,0-43.49,65.18V384.5"/><path class="cls-1" d="M392.69,365.58a70.9,70.9,0,0,0-43.5-65.18"/></g></g></g></svg>