<svg xmlns="http://www.w3.org/2000/svg" viewBox="0 0 500 500"><defs><style>.cls-1,.cls-2{fill:none;stroke-linecap:round;stroke-linejoin:round;stroke-width:10px;}.cls-1{stroke:#272659;}.cls-2{stroke:#4c77b0;}</style></defs><g id="styles"><g id="thin"><g id="ClickCollect"><path class="cls-1" d="M342.36,399.8c4.16-15.24,8.39-31,9.68-36.83,2.78-12.56,5.14-20.51,6.26-36.23s1.12-27.17,1.12-27.17c0-10.69-8.74-20.93-19.44-20.93h0c-6.13,0-8.64,2.14-12.21,6.61V274.46c0-9-10.31-16.28-19.27-16.28h0c-8.95,0-13.29,2.1-13.29,11.05v-4.14c0-9.52-10-17.32-19.56-17.32h0c-6.3,0-9.61,4.16-12.64,9.23V199.77c0-9.66-7.9-17.85-17.55-17.72a17.38,17.38,0,0,0-17.09,17.32v129L209.8,299.68a19.5,19.5,0,0,0-32.72,21.22s39.46,60.79,51.29,79.09"/><path class="cls-2" d="M342,244.15l-9.56-96.3H159.19L148.75,253.39c-.77,7.8,3,21.63,13,32.52"/><path class="cls-2" d="M288.86,177.68V129.62a43.4,43.4,0,0,0-43.27-43.27h0a43.4,43.4,0,0,0-43.27,43.27v48.06"/></g></g></g></svg>