<svg xmlns="http://www.w3.org/2000/svg" viewBox="0 0 500 500"><defs><style>.cls-1,.cls-2{fill:none;stroke-linecap:round;stroke-linejoin:round;stroke-width:10px;}.cls-1{stroke:#4c77b0;}.cls-2{stroke:#272659;}</style></defs><g id="styles"><g id="thin"><g id="MedicalTools"><circle class="cls-1" cx="159.13" cy="266.91" r="28.2"/><circle class="cls-2" cx="225.65" cy="333.42" r="28.2"/><path class="cls-2" d="M245.6,353.37a34.63,34.63,0,0,0,0,49"/><line class="cls-1" x1="233" y1="247.11" x2="186.38" y2="259.61"/><line class="cls-2" x1="245.45" y1="259.56" x2="232.95" y2="306.19"/><path class="cls-1" d="M254.56,259.56l93.14-25a35.19,35.19,0,0,0,24.89-43.11h0l-97.7,26.18"/><path class="cls-2" d="M245.45,259.56A17.61,17.61,0,0,1,233,238l25-93.14A35.2,35.2,0,0,1,301.07,120h0L267,247.11A17.6,17.6,0,0,1,245.45,259.56Z"/></g></g></g></svg>