<svg xmlns="http://www.w3.org/2000/svg" viewBox="0 0 500 500"><defs><style>.cls-1,.cls-2{fill:none;stroke-linecap:round;stroke-linejoin:round;stroke-width:10px;}.cls-1{stroke:#4c77b0;}.cls-2{stroke:#272659;}</style></defs><g id="styles"><g id="thin"><g id="SkinCare"><path class="cls-1" d="M338.71,255.29c5.68-6,8.89-13.78,8.89-23.82,0-9.57-6.35-25.28-33-37.62-23.95-11.1-39.05-32.77-53.58-41,5.91,17.54-15,30.94-40.48,42.24-25.09,11.13-29.32,27.18-30,34.45"/><path class="cls-2" d="M141.84,344.62s93.23-.19,123-.76c27.79-.52,51.64-4.71,74.86-20,42.17-27.77,62.13-43.13,62.13-43.13,33-25.79-.67-68.21-35.51-44.08-16.18,11.21-22,16.22-54.5,34.21-18,10-52.58,8.39-78.35,8.39"/><path class="cls-2" d="M266.6,279.26c39.71-.62,38-55.09-1.25-54.42l-41.5.11c-51.32,0-66.3,28.57-112.57,28.57H71"/></g></g></g></svg>