<svg xmlns="http://www.w3.org/2000/svg" viewBox="0 0 500 500"><defs><style>.cls-1,.cls-2{fill:none;stroke-linecap:round;stroke-linejoin:round;stroke-width:10px;}.cls-1{stroke:#4c77b0;}.cls-2{stroke:#272659;}</style></defs><g id="styles"><g id="thin"><g id="HousingBedding"><g id="Home"><polyline class="cls-1" points="308.78 309.86 359.65 309.86 359.65 224.92"/><line class="cls-1" x1="210.76" y1="224.92" x2="210.76" y2="277.62"/><path class="cls-2" d="M296.41,128.3l77.76,64.36c13.15,10.89,5.46,32.26-11.62,32.26h-155c-17,0-24.76-21.31-11.66-32.22l77.28-64.36A18.22,18.22,0,0,1,296.41,128.3Z"/></g><line class="cls-1" x1="262.24" y1="277.62" x2="155.28" y2="277.62"/><path class="cls-2" d="M123.67,340.88H293.85A14.93,14.93,0,0,0,308.78,326V278A14.93,14.93,0,0,0,293.85,263H267.1l-7,21.07a33.15,33.15,0,0,1-31.46,22.68h-39.7a33.15,33.15,0,0,1-31.46-22.68l-7-21.07H123.67A14.92,14.92,0,0,0,108.74,278v48A14.92,14.92,0,0,0,123.67,340.88Z"/></g></g></g></svg>