<svg xmlns="http://www.w3.org/2000/svg" viewBox="0 0 500 500"><defs><style>.cls-1,.cls-2{fill:none;stroke-linecap:round;stroke-linejoin:round;stroke-width:10px;}.cls-1{stroke:#272659;}.cls-2{stroke:#4c77b0;}</style></defs><g id="styles"><g id="thin"><g id="Vaccination"><rect class="cls-1" x="142.44" y="289.26" width="26.67" height="43.67" transform="translate(265.6 -19.03) rotate(45)"/><line class="cls-1" x1="139.86" y1="264.31" x2="202.55" y2="327"/><line class="cls-1" x1="120.56" y1="306.76" x2="160.1" y2="346.3"/><line class="cls-2" x1="331.1" y1="135.76" x2="276.14" y2="190.72"/><line class="cls-2" x1="174.93" y1="249.46" x2="189.13" y2="263.66"/><line class="cls-2" x1="200.57" y1="223.82" x2="214.77" y2="238.02"/><line class="cls-2" x1="225.42" y1="198.97" x2="239.62" y2="213.17"/><path class="cls-2" d="M384.25,243.55c0-15.94-29.15-48.64-29.15-48.64S326,227.61,326,243.55a29.15,29.15,0,0,0,58.29,0Z"/><path class="cls-1" d="M276.14,190.72a30,30,0,0,0-42.47,0L150,274.42l42.48,42.47,83.69-83.69A30,30,0,0,0,276.14,190.72Z"/></g></g></g></svg>