<svg xmlns="http://www.w3.org/2000/svg" xmlns:xlink="http://www.w3.org/1999/xlink" viewBox="0 0 500 500"><defs><style>.cls-1{fill:#272659;}.cls-2,.cls-3{fill:none;stroke-linecap:round;stroke-linejoin:round;stroke-width:10px;}.cls-2{stroke:#272659;}.cls-3{stroke:#4c77b0;}</style><symbol id="Eye" data-name="Eye" viewBox="0 0 22.81 22.81"><circle class="cls-1" cx="11.41" cy="11.41" r="11.41"/></symbol><symbol id="thin-dog" data-name="thin-dog" viewBox="0 0 277 189.91"><g id="Dog"><path class="cls-2" d="M58.94,37.86C20.62,64.89,5,110.13,5,110.13"/><path class="cls-2" d="M126.7,184.91s9.31-23.41,25.87-29.82,60.67,5.65,88.57-1.71S278,97,268.09,82.28c-11.9-17.63-50.24-20.52-60.9-24.25-8-2.8-13.29-11.49-22.69-22.16-9.14-10.38-23.5-17.86-49-18.52"/><path class="cls-3" d="M131.58,9.67c-6.25-9.29-24.4-3-53.21,4.17-38.79,9.67-13.59,90.74,9.29,95.63S154.91,44.38,131.58,9.67Z"/><use width="22.81" height="22.81" transform="translate(152.19 54.83)" xlink:href="#Eye"/></g></symbol></defs><g id="styles"><g id="thin"><use width="276.99" height="189.91" transform="translate(99.9 146.57)" xlink:href="#thin-dog"/></g></g></svg>