<svg xmlns="http://www.w3.org/2000/svg" xmlns:xlink="http://www.w3.org/1999/xlink" viewBox="0 0 500 500"><defs><style>.cls-1{fill:#272659;}.cls-2,.cls-3{fill:none;stroke-linecap:round;stroke-linejoin:round;stroke-width:10px;}.cls-2{stroke:#272659;}.cls-3{stroke:#4c77b0;}</style><symbol id="Eye" data-name="Eye" viewBox="0 0 22.81 22.81"><circle class="cls-1" cx="11.41" cy="11.41" r="11.41"/></symbol><symbol id="thin-guineapig" data-name="thin-guineapig" viewBox="0 0 234.85 237.31"><g id="GuineaPig_" data-name="GuineaPig
"><path class="cls-2" d="M81.23,8.15C59,4.75,33.75,3.9,5,6.61"/><path class="cls-2" d="M51.75,232.31s127.47-34.92,141.6-44.49c18.74-12.69,36.5-49.65,36.5-60.44,0-9.59-22-74.91-99.36-106"/><path class="cls-3" d="M31,36.77s11.54,58.71,28.7,69.7c30.82,19.75,62.73-31.56,71.16-52.1,7.24-17.61,5-48.58-30.82-47C58.78,9.27,27,7.49,31,36.77Z"/><use width="22.81" height="22.81" transform="translate(150.01 79.49)" xlink:href="#Eye"/></g></symbol></defs><g id="styles"><g id="thin"><use width="234.85" height="237.31" transform="translate(146.21 141.18)" xlink:href="#thin-guineapig"/></g></g></svg>