<svg xmlns="http://www.w3.org/2000/svg" viewBox="0 0 500 500"><defs><style>.cls-1,.cls-2{fill:none;stroke-linecap:round;stroke-linejoin:round;stroke-width:10px;}.cls-1{stroke:#272659;}.cls-2{stroke:#4c77b0;}</style></defs><g id="styles"><g id="thin"><g id="Hygiene"><path class="cls-1" d="M162.4,345.83s65.45-.15,88.32-.58c21.39-.41,39.74-3.63,57.6-15.39,32.45-21.37,47.81-33.19,47.81-33.19,25.4-19.85-.52-52.48-27.32-33.92-12.45,8.63-16.93,12.48-41.93,26.32-13.86,7.67-40.47,6.46-60.3,6.46"/><path class="cls-1" d="M252.11,295.54c30.55-.48,29.28-42.39-1-41.87l-31.93.08c-39.49,0-60.12,22-95.73,22"/><path class="cls-2" d="M292.51,177.12c0-19.32-35.31-58.95-35.31-58.95s-35.32,39.63-35.32,59a35.32,35.32,0,0,0,70.63,0Z"/></g></g></g></svg>