<svg xmlns="http://www.w3.org/2000/svg" viewBox="0 0 500 500"><defs><style>.cls-1,.cls-2{fill:none;stroke-linecap:round;stroke-linejoin:round;stroke-width:10px;}.cls-1{stroke:#272659;}.cls-2{stroke:#4c77b0;}</style></defs><g id="styles"><g id="thin"><g id="Repellent"><rect class="cls-1" x="191.21" y="238.75" width="110.8" height="129.51" rx="19.04"/><path class="cls-1" d="M229.42,199.78H263.8a11,11,0,0,1,11,11v28a0,0,0,0,1,0,0H218.41a0,0,0,0,1,0,0v-28A11,11,0,0,1,229.42,199.78Z"/><path class="cls-1" d="M237.78,148.7h17.81a7.9,7.9,0,0,1,7.9,7.9v43.17a0,0,0,0,1,0,0H229.72a0,0,0,0,1,0,0v-43A8.06,8.06,0,0,1,237.78,148.7Z"/><line class="cls-2" x1="302.77" y1="168.26" x2="347.09" y2="168.26"/><line class="cls-2" x1="295.24" y1="140.75" x2="315.3" y2="127.97"/><line class="cls-2" x1="295.24" y1="195.76" x2="315.3" y2="208.54"/><line class="cls-2" x1="227.61" y1="284.5" x2="265.61" y2="322.5"/><line class="cls-2" x1="265.61" y1="284.5" x2="227.61" y2="322.5"/><circle class="cls-1" cx="256.61" cy="168.23" r="4.94"/></g></g></g></svg>