<svg xmlns="http://www.w3.org/2000/svg" viewBox="0 0 500 500"><defs><style>.cls-1,.cls-2{fill:none;stroke-linecap:round;stroke-linejoin:round;stroke-width:10px;}.cls-1{stroke:#4c77b0;}.cls-2{stroke:#272659;}</style></defs><g id="styles"><g id="thin"><g id="Shop"><g id="Shop-2" data-name="Shop"><path class="cls-1" d="M301.4,262.9v34.9c0,1.23-.69,2.23-1.54,2.23H199.18c-.84,0-1.53-1-1.53-2.23V262.9H150v72.81h0a14.09,14.09,0,0,0,14.09,14.09H335a14.09,14.09,0,0,0,14.09-14.09h0V262.9Z"/><path class="cls-2" d="M374.93,224.08l-39.76-67.57a13.48,13.48,0,0,0-12-7.33H175.87a13.47,13.47,0,0,0-12,7.33l-39.76,67.57a12.92,12.92,0,0,0,11.5,18.82H363.43A12.92,12.92,0,0,0,374.93,224.08Z"/></g></g></g></g></svg>