<svg xmlns="http://www.w3.org/2000/svg" viewBox="0 0 500 500"><defs><style>.cls-1,.cls-2{fill:none;stroke-linecap:round;stroke-linejoin:round;stroke-width:10px;}.cls-1{stroke:#4c77b0;}.cls-2{stroke:#272659;}</style></defs><g id="styles"><g id="thin"><g id="Home"><g id="Home-2" data-name="Home"><path class="cls-1" d="M330.21,268.68v72c0,1.41-.81,2.55-1.81,2.55H274.62c-.69,0-1.24-1.14-1.24-2.55V292.09c0-1.42-.56-2.56-1.25-2.56H227c-.68,0-1.24,1.14-1.24,2.56v48.63c0,1.41-.56,2.55-1.24,2.55H170.68c-1,0-1.81-1.14-1.81-2.55v-72"/><path class="cls-2" d="M240.28,146.29l-91.15,75.45c-11,9.09-4.56,26.94,9.7,26.94H340.57c14.24,0,20.68-17.8,9.74-26.91l-90.58-75.45A15.23,15.23,0,0,0,240.28,146.29Z"/></g></g></g></g></svg>