<svg xmlns="http://www.w3.org/2000/svg" viewBox="0 0 500 500"><defs><style>.cls-1,.cls-2{fill:none;stroke-linecap:round;stroke-linejoin:round;stroke-width:10px;}.cls-1{stroke:#272659;}.cls-2{stroke:#4c77b0;}</style></defs><g id="styles"><g id="thin"><g id="Contact"><path class="cls-1" d="M234.05,271.63a151.62,151.62,0,0,1-33-45.61L226,205.61a9.86,9.86,0,0,0,2.84-11.52L209.09,148a10,10,0,0,0-11.35-5.76l-42.81,9.88a9.87,9.87,0,0,0-7.65,9.63A191,191,0,0,0,273.41,341.42"/><path class="cls-2" d="M273.41,341.42a190.72,190.72,0,0,0,64.83,11.28,9.86,9.86,0,0,0,9.63-7.65l9.88-42.81A9.93,9.93,0,0,0,352,290.93l-46.09-19.76A9.85,9.85,0,0,0,294.41,274L274,299a151.84,151.84,0,0,1-39.95-27.32"/></g></g></g></svg>