<svg xmlns="http://www.w3.org/2000/svg" viewBox="0 0 500 500"><defs><style>.cls-1,.cls-2{fill:none;stroke-linecap:round;stroke-linejoin:round;stroke-width:10px;}.cls-1{stroke:#4c77b0;}.cls-2{stroke:#272659;}</style></defs><g id="styles"><g id="thin"><g id="Piercings"><path id="Ring" class="cls-1" d="M242.74,294.35c12.11,0,21.94,21.16,21.94,47.26s-9.83,47.26-21.94,47.26-21.38-25.31-21.38-51.41"/><path class="cls-2" d="M200.64,309.18c-4.17,23.71,25.82,34.86,43.89,28.11"/><path class="cls-2" d="M175.18,210.05c-11.43-57.19,40.18-97.55,78.54-97.55a82.92,82.92,0,0,1,82.92,82.92c0,26.16-15.21,53.91-38.42,68.42-6.17,3.85-11.06,8.24-12.75,13.75-3.63,11.79.64,24.44-4.54,35.54"/><path class="cls-2" d="M282.48,221.57c23.82-30.21,3.35-62.06-26.6-62.06-20.65,0-37.06,16.79-33.79,37.38,2.94,18.56,12.43,50.34-14,72.28"/></g></g></g></svg>