<svg xmlns="http://www.w3.org/2000/svg" viewBox="0 0 500 500"><defs><style>.cls-1,.cls-2{fill:none;stroke-linecap:round;stroke-linejoin:round;stroke-width:10px;}.cls-1{stroke:#4c77b0;}.cls-2{stroke:#272659;}</style></defs><g id="styles"><g id="thin"><g id="JusticeOfPeace"><g id="bird"><path class="cls-1" d="M198.15,219.35c10.53-19.32,13.61-41.2,15.07-53.41,2.49-20.77,36.73-29.12,49,2.49"/><path class="cls-2" d="M195,245.82c-15.69-2.36-25-24.44-45.75-19.69-17.13,3.93-16.19,20.3-40.46,35.54,0,0,39-6.65,52.82,24.36s34.35,37.38,57.93,35.6,58.07-5.71,93.86,48.56c0,0,67.42-8.83,43.66-77.43,0,0-24.72,39-67.37,3.71,0,0,75.56-27.47,46.42-132.2-5.29-19-34.56-24.77-43.65.45C276.18,209.84,249.64,254.05,195,245.82Z"/></g></g></g></g></svg>