<svg xmlns="http://www.w3.org/2000/svg" xmlns:xlink="http://www.w3.org/1999/xlink" viewBox="0 0 500 500"><defs><style>.cls-1{fill:#272659;}.cls-2,.cls-3{fill:none;stroke-linecap:round;stroke-linejoin:round;stroke-width:10px;}.cls-2{stroke:#272659;}.cls-3{stroke:#4c77b0;}</style><symbol id="Eye" data-name="Eye" viewBox="0 0 22.81 22.81"><circle class="cls-1" cx="11.41" cy="11.41" r="11.41"/></symbol><symbol id="thin-cow" data-name="thin-cow" viewBox="0 0 283.43 246"><g id="Cow"><path class="cls-2" d="M5,74.64C67.52,61.08,84.91,31.06,112.93,23.48,141.24,15.84,152.7,31.23,218,5c-27.78,60.4-67.15,31.35-22.31,70.69,9.92,8.71,12.42,20.55,12.48,31.47,29.51,49.81,88.69,25.24,64.7,80.76-8.41,19.47-36.29,41.93-76.24,29.08-39.8,2.47-65.36,24-65.36,24"/><path class="cls-3" d="M58,54.87c25.12-4.54,29.82-4.81,44.31-4.53,17.08.34,30.09,9.29,28.83,13.89C124.59,88.11,98.23,101.67,73,99.66"/><use width="22.81" height="22.81" transform="translate(153.4 86.37)" xlink:href="#Eye"/></g></symbol></defs><g id="styles"><g id="thin"><use width="283.43" height="246" transform="translate(109.79 130.81)" xlink:href="#thin-cow"/></g></g></svg>