<svg xmlns="http://www.w3.org/2000/svg" viewBox="0 0 500 500"><defs><style>.cls-1,.cls-2{fill:none;stroke-linecap:round;stroke-linejoin:round;stroke-width:10px;}.cls-1{stroke:#272659;}.cls-2{stroke:#4c77b0;}</style></defs><g id="styles"><g id="thin"><g id="Attention"><path class="cls-1" d="M212.48,146.67,132,286c-16.68,28.89,4.17,65,37.52,65H330.44c33.35,0,54.2-36.1,37.52-65L287.52,146.67C270.84,117.79,229.16,117.79,212.48,146.67Z"/><circle class="cls-2" cx="250" cy="299.4" r="15.21"/><path class="cls-2" d="M255.27,180.57H244.73a7.9,7.9,0,0,0-7.87,8.47l5.26,73a7.9,7.9,0,0,0,7.88,7.33h0a7.9,7.9,0,0,0,7.88-7.33l5.26-73A7.9,7.9,0,0,0,255.27,180.57Z"/></g></g></g></svg>