<svg xmlns="http://www.w3.org/2000/svg" viewBox="0 0 500 500"><defs><style>.cls-1{fill:#272659;}.cls-2{fill:#4c77b0;}.cls-3{fill:none;stroke:#232323;}.cls-4{fill:#232323;}</style></defs><g id="styles"><g id="thin"><g id="Horse"><path class="cls-1" d="M349.15,372.68c-17.72,0-26.16-9-33.7-17a68.32,68.32,0,0,0-8.11-7.77c-5-3.82-24.2-6.36-39.6-8.41-13.57-1.8-27.6-3.66-36.61-6.58-14.85-4.8-27.3-16.28-33.64-23A63,63,0,0,0,191,330a5,5,0,0,1-9.93-1.16c.08-.73,2.18-18,12-30.28a5,5,0,0,1,3.92-1.89h0a5,5,0,0,1,3.92,1.9c.15.19,15.12,18.87,33.35,24.77,8.14,2.64,21.72,4.44,34.85,6.18,20,2.65,37.19,4.93,44.33,10.36a77.62,77.62,0,0,1,9.35,8.88c7.85,8.37,14.62,15.59,32.25,13.52,10.07-1.19,21.11-13.25,26.24-28.69,4.12-12.4,3.13-23.47-2.58-28.89-14-13.31-68.16-70.23-72.56-78.63a5,5,0,0,1,8.86-4.63c3.22,6.06,53.38,59.68,70.59,76,8.68,8.24,10.62,22.93,5.18,39.3a66.3,66.3,0,0,1-13.27,23.14c-6.5,7.18-13.86,11.44-21.29,12.32A60.63,60.63,0,0,1,349.15,372.68Z"/><path class="cls-1" d="M101.43,222.91a4.93,4.93,0,0,1-3.05-1,5,5,0,0,1-.91-7c1.14-1.48,28.64-36.47,91.06-54.68a5,5,0,1,1,2.8,9.6c-30.87,9-52.58,22.44-65.36,32.12-13.87,10.5-20.52,19-20.58,19.07A5,5,0,0,1,101.43,222.91Z"/><path class="cls-2" d="M310.53,228.8a5,5,0,0,1-4.44-2.69,48.74,48.74,0,0,1-3.2-8.27c-1.51-4.74-2.93-9.21-7.64-14.27-2.27-2.42-10.72-6.29-18.17-9.71-17.62-8.08-30.33-14.45-33.35-23a11,11,0,0,1,.53-8.73c6-12,4.56-25.77-4.24-41-3.19,4.66-7.94,11.31-13.48,18.25C212.6,156.8,200.76,167,191.33,169.78a5,5,0,0,1-2.8-9.6c15.16-4.42,39.33-38.25,47.37-50.91a5,5,0,0,1,8.33-.17c10,14.43,19.64,36.12,9,57.48a1,1,0,0,0-.05.95c1.84,5.21,17.63,12.45,28.08,17.24,11,5,17.88,8.3,21.32,12,6.24,6.69,8.16,12.73,9.86,18.05a41.39,41.39,0,0,0,2.53,6.67,5,5,0,0,1-2.11,6.75A5.05,5.05,0,0,1,310.53,228.8Z"/><circle class="cls-1" cx="268.01" cy="226.68" r="11.41"/></g><g id="Horse-2" data-name="Horse"><path class="cls-3" d="M349.15,372.68c-17.72,0-26.16-9-33.7-17a68.32,68.32,0,0,0-8.11-7.77c-5-3.82-24.2-6.36-39.6-8.41-13.57-1.8-27.6-3.66-36.61-6.58-14.85-4.8-27.3-16.28-33.64-23A63,63,0,0,0,191,330a5,5,0,0,1-9.93-1.16c.08-.73,2.18-18,12-30.28a5,5,0,0,1,3.92-1.89h0a5,5,0,0,1,3.92,1.9c.15.19,15.12,18.87,33.35,24.77,8.14,2.64,21.72,4.44,34.85,6.18,20,2.65,37.19,4.93,44.33,10.36a77.62,77.62,0,0,1,9.35,8.88c7.85,8.37,14.62,15.59,32.25,13.52,10.07-1.19,21.11-13.25,26.24-28.69,4.12-12.4,3.13-23.47-2.58-28.89-14-13.31-68.16-70.23-72.56-78.63a5,5,0,0,1,8.86-4.63c3.22,6.06,53.38,59.68,70.59,76,8.68,8.24,10.62,22.93,5.18,39.3a66.3,66.3,0,0,1-13.27,23.14c-6.5,7.18-13.86,11.44-21.29,12.32A60.63,60.63,0,0,1,349.15,372.68Z"/><path class="cls-3" d="M101.43,222.91a4.93,4.93,0,0,1-3.05-1,5,5,0,0,1-.91-7c1.14-1.48,28.64-36.47,91.06-54.68a5,5,0,1,1,2.8,9.6c-30.87,9-52.58,22.44-65.36,32.12-13.87,10.5-20.52,19-20.58,19.07A5,5,0,0,1,101.43,222.91Z"/><path class="cls-3" d="M310.53,228.8a5,5,0,0,1-4.44-2.69,48.74,48.74,0,0,1-3.2-8.27c-1.51-4.74-2.93-9.21-7.64-14.27-2.27-2.42-10.72-6.29-18.17-9.71-17.62-8.08-30.33-14.45-33.35-23a11,11,0,0,1,.53-8.73c6-12,4.56-25.77-4.24-41-3.19,4.66-7.94,11.31-13.48,18.25C212.6,156.8,200.76,167,191.33,169.78a5,5,0,0,1-2.8-9.6c15.16-4.42,39.33-38.25,47.37-50.91a5,5,0,0,1,8.33-.17c10,14.43,19.64,36.12,9,57.48a1,1,0,0,0-.05.95c1.84,5.21,17.63,12.45,28.08,17.24,11,5,17.88,8.3,21.32,12,6.24,6.69,8.16,12.73,9.86,18.05a41.39,41.39,0,0,0,2.53,6.67,5,5,0,0,1-2.11,6.75A5.05,5.05,0,0,1,310.53,228.8Z"/><circle class="cls-3" cx="268.01" cy="226.68" r="11.41"/></g><g id="Horse-3" data-name="Horse"><path class="cls-4" d="M349.15,372.68c-17.72,0-26.16-9-33.7-17a68.32,68.32,0,0,0-8.11-7.77c-5-3.82-24.2-6.36-39.6-8.41-13.57-1.8-27.6-3.66-36.61-6.58-14.85-4.8-27.3-16.28-33.64-23A63,63,0,0,0,191,330a5,5,0,0,1-9.93-1.16c.08-.73,2.18-18,12-30.28a5,5,0,0,1,3.92-1.89h0a5,5,0,0,1,3.92,1.9c.15.19,15.12,18.87,33.35,24.77,8.14,2.64,21.72,4.44,34.85,6.18,20,2.65,37.19,4.93,44.33,10.36a77.62,77.62,0,0,1,9.35,8.88c7.85,8.37,14.62,15.59,32.25,13.52,10.07-1.19,21.11-13.25,26.24-28.69,4.12-12.4,3.13-23.47-2.58-28.89-14-13.31-68.16-70.23-72.56-78.63a5,5,0,0,1,8.86-4.63c3.22,6.06,53.38,59.68,70.59,76,8.68,8.24,10.62,22.93,5.18,39.3a66.3,66.3,0,0,1-13.27,23.14c-6.5,7.18-13.86,11.44-21.29,12.32A60.63,60.63,0,0,1,349.15,372.68Z"/><path class="cls-4" d="M101.43,222.91a4.93,4.93,0,0,1-3.05-1,5,5,0,0,1-.91-7c1.14-1.48,28.64-36.47,91.06-54.68a5,5,0,1,1,2.8,9.6c-30.87,9-52.58,22.44-65.36,32.12-13.87,10.5-20.52,19-20.58,19.07A5,5,0,0,1,101.43,222.91Z"/><path class="cls-4" d="M310.53,228.8a5,5,0,0,1-4.44-2.69,48.74,48.74,0,0,1-3.2-8.27c-1.51-4.74-2.93-9.21-7.64-14.27-2.27-2.42-10.72-6.29-18.17-9.71-17.62-8.08-30.33-14.45-33.35-23a11,11,0,0,1,.53-8.73c6-12,4.56-25.77-4.24-41-3.19,4.66-7.94,11.31-13.48,18.25C212.6,156.8,200.76,167,191.33,169.78a5,5,0,0,1-2.8-9.6c15.16-4.42,39.33-38.25,47.37-50.91a5,5,0,0,1,8.33-.17c10,14.43,19.64,36.12,9,57.48a1,1,0,0,0-.05.95c1.84,5.21,17.63,12.45,28.08,17.24,11,5,17.88,8.3,21.32,12,6.24,6.69,8.16,12.73,9.86,18.05a41.39,41.39,0,0,0,2.53,6.67,5,5,0,0,1-2.11,6.75A5.05,5.05,0,0,1,310.53,228.8Z"/><circle class="cls-4" cx="268.01" cy="226.68" r="11.41"/></g></g></g></svg>