<svg xmlns="http://www.w3.org/2000/svg" viewBox="0 0 500 500"><defs><style>.cls-1,.cls-2{fill:none;stroke-linecap:round;stroke-linejoin:round;stroke-width:10px;}.cls-1{stroke:#272659;}.cls-2{stroke:#4c77b0;}</style></defs><g id="styles"><g id="thin"><g id="SleepApnoea"><path class="cls-1" d="M135,373.32c8-27,19.2-39.48,22.67-47.72,4.69-11.11,7.08-37.26,0-49.44S133.47,244.6,140,209.72c7.83-41.95,58.75-71.56,103.17-53.08s36.78,56.1,36,62.78-1.74,13.34,8,22.09c10.81,9.73,7.11,22.52-.61,27.55-12.69,8.26-.8,29.19-4.36,39.09-2.52,7-8.17,14.24-23.28,13.93s-22.75,2.85-28.4,20.55c-5.25,16.49,21,41.29,19.66,77.25"/><polyline class="cls-2" points="308.99 106.61 350.86 106.61 308.99 155.7 350.86 155.7"/><polyline class="cls-2" points="349.77 199.22 382.26 199.22 349.77 237.32 382.26 237.32"/><polyline class="cls-2" points="330.97 277.85 343.73 277.85 330.97 292.81 343.73 292.81"/></g></g></g></svg>