<svg xmlns="http://www.w3.org/2000/svg" viewBox="0 0 500 500"><defs><style>.cls-1,.cls-2{fill:none;stroke-linecap:round;stroke-linejoin:round;stroke-width:10px;}.cls-1{stroke:#4c77b0;}.cls-2{stroke:#272659;}</style></defs><g id="styles"><g id="thin"><g id="Facemask"><path class="cls-1" d="M356.62,282.61s55.12-22.94,55.12-64.13-60.13,0-60.13,0"/><path class="cls-1" d="M143.38,282.61s-55.12-22.94-55.12-64.13,60.13,0,60.13,0"/><path class="cls-2" d="M356.62,282.61S308.83,362.73,250,362.73s-106.62-80.12-106.62-80.12l5-64.13h15.05A84.71,84.71,0,0,0,198,211.14c12.8-5.72,32.44-16.71,52-16.71s39.23,11,52,16.71a84.71,84.71,0,0,0,34.53,7.34h15.05Z"/><line class="cls-2" x1="223.32" y1="249.53" x2="274.86" y2="249.53"/><line class="cls-2" x1="235.86" y1="322.51" x2="262.32" y2="322.51"/><line class="cls-2" x1="213.3" y1="286.02" x2="284.89" y2="286.02"/></g></g></g></svg>