<svg xmlns="http://www.w3.org/2000/svg" viewBox="0 0 500 500"><defs><style>.cls-1,.cls-2{fill:none;stroke-linecap:round;stroke-linejoin:round;stroke-width:10px;}.cls-1{stroke:#272659;}.cls-2{stroke:#4c77b0;}</style></defs><g id="styles"><g id="thin"><g id="Hair"><path class="cls-1" d="M218.84,361.47c4.65-33-15.94-35.74-30.45-33.81s-20.71-4.39-23.9-10.87c-4.5-9.14,4.67-30.56-8.43-37.13-8-4-12.93-15.9-3.58-26.43,8.41-9.47,16-24.16,14.5-30.5,0,0-6.49-23.77-4.8-33.55-2.81,14.9,25.43,60.63,60.87,59.76,0,0,.8-22.24,20.68-23.42,22.13-1.31,33.22,32.17,1.67,48.16"/><path class="cls-2" d="M396.6,260.6c-14.53-9.26-42.36-35.73-55.81-82.12-25.42-87.65-160.74-86.91-178.61,10.7"/><path class="cls-1" d="M261.08,260.6c0,40.07,21.71,69,32.79,80.13"/><path class="cls-2" d="M320.75,243.67c22.22,33.84,41.06,53.21,60.62,64.38"/><path class="cls-1" d="M317.36,307.71s9.75,16.47,19.5,27"/></g></g></g></svg>