<svg xmlns="http://www.w3.org/2000/svg" viewBox="0 0 500 500"><defs><style>.cls-1,.cls-2{fill:none;stroke-linecap:round;stroke-linejoin:round;stroke-width:10px;}.cls-1{stroke:#272659;}.cls-2{stroke:#4c77b0;}</style></defs><g id="styles"><g id="thin"><g id="worms"><path class="cls-1" d="M151.37,349.09a146.79,146.79,0,0,1-15.23-8.34A25.32,25.32,0,1,1,163,297.8c21.37,13.34,43.16,16.58,65.59,9.72,21-6.41,39-21,49.43-32.57a25.32,25.32,0,0,1,37.6,33.93C304,321.78,279.11,345,243.36,356,212.36,365.44,180.87,363,151.37,349.09Z"/><line class="cls-1" x1="174.18" y1="303.85" x2="153.45" y2="350.07"/><line class="cls-1" x1="207.12" y1="311" x2="205.41" y2="361.65"/><line class="cls-1" x1="236.42" y1="304.69" x2="257.45" y2="350.82"/><line class="cls-1" x1="266.76" y1="285.8" x2="297.29" y2="326.36"/><path class="cls-2" d="M331.07,147.65a145.86,145.86,0,0,1,17,3.6,25.32,25.32,0,1,1-13.33,48.86c-24.3-6.63-46.1-3.45-65.6,9.58-18.25,12.18-31.29,31.33-38,45.42a25.33,25.33,0,0,1-45.79-21.67c7.43-15.69,24.53-45.12,55.62-65.88C268,149.56,298.81,142.8,331.07,147.65Z"/><line class="cls-2" x1="322.26" y1="197.54" x2="328.8" y2="147.31"/><line class="cls-2" x1="288.66" y1="200.18" x2="275.71" y2="151.19"/><line class="cls-2" x1="262.41" y1="214.66" x2="228.98" y2="176.54"/><line class="cls-2" x1="238.79" y1="241.49" x2="197.87" y2="211.43"/></g></g></g></svg>