<svg xmlns="http://www.w3.org/2000/svg" viewBox="0 0 500 500"><defs><style>.cls-1,.cls-2{fill:none;stroke-linecap:round;stroke-linejoin:round;stroke-width:10px;}.cls-1{stroke:#4c77b0;}.cls-2{stroke:#272659;}</style></defs><g id="styles"><g id="thin"><g id="Services"><path class="cls-1" d="M293.47,156.9H272.42V135.85a22.42,22.42,0,0,0-44.84,0V156.9H206.53a22.42,22.42,0,1,0,0,44.84h21.05v21a22.42,22.42,0,0,0,44.84,0v-21h21.05a22.42,22.42,0,0,0,0-44.84Z"/><path class="cls-2" d="M120.19,375.05s87.15-.18,115-.7c26-.49,48.28-4.41,70-18.7,39.43-26,58.09-40.33,58.09-40.33,30.86-24.11-.63-63.76-33.19-41.21-15.14,10.48-20.58,15.17-50.95,32-16.84,9.32-49.17,7.85-73.26,7.85"/><path class="cls-2" d="M236.82,314c37.13-.58,35.57-51.51-1.17-50.87l-38.79.09c-48,0-62,26.72-105.25,26.72H72.68"/></g></g></g></svg>