<svg xmlns="http://www.w3.org/2000/svg" viewBox="0 0 500 500"><defs><style>.cls-1,.cls-2{fill:none;stroke-linecap:round;stroke-linejoin:round;stroke-width:10px;}.cls-1{stroke:#272659;}.cls-2{stroke:#4c77b0;}</style></defs><g id="styles"><g id="thin"><g id="Diabetes"><path class="cls-1" d="M179.68,343.07c13.94,3.09,22.77,5.71,40.23,7s30.18,1.24,30.18,1.24c11.88,0,23.25-9.71,23.25-21.59h0c0-6.82-2.37-9.6-7.35-13.57h12c9.94,0,18.08-11.45,18.08-21.39h0c0-9.94-2.34-14.76-12.28-14.76h4.6c10.58,0,19.24-11.14,19.24-21.73h0c0-7-4.62-10.67-10.25-14h63.56c10.73,0,19.83-8.78,19.68-19.5a19.3,19.3,0,0,0-19.23-19H218.16L250,185.08a21.72,21.72,0,0,0,6.39-30h0a21.73,21.73,0,0,0-30-6.39s-67.52,43.83-87.84,57C127,213.17,98.83,217.37,91.71,219.6"/><path class="cls-2" d="M379.8,314c0-13.9-25.42-42.42-25.42-42.42S329,300.09,329,314a25.42,25.42,0,0,0,50.84,0Z"/></g></g></g></svg>