<svg xmlns="http://www.w3.org/2000/svg" viewBox="0 0 500 500"><defs><style>.cls-1,.cls-2{fill:none;stroke-linecap:round;stroke-linejoin:round;stroke-width:10px;}.cls-1{stroke:#272659;}.cls-2{stroke:#4c77b0;}</style></defs><g id="styles"><g id="thin"><g id="FirstAid"><path id="BriefCase" class="cls-1" d="M344.7,194.68H318.3V155.83A13.37,13.37,0,0,0,305,142.5H195a13.37,13.37,0,0,0-13.34,13.33v38.85H155.3a19.63,19.63,0,0,0-19.63,19.63V330.73a19.63,19.63,0,0,0,19.63,19.63H344.7a19.63,19.63,0,0,0,19.63-19.63V214.31A19.63,19.63,0,0,0,344.7,194.68Z"/><line class="cls-2" x1="250" y1="303.14" x2="250" y2="234.84"/><line class="cls-2" x1="215.85" y1="268.99" x2="284.15" y2="268.99"/><line id="Handle" class="cls-2" x1="273.07" y1="183.49" x2="226.94" y2="183.49"/></g></g></g></svg>