<svg xmlns="http://www.w3.org/2000/svg" viewBox="0 0 500 500"><defs><style>.cls-1,.cls-2{fill:none;stroke-linecap:round;stroke-linejoin:round;stroke-width:10px;}.cls-1{stroke:#272659;}.cls-2{stroke:#4c77b0;}</style></defs><g id="styles"><g id="thin"><g id="ExpressShipping"><g id="truck"><circle class="cls-1" cx="186.84" cy="313.86" r="24.17"/><circle class="cls-1" cx="344.81" cy="313.86" r="24.17"/><line class="cls-2" x1="174.79" y1="238.24" x2="260.36" y2="238.24"/><line class="cls-2" x1="230.76" y1="210.25" x2="260.36" y2="238.24"/><line class="cls-2" x1="230.76" y1="266.24" x2="260.36" y2="238.24"/><path class="cls-1" d="M320.64,313.86H314.7V219.71h33.14a31.08,31.08,0,0,1,27.8,17.18l16,32a31.18,31.18,0,0,1,3.28,13.9h0A31.08,31.08,0,0,1,369,313.43"/><path class="cls-1" d="M162.67,313.86H152a33.31,33.31,0,0,1-33.31-33.31V197.28A33.31,33.31,0,0,1,152,164H281.39a33.31,33.31,0,0,1,33.31,33.31V313.86H211"/></g></g></g></g></svg>