<svg xmlns="http://www.w3.org/2000/svg" viewBox="0 0 500 500"><defs><style>.cls-1,.cls-2{fill:none;stroke-linecap:round;stroke-linejoin:round;stroke-width:10px;}.cls-1{stroke:#4c77b0;}.cls-2{stroke:#272659;}</style></defs><g id="styles"><g id="thin"><g id="Cold"><line class="cls-1" x1="250" y1="251.07" x2="287.47" y2="302.69"/><line class="cls-1" x1="250" y1="251.07" x2="310.67" y2="231.38"/><line class="cls-2" x1="250" y1="251.07" x2="250.02" y2="187.29"/><line class="cls-2" x1="250" y1="251.07" x2="189.34" y2="231.34"/><line class="cls-2" x1="250" y1="251.07" x2="212.49" y2="302.66"/><line class="cls-2" x1="250.01" y1="187.29" x2="281.12" y2="144.51"/><line class="cls-2" x1="250.01" y1="187.29" x2="218.94" y2="144.49"/><line class="cls-2" x1="189.34" y1="231.34" x2="158.27" y2="188.54"/><line class="cls-2" x1="189.34" y1="231.34" x2="139.04" y2="247.66"/><line class="cls-1" x1="287.48" y1="302.68" x2="287.46" y2="355.57"/><line class="cls-1" x1="287.48" y1="302.68" x2="337.77" y2="319.04"/><line class="cls-1" x1="310.67" y1="231.38" x2="360.96" y2="247.74"/><line class="cls-1" x1="310.67" y1="231.38" x2="341.77" y2="188.61"/><line class="cls-2" x1="212.49" y1="302.62" x2="162.18" y2="318.95"/><line class="cls-2" x1="212.49" y1="302.62" x2="212.47" y2="355.51"/></g></g></g></svg>