<svg xmlns="http://www.w3.org/2000/svg" viewBox="0 0 500 500"><defs><style>.cls-1,.cls-2{fill:none;stroke-linecap:round;stroke-linejoin:round;stroke-width:10px;}.cls-1{stroke:#272659;}.cls-2{stroke:#4c77b0;}</style></defs><g id="styles"><g id="thin"><g id="HotDeals"><g id="HotDeals-2" data-name="HotDeals"><path class="cls-1" d="M353.28,268.41c0-46.43-41.16-104.18-41.16-104.18-2.14,55.94-81.74,64.52-96.71,10.58-8-28.66-6.61-56-6.53-57.43,0,0,0,0,0,0-1.72,1.73-58,59.09-63.81,137.93-4.52,61.09,40.67,116.34,101.91,117.47A104.37,104.37,0,0,0,353.28,268.41Z"/><path class="cls-2" d="M264.14,261.91c-9.88-2.47-32.23-3.29-31.54,12.75s34.9,16,34.28,32.23-22.52,18-34.3,13"/><line class="cls-2" x1="249.34" y1="248.48" x2="249.34" y2="260.54"/><line class="cls-2" x1="249.34" y1="322.06" x2="249.34" y2="334.12"/></g></g></g></g></svg>