<svg xmlns="http://www.w3.org/2000/svg" xmlns:xlink="http://www.w3.org/1999/xlink" viewBox="0 0 500 500"><defs><style>.cls-1,.cls-2,.cls-3,.cls-5{fill:none;}.cls-2{stroke:#4c77b0;}.cls-2,.cls-3,.cls-5{stroke-linecap:round;stroke-linejoin:round;}.cls-2,.cls-3{stroke-width:10px;}.cls-3,.cls-5{stroke:#272659;}.cls-4{clip-path:url(#clip-path);}.cls-5{stroke-width:20px;}</style><clipPath id="clip-path"><path class="cls-1" d="M315.35,156.73a80.12,80.12,0,0,0-99.29,38.85,75.79,75.79,0,0,1,37.53,108.85c2,.91,4,1.78,6,2.54a80.12,80.12,0,1,0,55.72-150.24Z"/></clipPath></defs><g id="styles"><g id="thin"><g id="AccessoriesToys"><path class="cls-2" d="M151.35,199.76c11,17.11,14.41,37.22,7.68,55.73s-22.31,31.69-41.7,37.76"/><path class="cls-2" d="M225,332.44c-10.95-17.12-14.41-37.23-7.67-55.73S239.64,245,259,239"/><circle class="cls-3" cx="188.15" cy="266.09" r="75.85"/><g class="cls-4"><path class="cls-3" d="M191.66,132.08C235,123,316.38,163.67,326,218.47"/><path class="cls-3" d="M167.24,157.86c89.73-10.25,124.43,63.6,124.56,68.33"/><path class="cls-3" d="M206.88,265.6c95.92,39.68,179.2-28.52,195.18-94.87"/><path class="cls-3" d="M168.19,238.05c56.87,6.18,113.17,23,208.22-51.79"/><path class="cls-5" d="M125.5,178.93C214,161.1,254.88,231.74,255.41,236.44"/></g><line class="cls-2" x1="286.84" y1="311.97" x2="396.84" y2="311.97"/><path class="cls-3" d="M253.57,304.46A80.13,80.13,0,1,0,216,195.57"/></g></g></g></svg>