<svg xmlns="http://www.w3.org/2000/svg" viewBox="0 0 500 500"><defs><style>.cls-1{fill:#272659;}.cls-2{fill:#4c77b0;}.cls-3{fill:none;stroke:#232323;}.cls-4{fill:#232323;}</style></defs><g id="styles"><g id="thin"><g id="Sheep"><path class="cls-1" d="M252.75,351.17A5,5,0,0,1,250,342c18.34-12.2,39.07-36.83,41.12-40.79,3.31-6.39,26.95-15.66,34.63-16.87,4.3-.67,11.51-.22,19.85.3,7.26.46,19.4,1.22,22,.08,1.62-.84,7.17-7.21,11.92-16.37,5.58-10.75,6.11-17.6,4.87-20.19-13.24-27.57-41.41-39.78-58.24-47.07-8.19-3.55-13.6-5.9-16.13-9.2-.71-.93-1.43-1.9-2.17-2.91-6.2-8.39-13.22-17.91-29.87-19.41-9-.81-14.11.91-20.63,3.09-6.05,2-12.91,4.33-23.63,4.73-12.39.45-31.83-12.59-50.61-25.22-8.2-5.51-18.95-12.75-24.16-14.87-.67,13.65,7,23.58,13.84,32.4,5.79,7.49,11.26,14.56,10.24,22.71-.81,6.42-7.22,10.74-15.33,16.21-2.82,1.89-5.73,3.85-8.74,6.1a5,5,0,0,1-6-8c3.21-2.39,6.35-4.51,9.13-6.38,4.54-3.06,10.76-7.24,11-9.15.51-4.06-3.54-9.29-8.22-15.35-8.06-10.42-18.1-23.39-15.59-42.65a7.19,7.19,0,0,1,4.12-5.8c6.17-2.79,15.27,3,35.28,16.5,15,10.07,35.51,23.88,44.65,23.53s15.16-2.32,20.84-4.22c6.71-2.24,13.66-4.56,24.7-3.57,21.13,1.9,30.31,14.35,37,23.44.7.95,1.39,1.88,2.07,2.77,1.1,1.3,7.23,4,12.16,6.09,18.11,7.85,48.42,21,63.27,51.92,2.39,5,2,11.83-1.1,20.37-4.13,11.28-14,26.68-20.6,29.64-4.47,2-13.07,1.64-26.7.78-7.11-.44-14.46-.91-17.68-.4-7.91,1.24-24.76,9.14-27.46,11.9-3.53,6.25-25.16,31.47-44.3,44.2A5,5,0,0,1,252.75,351.17ZM300,305.81h0Z"/><path class="cls-2" d="M252.57,414a5,5,0,0,1-4.24-7.63c27-43.82-12.2-70.6-13.89-71.71a5,5,0,0,1-2.24-4.39c.72-16.78-3.53-30.15-12.63-39.72-15.23-16-39-16.43-39.28-16.43a5,5,0,0,1-4.88-5.87c4-22.28-2.26-40.23-17.46-50.56-14.83-10.07-35.94-10.46-51.35-.95a5,5,0,0,1-5.25-8.51c19-11.69,44-11.22,62.22,1.19,17.09,11.61,25.13,31.5,22.48,55.13,9.15,1.11,27.42,5.05,40.77,19.11,10.52,11.08,15.72,26,15.45,44.34a72.09,72.09,0,0,1,18.24,21.06c7.59,13.53,13.12,35.37-3.68,62.57A5,5,0,0,1,252.57,414Z"/><circle class="cls-1" cx="275.01" cy="204.85" r="11.41"/></g><g id="Sheep-2" data-name="Sheep"><path class="cls-3" d="M252.75,351.17A5,5,0,0,1,250,342c18.34-12.2,39.07-36.83,41.12-40.79,3.31-6.39,26.95-15.66,34.63-16.87,4.3-.67,11.51-.22,19.85.3,7.26.46,19.4,1.22,22,.08,1.62-.84,7.17-7.21,11.92-16.37,5.58-10.75,6.11-17.6,4.87-20.19-13.24-27.57-41.41-39.78-58.24-47.07-8.19-3.55-13.6-5.9-16.13-9.2-.71-.93-1.43-1.9-2.17-2.91-6.2-8.39-13.22-17.91-29.87-19.41-9-.81-14.11.91-20.63,3.09-6.05,2-12.91,4.33-23.63,4.73-12.39.45-31.83-12.59-50.61-25.22-8.2-5.51-18.95-12.75-24.16-14.87-.67,13.65,7,23.58,13.84,32.4,5.79,7.49,11.26,14.56,10.24,22.71-.81,6.42-7.22,10.74-15.33,16.21-2.82,1.89-5.73,3.85-8.74,6.1a5,5,0,0,1-6-8c3.21-2.39,6.35-4.51,9.13-6.38,4.54-3.06,10.76-7.24,11-9.15.51-4.06-3.54-9.29-8.22-15.35-8.06-10.42-18.1-23.39-15.59-42.65a7.19,7.19,0,0,1,4.12-5.8c6.17-2.79,15.27,3,35.28,16.5,15,10.07,35.51,23.88,44.65,23.53s15.16-2.32,20.84-4.22c6.71-2.24,13.66-4.56,24.7-3.57,21.13,1.9,30.31,14.35,37,23.44.7.95,1.39,1.88,2.07,2.77,1.1,1.3,7.23,4,12.16,6.09,18.11,7.85,48.42,21,63.27,51.92,2.39,5,2,11.83-1.1,20.37-4.13,11.28-14,26.68-20.6,29.64-4.47,2-13.07,1.64-26.7.78-7.11-.44-14.46-.91-17.68-.4-7.91,1.24-24.76,9.14-27.46,11.9-3.53,6.25-25.16,31.47-44.3,44.2A5,5,0,0,1,252.75,351.17ZM300,305.81h0Z"/><path class="cls-3" d="M252.57,414a5,5,0,0,1-4.24-7.63c27-43.82-12.2-70.6-13.89-71.71a5,5,0,0,1-2.24-4.39c.72-16.78-3.53-30.15-12.63-39.72-15.23-16-39-16.43-39.28-16.43a5,5,0,0,1-4.88-5.87c4-22.28-2.26-40.23-17.46-50.56-14.83-10.07-35.94-10.46-51.35-.95a5,5,0,0,1-5.25-8.51c19-11.69,44-11.22,62.22,1.19,17.09,11.61,25.13,31.5,22.48,55.13,9.15,1.11,27.42,5.05,40.77,19.11,10.52,11.08,15.72,26,15.45,44.34a72.09,72.09,0,0,1,18.24,21.06c7.59,13.53,13.12,35.37-3.68,62.57A5,5,0,0,1,252.57,414Z"/><circle class="cls-3" cx="275.01" cy="204.85" r="11.41"/></g><g id="Sheep-3" data-name="Sheep"><path class="cls-4" d="M252.75,351.17A5,5,0,0,1,250,342c18.34-12.2,39.07-36.83,41.12-40.79,3.31-6.39,26.95-15.66,34.63-16.87,4.3-.67,11.51-.22,19.85.3,7.26.46,19.4,1.22,22,.08,1.62-.84,7.17-7.21,11.92-16.37,5.58-10.75,6.11-17.6,4.87-20.19-13.24-27.57-41.41-39.78-58.24-47.07-8.19-3.55-13.6-5.9-16.13-9.2-.71-.93-1.43-1.9-2.17-2.91-6.2-8.39-13.22-17.91-29.87-19.41-9-.81-14.11.91-20.63,3.09-6.05,2-12.91,4.33-23.63,4.73-12.39.45-31.83-12.59-50.61-25.22-8.2-5.51-18.95-12.75-24.16-14.87-.67,13.65,7,23.58,13.84,32.4,5.79,7.49,11.26,14.56,10.24,22.71-.81,6.42-7.22,10.74-15.33,16.21-2.82,1.89-5.73,3.85-8.74,6.1a5,5,0,0,1-6-8c3.21-2.39,6.35-4.51,9.13-6.38,4.54-3.06,10.76-7.24,11-9.15.51-4.06-3.54-9.29-8.22-15.35-8.06-10.42-18.1-23.39-15.59-42.65a7.19,7.19,0,0,1,4.12-5.8c6.17-2.79,15.27,3,35.28,16.5,15,10.07,35.51,23.88,44.65,23.53s15.16-2.32,20.84-4.22c6.71-2.24,13.66-4.56,24.7-3.57,21.13,1.9,30.31,14.35,37,23.44.7.95,1.39,1.88,2.07,2.77,1.1,1.3,7.23,4,12.16,6.09,18.11,7.85,48.42,21,63.27,51.92,2.39,5,2,11.83-1.1,20.37-4.13,11.28-14,26.68-20.6,29.64-4.47,2-13.07,1.64-26.7.78-7.11-.44-14.46-.91-17.68-.4-7.91,1.24-24.76,9.14-27.46,11.9-3.53,6.25-25.16,31.47-44.3,44.2A5,5,0,0,1,252.75,351.17ZM300,305.81h0Z"/><path class="cls-4" d="M252.57,414a5,5,0,0,1-4.24-7.63c27-43.82-12.2-70.6-13.89-71.71a5,5,0,0,1-2.24-4.39c.72-16.78-3.53-30.15-12.63-39.72-15.23-16-39-16.43-39.28-16.43a5,5,0,0,1-4.88-5.87c4-22.28-2.26-40.23-17.46-50.56-14.83-10.07-35.94-10.46-51.35-.95a5,5,0,0,1-5.25-8.51c19-11.69,44-11.22,62.22,1.19,17.09,11.61,25.13,31.5,22.48,55.13,9.15,1.11,27.42,5.05,40.77,19.11,10.52,11.08,15.72,26,15.45,44.34a72.09,72.09,0,0,1,18.24,21.06c7.59,13.53,13.12,35.37-3.68,62.57A5,5,0,0,1,252.57,414Z"/><circle class="cls-4" cx="275.01" cy="204.85" r="11.41"/></g></g></g></svg>