<svg xmlns="http://www.w3.org/2000/svg" viewBox="0 0 500 500"><defs><style>.cls-1,.cls-2{fill:none;stroke-linecap:round;stroke-linejoin:round;stroke-width:10px;}.cls-1{stroke:#272659;}.cls-2{stroke:#4c77b0;}</style></defs><g id="styles"><g id="thin"><g id="flea"><line class="cls-1" x1="321.21" y1="189.44" x2="358.29" y2="189.44"/><line class="cls-1" x1="305.55" y1="173.77" x2="305.55" y2="136.7"/><polyline class="cls-2" points="304.87 234.78 343.07 247.93 362.07 235.46"/><polyline class="cls-2" points="260.12 190.03 246.97 151.83 259.44 132.83"/><polyline class="cls-2" points="216.17 197.22 202.79 170.85 166.74 175.73"/><polyline class="cls-2" points="297.71 278.76 324.08 292.14 319.2 328.19"/><polyline class="cls-2" points="175.39 237.8 143.91 229.53 119.93 246.47"/><polyline class="cls-2" points="257.3 319.71 265.57 351.18 248.63 375.17"/><path class="cls-1" d="M304.87,234.79a31.62,31.62,0,0,0,9.81-6.07,34.23,34.23,0,1,0-48.42-48.41,31.8,31.8,0,0,0-6.06,9.81"/><path class="cls-1" d="M190.88,216.81c17.94,37,50.3,69.34,87.28,87.26"/><path class="cls-1" d="M278.93,303.3c-36.08,36.08-99.44,37.65-112.17,24.93s-11.15-76.09,24.93-112.17,72.81-33.75,96.9-9.66S315,267.21,278.93,303.3Z"/><path class="cls-1" d="M226.18,192.64a199.46,199.46,0,0,0,76.18,76.15"/><path class="cls-1" d="M166.1,259.15a200.34,200.34,0,0,0,69.76,69.73"/></g></g></g></svg>