<svg xmlns="http://www.w3.org/2000/svg" viewBox="0 0 500 500"><defs><style>.cls-1{fill:#272659;}.cls-2{fill:#4c77b0;}.cls-3{fill:none;stroke:#232323;}.cls-4{fill:#232323;}</style></defs><g id="styles"><g id="thin"><g id="Fish"><path class="cls-1" d="M214,349.84c-1.22,0-2.43,0-3.65,0-40.77-.6-47.88-1.22-48.16-1.25a5,5,0,0,1,.92-10c.27,0,7.5.62,47.39,1.21l2.93,0c46.36,0,111.19-15.87,147.24-51.39,9.74-9.6,15.11-19.09,15.11-26.73,0-17.67-18.64-36.54-49.87-50.48-27-12-76.21-26.4-157.58-26.4a5,5,0,0,1,0-10c83.14,0,133.8,14.83,161.66,27.27,35.45,15.83,55.79,37.56,55.79,59.61,0,10.48-6.26,22.19-18.1,33.86-15.06,14.84-37.81,28.39-64.05,38.15A259.75,259.75,0,0,1,214,349.84Z"/><path class="cls-1" d="M256.05,191.38a5,5,0,0,1-4.36-2.54h0c-.07-.13-7.73-13.45-24-26.55C205.9,144.83,179.86,136,150.26,136a5,5,0,0,1,0-10c40,0,67.77,15.67,84,28.82,17.67,14.29,25.8,28.54,26.13,29.14a5,5,0,0,1-4.35,7.45Z"/><path class="cls-2" d="M227.85,314.26a5,5,0,0,1-4.58-3c-.35-.81-8.61-20-8.36-39.6a5,5,0,1,1,10,.13c-.23,17.42,7.45,35.3,7.52,35.48a5,5,0,0,1-2.59,6.57A4.84,4.84,0,0,1,227.85,314.26Z"/><path class="cls-2" d="M194.13,314.26a5,5,0,0,1-4.56-2.93c-.36-.81-9-20.06-8.39-39.77a5,5,0,1,1,10,.32c-.56,17.4,7.41,35.13,7.5,35.31a5,5,0,0,1-4.55,7.07Z"/><path class="cls-1" d="M181.55,383.39a5,5,0,0,1-.85-9.93c24.19-4.25,47.39-21.94,56.13-33.14a5,5,0,1,1,7.89,6.15c-11.36,14.55-37.05,32.41-62.29,36.84A5.33,5.33,0,0,1,181.55,383.39Z"/><circle class="cls-1" cx="316.96" cy="253.59" r="11.41"/></g><g id="Fish-2" data-name="Fish"><path class="cls-3" d="M214,349.84c-1.22,0-2.43,0-3.65,0-40.77-.6-47.88-1.22-48.16-1.25a5,5,0,0,1,.92-10c.27,0,7.5.62,47.39,1.21l2.93,0c46.36,0,111.19-15.87,147.24-51.39,9.74-9.6,15.11-19.09,15.11-26.73,0-17.67-18.64-36.54-49.87-50.48-27-12-76.21-26.4-157.58-26.4a5,5,0,0,1,0-10c83.14,0,133.8,14.83,161.66,27.27,35.45,15.83,55.79,37.56,55.79,59.61,0,10.48-6.26,22.19-18.1,33.86-15.06,14.84-37.81,28.39-64.05,38.15A259.75,259.75,0,0,1,214,349.84Z"/><path class="cls-3" d="M256.05,191.38a5,5,0,0,1-4.36-2.54h0c-.07-.13-7.73-13.45-24-26.55C205.9,144.83,179.86,136,150.26,136a5,5,0,0,1,0-10c40,0,67.77,15.67,84,28.82,17.67,14.29,25.8,28.54,26.13,29.14a5,5,0,0,1-4.35,7.45Z"/><path class="cls-3" d="M227.85,314.26a5,5,0,0,1-4.58-3c-.35-.81-8.61-20-8.36-39.6a5,5,0,1,1,10,.13c-.23,17.42,7.45,35.3,7.52,35.48a5,5,0,0,1-2.59,6.57A4.84,4.84,0,0,1,227.85,314.26Z"/><path class="cls-3" d="M194.13,314.26a5,5,0,0,1-4.56-2.93c-.36-.81-9-20.06-8.39-39.77a5,5,0,1,1,10,.32c-.56,17.4,7.41,35.13,7.5,35.31a5,5,0,0,1-4.55,7.07Z"/><path class="cls-3" d="M181.55,383.39a5,5,0,0,1-.85-9.93c24.19-4.25,47.39-21.94,56.13-33.14a5,5,0,1,1,7.89,6.15c-11.36,14.55-37.05,32.41-62.29,36.84A5.33,5.33,0,0,1,181.55,383.39Z"/><circle class="cls-3" cx="316.96" cy="253.59" r="11.41"/></g><g id="Fish-3" data-name="Fish"><path class="cls-4" d="M214,349.84c-1.22,0-2.43,0-3.65,0-40.77-.6-47.88-1.22-48.16-1.25a5,5,0,0,1,.92-10c.27,0,7.5.62,47.39,1.21l2.93,0c46.36,0,111.19-15.87,147.24-51.39,9.74-9.6,15.11-19.09,15.11-26.73,0-17.67-18.64-36.54-49.87-50.48-27-12-76.21-26.4-157.58-26.4a5,5,0,0,1,0-10c83.14,0,133.8,14.83,161.66,27.27,35.45,15.83,55.79,37.56,55.79,59.61,0,10.48-6.26,22.19-18.1,33.86-15.06,14.84-37.81,28.39-64.05,38.15A259.75,259.75,0,0,1,214,349.84Z"/><path class="cls-4" d="M256.05,191.38a5,5,0,0,1-4.36-2.54h0c-.07-.13-7.73-13.45-24-26.55C205.9,144.83,179.86,136,150.26,136a5,5,0,0,1,0-10c40,0,67.77,15.67,84,28.82,17.67,14.29,25.8,28.54,26.13,29.14a5,5,0,0,1-4.35,7.45Z"/><path class="cls-4" d="M227.85,314.26a5,5,0,0,1-4.58-3c-.35-.81-8.61-20-8.36-39.6a5,5,0,1,1,10,.13c-.23,17.42,7.45,35.3,7.52,35.48a5,5,0,0,1-2.59,6.57A4.84,4.84,0,0,1,227.85,314.26Z"/><path class="cls-4" d="M194.13,314.26a5,5,0,0,1-4.56-2.93c-.36-.81-9-20.06-8.39-39.77a5,5,0,1,1,10,.32c-.56,17.4,7.41,35.13,7.5,35.31a5,5,0,0,1-4.55,7.07Z"/><path class="cls-4" d="M181.55,383.39a5,5,0,0,1-.85-9.93c24.19-4.25,47.39-21.94,56.13-33.14a5,5,0,1,1,7.89,6.15c-11.36,14.55-37.05,32.41-62.29,36.84A5.33,5.33,0,0,1,181.55,383.39Z"/><circle class="cls-4" cx="316.96" cy="253.59" r="11.41"/></g></g></g></svg>