<svg xmlns="http://www.w3.org/2000/svg" viewBox="0 0 500 500"><defs><style>.cls-1,.cls-2{fill:none;stroke-linecap:round;stroke-linejoin:round;stroke-width:10px;}.cls-1{stroke:#4c77b0;}.cls-2{stroke:#272659;}</style></defs><g id="styles"><g id="thin"><g id="Oral"><path class="cls-1" d="M257.79,164.66a57.05,57.05,0,0,1,92.44,44.74c0,49-43.21,58.44-44,127.25C306.12,346.26,296,354,286,354c-7.52,0-15.67-3.32-17.73-10-5-16.23.24-22.16-19.08-55.11"/><path class="cls-2" d="M259.13,277.12c-17.4,15.55-23.23,42.08-29.39,64.29-2.15,7.77-10.48,12.63-19.05,12.63-10,0-19.95-6.9-20.26-16.51-2.15-67-40.77-82.22-40.66-128.13A63.49,63.49,0,0,1,213.21,146c14.57,0,38.53,3.91,59.25,37.92"/></g></g></g></svg>