<svg xmlns="http://www.w3.org/2000/svg" xmlns:xlink="http://www.w3.org/1999/xlink" viewBox="0 0 500 500"><defs><style>.cls-1{fill:#272659;}.cls-2,.cls-3{fill:none;stroke-linecap:round;stroke-linejoin:round;stroke-width:10px;}.cls-2{stroke:#272659;}.cls-3{stroke:#4c77b0;}</style><symbol id="Eye" data-name="Eye" viewBox="0 0 22.81 22.81"><circle class="cls-1" cx="11.41" cy="11.41" r="11.41"/></symbol><symbol id="thin-rabbit" data-name="thin-rabbit" viewBox="0 0 261.06 281.25"><g id="Bunny"><path class="cls-2" d="M49.8,78.18C76.29,94,103.56,103.1,107.52,112.1s-22,49-49.68,56.52S5,168.78,5,168.78"/><path class="cls-2" d="M137.76,276.25s10.08-38.88,26.28-47.88,54,6.48,64.79,1.44,26.17-13.29,27-23.4c2.88-34.91-22.32-74.51-37.08-86.39s-40.31-19.8-50-25.92-33.32-44-60.48-63.36"/><path class="cls-3" d="M108.24,30.74C74.45,6.67,22-3.84,8.52,13.82-4.73,31.2,21.91,61.51,49.8,78.18"/><use width="22.81" height="22.81" transform="translate(162.61 133.14)" xlink:href="#Eye"/></g></symbol></defs><g id="styles"><g id="thin"><use width="261.06" height="281.25" transform="translate(127.97 105.01)" xlink:href="#thin-rabbit"/></g></g></svg>