<svg xmlns="http://www.w3.org/2000/svg" viewBox="0 0 500 500"><defs><style>.cls-1,.cls-2{fill:none;stroke-linecap:round;stroke-linejoin:round;stroke-width:10px;}.cls-1{stroke:#4c77b0;}.cls-2{stroke:#272659;}</style></defs><g id="styles"><g id="thin"><g id="About"><path class="cls-1" d="M160.15,288.93v57.4h0c0,7.37,5.08,13.35,11.33,13.35h52.28V308.54h52.13v51.14h51.67c6.26,0,11.34-6,11.34-13.35h0v-57.4"/><path class="cls-2" d="M184.61,161.09H165.09L125.7,238.17a31,31,0,1,0,61.91,0,31,31,0,1,0,61.91,0,31,31,0,1,0,61.91,0,31,31,0,1,0,61.91,0L334,161.09H314.43"/><line class="cls-1" x1="250" y1="195.23" x2="250" y2="126.94"/><line class="cls-1" x1="215.85" y1="161.09" x2="284.15" y2="161.09"/></g></g></g></svg>