<svg xmlns="http://www.w3.org/2000/svg" viewBox="0 0 500 500"><defs><style>.cls-1,.cls-2{fill:none;stroke-linecap:round;stroke-linejoin:round;stroke-width:10px;}.cls-1{stroke:#4c77b0;}.cls-2{stroke:#272659;}</style></defs><g id="styles"><g id="thin"><g id="FAQ"><circle class="cls-1" cx="240.71" cy="363.79" r="30.49"/><path class="cls-2" d="M265.7,281.9v9.62c0,31.35-50.29,29.94-50.29-.52V275.1c0-10.2,1.32-18,4.75-22.94,25.94-37.33,58.45-35,58.7-63.91.12-14.79-11.47-27-25.8-27-11.3,0-21.95,2.49-33.48,16-21.16,24.72-56.54-6.64-35.16-33.52,13.46-16.93,33.82-32,69.94-32,24.78,0,75.48,12.85,75.48,77.8C329.84,248.67,265.7,258.79,265.7,281.9Z"/></g></g></g></svg>