<svg xmlns="http://www.w3.org/2000/svg" viewBox="0 0 500 500"><defs><style>.cls-1{fill:#272659;}.cls-2{fill:#4c77b0;}.cls-3{fill:none;stroke:#232323;}.cls-4{fill:#232323;}</style></defs><g id="styles"><g id="thin"><g id="Cat"><path class="cls-1" d="M250.8,364.48a5,5,0,0,1-4.36-7.43c.49-.88,12.15-21.5,28.85-27.45,6.08-2.17,13.59-3.51,21.53-4.92,12-2.14,25.61-4.56,34.13-10.25,16.42-11,27.11-33.22,25-44.35-1.38-7.31-10.2-13.61-18-19.16-6.33-4.52-12.32-8.79-15.07-14a87.5,87.5,0,0,1-6-15.42c-1.61-5.12-3.13-9.95-5.65-13.82l-.54-.84c-5-7.68-15.24-23.67-65-32.33a5,5,0,0,1,1.72-9.86c54,9.42,66,27.9,71.67,36.78l.51.79c3.27,5,5.07,10.75,6.81,16.28a80.36,80.36,0,0,0,5.27,13.71c1.65,3.1,6.94,6.88,12.06,10.52,9.32,6.65,19.89,14.19,22,25.46,3.35,17.78-12.7,43.45-29.29,54.52-10.26,6.85-25,9.47-37.92,11.77-7.53,1.34-14.63,2.61-19.94,4.5-10.94,3.9-20.65,17.85-23.47,22.9A5,5,0,0,1,250.8,364.48Z"/><path class="cls-1" d="M133.14,204.5a5,5,0,0,1-3.95-8.05c.54-.71,13.55-17.3,41.43-27.35a5,5,0,1,1,3.39,9.41c-25.16,9.07-36.79,23.89-36.9,24A5,5,0,0,1,133.14,204.5Z"/><path class="cls-2" d="M166.59,213.56l-.42,0a5,5,0,0,1-4.57-5.39c2-23.92,7.64-46.66,16.47-65.77,7.43-16.09,17-29.21,26.34-36,5.81-4.24,11.38-5.9,16.1-4.8,15.82,3.69,19.85,22.58,23.75,40.85,2.87,13.44,5.83,27.33,13,35.25a5,5,0,0,1-7.42,6.7c-8.95-9.91-12.2-25.14-15.34-39.86-3.4-15.92-6.6-30.95-16.24-33.2-1.33-.31-4.11.36-7.93,3.14-15.9,11.6-34.8,46.12-38.75,94.51A5,5,0,0,1,166.59,213.56Z"/><circle class="cls-1" cx="280.93" cy="232.24" r="11.41"/></g><g id="Cat-2" data-name="Cat"><path class="cls-3" d="M250.8,364.48a5,5,0,0,1-4.36-7.43c.49-.88,12.15-21.5,28.85-27.45,6.08-2.17,13.59-3.51,21.53-4.92,12-2.14,25.61-4.56,34.13-10.25,16.42-11,27.11-33.22,25-44.35-1.38-7.31-10.2-13.61-18-19.16-6.33-4.52-12.32-8.79-15.07-14a87.5,87.5,0,0,1-6-15.42c-1.61-5.12-3.13-9.95-5.65-13.82l-.54-.84c-5-7.68-15.24-23.67-65-32.33a5,5,0,0,1,1.72-9.86c54,9.42,66,27.9,71.67,36.78l.51.79c3.27,5,5.07,10.75,6.81,16.28a80.36,80.36,0,0,0,5.27,13.71c1.65,3.1,6.94,6.88,12.06,10.52,9.32,6.65,19.89,14.19,22,25.46,3.35,17.78-12.7,43.45-29.29,54.52-10.26,6.85-25,9.47-37.92,11.77-7.53,1.34-14.63,2.61-19.94,4.5-10.94,3.9-20.65,17.85-23.47,22.9A5,5,0,0,1,250.8,364.48Z"/><path class="cls-3" d="M133.14,204.5a5,5,0,0,1-3.95-8.05c.54-.71,13.55-17.3,41.43-27.35a5,5,0,1,1,3.39,9.41c-25.16,9.07-36.79,23.89-36.9,24A5,5,0,0,1,133.14,204.5Z"/><path class="cls-3" d="M166.59,213.56l-.42,0a5,5,0,0,1-4.57-5.39c2-23.92,7.64-46.66,16.47-65.77,7.43-16.09,17-29.21,26.34-36,5.81-4.24,11.38-5.9,16.1-4.8,15.82,3.69,19.85,22.58,23.75,40.85,2.87,13.44,5.83,27.33,13,35.25a5,5,0,0,1-7.42,6.7c-8.95-9.91-12.2-25.14-15.34-39.86-3.4-15.92-6.6-30.95-16.24-33.2-1.33-.31-4.11.36-7.93,3.14-15.9,11.6-34.8,46.12-38.75,94.51A5,5,0,0,1,166.59,213.56Z"/><circle class="cls-3" cx="280.93" cy="232.24" r="11.41"/></g><g id="Cat-3" data-name="Cat"><path class="cls-4" d="M250.8,364.48a5,5,0,0,1-4.36-7.43c.49-.88,12.15-21.5,28.85-27.45,6.08-2.17,13.59-3.51,21.53-4.92,12-2.14,25.61-4.56,34.13-10.25,16.42-11,27.11-33.22,25-44.35-1.38-7.31-10.2-13.61-18-19.16-6.33-4.52-12.32-8.79-15.07-14a87.5,87.5,0,0,1-6-15.42c-1.61-5.12-3.13-9.95-5.65-13.82l-.54-.84c-5-7.68-15.24-23.67-65-32.33a5,5,0,0,1,1.72-9.86c54,9.42,66,27.9,71.67,36.78l.51.79c3.27,5,5.07,10.75,6.81,16.28a80.36,80.36,0,0,0,5.27,13.71c1.65,3.1,6.94,6.88,12.06,10.52,9.32,6.65,19.89,14.19,22,25.46,3.35,17.78-12.7,43.45-29.29,54.52-10.26,6.85-25,9.47-37.92,11.77-7.53,1.34-14.63,2.61-19.94,4.5-10.94,3.9-20.65,17.85-23.47,22.9A5,5,0,0,1,250.8,364.48Z"/><path class="cls-4" d="M133.14,204.5a5,5,0,0,1-3.95-8.05c.54-.71,13.55-17.3,41.43-27.35a5,5,0,1,1,3.39,9.41c-25.16,9.07-36.79,23.89-36.9,24A5,5,0,0,1,133.14,204.5Z"/><path class="cls-4" d="M166.59,213.56l-.42,0a5,5,0,0,1-4.57-5.39c2-23.92,7.64-46.66,16.47-65.77,7.43-16.09,17-29.21,26.34-36,5.81-4.24,11.38-5.9,16.1-4.8,15.82,3.69,19.85,22.58,23.75,40.85,2.87,13.44,5.83,27.33,13,35.25a5,5,0,0,1-7.42,6.7c-8.95-9.91-12.2-25.14-15.34-39.86-3.4-15.92-6.6-30.95-16.24-33.2-1.33-.31-4.11.36-7.93,3.14-15.9,11.6-34.8,46.12-38.75,94.51A5,5,0,0,1,166.59,213.56Z"/><circle class="cls-4" cx="280.93" cy="232.24" r="11.41"/></g></g></g></svg>