<svg xmlns="http://www.w3.org/2000/svg" xmlns:xlink="http://www.w3.org/1999/xlink" viewBox="0 0 500 500"><defs><style>.cls-1{fill:#272659;}.cls-2,.cls-3{fill:none;stroke-linecap:round;stroke-linejoin:round;stroke-width:10px;}.cls-2{stroke:#272659;}.cls-3{stroke:#4c77b0;}</style><symbol id="Eye" data-name="Eye" viewBox="0 0 22.81 22.81"><circle class="cls-1" cx="11.41" cy="11.41" r="11.41"/></symbol><symbol id="thin-horse" data-name="thin-horse" viewBox="0 0 297.32 265.73"><g id="Horse"><path class="cls-2" d="M214.09,116.85c3.72,7.11,55.49,62.06,71.58,77.32,17.56,16.67-2.55,63.34-26.52,66.16-27.08,3.19-32.74-13.89-45.22-23.38-10.67-8.11-57.74-9.3-77.69-15.76s-35.74-26.43-35.74-26.43c-9,11.35-10.92,27.75-10.92,27.75"/><path class="cls-2" d="M5,111S31.92,76,93.5,58"/><path class="cls-3" d="M93.5,58c20.29-5.91,50.19-53,50.19-53,15.85,22.93,14.63,40.34,8.62,52.41-6.92,13.87,41.86,26.9,50.16,35.81s7.9,16.52,11.62,23.63"/><use width="22.81" height="22.81" transform="translate(160.17 108.32)" xlink:href="#Eye"/></g></symbol></defs><g id="styles"><g id="thin"><use width="297.32" height="265.73" transform="translate(96.43 106.95)" xlink:href="#thin-horse"/></g></g></svg>