<svg xmlns="http://www.w3.org/2000/svg" viewBox="0 0 500 500"><defs><style>.cls-1,.cls-2{fill:none;stroke-linecap:round;stroke-linejoin:round;stroke-width:10px;}.cls-1{stroke:#4c77b0;}.cls-2{stroke:#272659;}</style></defs><g id="styles"><g id="thin"><g id="Allergies"><line class="cls-1" x1="250" y1="231.77" x2="250" y2="385.81"/><line class="cls-1" x1="171.75" y1="183.35" x2="171.75" y2="224.84"/><line class="cls-1" x1="328.25" y1="183.35" x2="328.25" y2="224.84"/><line class="cls-1" x1="250" y1="109.51" x2="250" y2="142.86"/><path class="cls-2" d="M239.32,231.39c8.46,7.11,16.95,24.87,4.09,40.2s-31.83,10.05-40.29,3c-15.61-13.1-40.68-44.77-27.82-60.1S223.71,218.3,239.32,231.39Z"/><path class="cls-2" d="M260.68,231.39c-8.46,7.11-17,24.87-4.09,40.2s31.83,10.05,40.29,3c15.61-13.1,40.68-44.77,27.82-60.1S276.29,218.3,260.68,231.39Z"/><path class="cls-2" d="M239.32,296.31c8.46,7.1,16.95,24.86,4.09,40.19s-31.83,10.05-40.29,2.95c-15.61-13.1-40.68-44.77-27.82-60.1S223.71,283.21,239.32,296.31Z"/><path class="cls-2" d="M260.68,296.31c-8.46,7.1-17,24.86-4.09,40.19s31.83,10.05,40.29,2.95c15.61-13.1,40.68-44.77,27.82-60.1S276.29,283.21,260.68,296.31Z"/><path class="cls-2" d="M221.84,202.8c0,11,8.15,29,28.16,29s28.16-17.92,28.16-29c0-20.38-8.15-59.94-28.16-59.94S221.84,182.42,221.84,202.8Z"/></g></g></g></svg>