<svg xmlns="http://www.w3.org/2000/svg" viewBox="0 0 500 500"><defs><style>.cls-1,.cls-2{fill:none;stroke-linecap:round;stroke-linejoin:round;stroke-width:10px;}.cls-1{stroke:#4c77b0;}.cls-2{stroke:#272659;}</style></defs><g id="styles"><g id="thin"><g id="Promote"><path class="cls-1" d="M281.17,262.76a33.67,33.67,0,0,0-26.32-62"/><ellipse class="cls-2" cx="305.2" cy="215.48" rx="43.02" ry="101.21" transform="translate(-59.93 136.38) rotate(-23)"/><path class="cls-1" d="M219.21,295.05l26.53,62.49c3.85,9.08-.74,21.88-11.21,26.33s-22.87-1.15-26.73-10.23l-26.51-62.47"/><path class="cls-2" d="M307.91,295.73c-26.18-21.4-65.35-10.59-82.32-3.39l-45.94,19.5c-19.53,8.29-42.58-2-50.87-21.55s.31-43.27,19.83-51.56l45.94-19.5c17-7.2,52-27.87,54.75-61.57"/><path class="cls-2" d="M194.55,219.23c-2.72,11.76-1.46,26,4.42,39.85,6.43,15.14,17,26.63,28.52,32.48"/></g></g></g></svg>