<svg xmlns="http://www.w3.org/2000/svg" viewBox="0 0 500 500"><defs><style>.cls-1,.cls-2{fill:none;stroke-linecap:round;stroke-linejoin:round;stroke-width:10px;}.cls-1{stroke:#4c77b0;}.cls-2{stroke:#272659;}</style></defs><g id="styles"><g id="thin"><g id="food-dry"><path class="cls-1" d="M303.46,157.59l-108.8,10V143.84a5.62,5.62,0,0,1,5.1-5.59l97.57-9a5.61,5.61,0,0,1,6.13,5.58Z"/><path class="cls-2" d="M194.66,167.63l-5,24.73a471.7,471.7,0,0,0-9.47,94.06v77.79l29,10"/><path class="cls-2" d="M201.84,207.86l-7.18-40.23,108.8-10,7.18,40.24A472.24,472.24,0,0,1,318,280.65v83.56l-108.8,10V290.69A471.4,471.4,0,0,0,201.84,207.86Z"/></g></g></g></svg>