<svg xmlns="http://www.w3.org/2000/svg" viewBox="0 0 500 500"><defs><style>.cls-1,.cls-2{fill:none;stroke-linecap:round;stroke-linejoin:round;stroke-width:10px;}.cls-1{stroke:#4c77b0;}.cls-2{stroke:#272659;}</style></defs><g id="styles"><g id="thin"><g id="Cycle"><path class="cls-1" d="M377.51,224.24a21.7,21.7,0,0,0-30.61,0l-8,8v-17c0-46.48-28.38-69.5-70.34-69.5a22.17,22.17,0,0,0,.35,44.34,25.15,25.15,0,0,1,25.16,25.16v18.6l-9.22-9.22c-7.94-7.94-20.73-8.92-29.39-1.79a21.7,21.7,0,0,0-1.58,32.05l43.56,43.56a25.83,25.83,0,0,0,36.52,0l43.56-43.56A21.72,21.72,0,0,0,377.51,224.24Z"/><path class="cls-2" d="M123.47,279.49a21.7,21.7,0,0,0,30.61,0l8-8v17c0,46.47,28.38,69.5,70.34,69.5a22.17,22.17,0,0,0-.35-44.34,25.15,25.15,0,0,1-25.16-25.16v-18.6l9.22,9.22c7.94,7.94,20.73,8.92,29.39,1.79a21.7,21.7,0,0,0,1.58-32.05l-43.56-43.56a25.83,25.83,0,0,0-36.52,0l-43.56,43.56A21.7,21.7,0,0,0,123.47,279.49Z"/></g></g></g></svg>