<svg xmlns="http://www.w3.org/2000/svg" viewBox="0 0 500 500"><defs><style>.cls-1,.cls-2{fill:none;stroke-linecap:round;stroke-linejoin:round;stroke-width:10px;}.cls-1{stroke:#4c77b0;}.cls-2{stroke:#272659;}</style></defs><g id="styles"><g id="thin"><g id="Careers"><line id="Handle" class="cls-1" x1="273.07" y1="183.49" x2="226.94" y2="183.49"/><line class="cls-1" x1="135.67" y1="296.79" x2="364.33" y2="296.79"/><path id="BriefCase" class="cls-2" d="M347.32,194.68h-29V155.83A13.37,13.37,0,0,0,305,142.5H195a13.37,13.37,0,0,0-13.34,13.33v38.85h-29a17,17,0,0,0-17,17V333.34a17,17,0,0,0,17,17H347.32a17,17,0,0,0,17-17V211.69A17,17,0,0,0,347.32,194.68Z"/></g></g></g></svg>