<svg xmlns="http://www.w3.org/2000/svg" viewBox="0 0 500 500"><defs><style>.cls-1,.cls-2{fill:none;stroke-linecap:round;stroke-linejoin:round;stroke-width:10px;}.cls-1{stroke:#272659;}.cls-2{stroke:#4c77b0;}</style></defs><g id="styles"><g id="thin"><g id="HealthInformation"><circle class="cls-1" cx="194.7" cy="174.2" r="34.83"/><path class="cls-2" d="M370.13,192.39H347.45V169.72a24.15,24.15,0,1,0-48.3,0v22.67H276.48a24.15,24.15,0,0,0,0,48.3h22.67v22.68a24.15,24.15,0,1,0,48.3,0V240.69h22.68a24.15,24.15,0,0,0,0-48.3Z"/><path class="cls-1" d="M194.7,372.46a29.23,29.23,0,0,1-29.14-29.14V250.68a29.14,29.14,0,1,1,58.27,0v92.64A29.22,29.22,0,0,1,194.7,372.46Z"/></g></g></g></svg>