<svg xmlns="http://www.w3.org/2000/svg" xmlns:xlink="http://www.w3.org/1999/xlink" viewBox="0 0 500 500"><defs><style>.cls-1{fill:#272659;}.cls-2,.cls-3{fill:none;stroke-linecap:round;stroke-linejoin:round;stroke-width:10px;}.cls-2{stroke:#272659;}.cls-3{stroke:#4c77b0;}</style><symbol id="Eye" data-name="Eye" viewBox="0 0 22.81 22.81"><circle class="cls-1" cx="11.41" cy="11.41" r="11.41"/></symbol><symbol id="thin-sheep" data-name="thin-sheep" viewBox="0 0 295.94 287.34"><g id="Sheep"><path class="cls-2" d="M57,84c11.13-8.3,21.37-13.14,22.09-18.92,1.85-14.74-27.63-28.62-23.81-58,1.72-13.2,58,39.38,79.28,38.57s26-9.5,44.9-7.8c21,1.89,28.62,15.19,35.56,24.27,6,7.88,55.21,16.1,74.9,57.13,5.64,11.76-12.79,40.39-19.25,43.29s-34.4-1.37-43.09,0-29.08,10.58-31,14.23c-2.45,4.74-23.73,30-42.79,42.65"/><path class="cls-3" d="M5,85.82c32.88-20.28,86.39,0,76.37,56.64,0,0,59.44.53,56.86,61.36,0,0,45.42,29.88,15.38,78.52"/><use width="22.81" height="22.81" transform="translate(164.63 66.74)" xlink:href="#Eye"/></g></symbol></defs><g id="styles"><g id="thin"><use width="295.94" height="287.34" transform="translate(98.97 126.7)" xlink:href="#thin-sheep"/></g></g></svg>