<svg xmlns="http://www.w3.org/2000/svg" viewBox="0 0 500 500"><defs><style>.cls-1,.cls-2{fill:none;stroke-linecap:round;stroke-linejoin:round;stroke-width:10px;}.cls-1{stroke:#000;}.cls-2{stroke:#666;}</style></defs><g id="styles"><g id="HotDeals"><g id="HotDeals-2" data-name="HotDeals"><path class="cls-1" d="M353.2823,268.41c0-46.43-41.1671-104.1821-41.1671-104.1821-2.1383,55.9424-81.7334,64.5254-96.7064,10.5816-7.9556-28.6622-6.6079-56.0272-6.5323-57.4324a.0209.0209,0,0,0-.037-.0161c-1.7169,1.7332-57.9819,59.0929-63.8107,137.9308-4.5163,61.084,40.67,116.3391,101.91,117.47A104.3707,104.3707,0,0,0,353.2823,268.41Z"/><path class="cls-2" d="M264.1378,261.9106c-9.8735-2.4684-32.226-3.2912-31.54,12.7533s34.9063,16.0047,34.283,32.226-22.52,17.9643-34.2984,13.0275"/><line class="cls-2" x1="249.3354" y1="248.4805" x2="249.3354" y2="260.5429"/><line class="cls-2" x1="249.3354" y1="322.0617" x2="249.3354" y2="334.1241"/></g></g></g></svg>