<svg xmlns="http://www.w3.org/2000/svg" viewBox="0 0 500 500"><defs><style>.cls-1,.cls-2{fill:none;stroke-linecap:round;stroke-linejoin:round;stroke-width:10px;}.cls-1{stroke:#000;}.cls-2{stroke:#666;}</style></defs><g id="styles"><g id="Attention"><path class="cls-1" d="M212.4808,146.6725,132.0377,286.004c-16.6752,28.8823,4.1688,64.9852,37.5192,64.9852H330.4431c33.35,0,54.1944-36.1029,37.5192-64.9852L287.5192,146.6725C270.844,117.79,229.156,117.79,212.4808,146.6725Z"/><circle class="cls-2" cx="250" cy="299.3995" r="15.2068"/><path class="cls-2" d="M255.2653,180.5728H244.7347a7.8959,7.8959,0,0,0-7.8754,8.4641l5.2652,72.9874A7.896,7.896,0,0,0,250,269.3521h0a7.896,7.896,0,0,0,7.8755-7.3278l5.2652-72.9874A7.8959,7.8959,0,0,0,255.2653,180.5728Z"/></g></g></svg>