<svg xmlns="http://www.w3.org/2000/svg" viewBox="0 0 500 500"><defs><style>.cls-1,.cls-2{fill:none;stroke-linecap:round;stroke-linejoin:round;stroke-width:10px;}.cls-1{stroke:#000;}.cls-2{stroke:#666;}</style></defs><g id="styles"><g id="Prescription"><g id="Bottle"><rect id="BottleOutline" class="cls-1" x="313.3032" y="254.111" width="54.0209" height="94.7701"/><rect id="Lid" class="cls-1" x="313.303" y="209.1766" width="54.0211" height="44.9343"/></g><g id="Bottle-2" data-name="Bottle"><line class="cls-2" x1="163.1777" y1="308.6088" x2="241.734" y2="308.6088"/><path id="BottleOutline-2" data-name="BottleOutline" class="cls-1" d="M150.9281,182.1471H254.3064a12.7156,12.7156,0,0,1,12.7156,12.7156v141.27a12.7156,12.7156,0,0,1-12.7156,12.7156H150.9284a12.7159,12.7159,0,0,1-12.7159-12.7159v-141.27A12.7156,12.7156,0,0,1,150.9281,182.1471Z"/><path id="Lid-2" data-name="Lid" class="cls-1" d="M194.3,130.93h16.6346a24.2408,24.2408,0,0,1,24.2408,24.2408v26.9758a0,0,0,0,1,0,0H170.0589a0,0,0,0,1,0,0V155.1713A24.2408,24.2408,0,0,1,194.3,130.93Z"/><line class="cls-2" x1="202.4559" y1="271.155" x2="202.4559" y2="222.7963"/><line class="cls-2" x1="178.2765" y1="246.9756" x2="226.6352" y2="246.9756"/></g></g></g></svg>