<svg xmlns="http://www.w3.org/2000/svg" viewBox="0 0 500 500"><defs><style>.cls-1,.cls-2{fill:none;stroke-linecap:round;stroke-linejoin:round;stroke-width:10px;}.cls-1{stroke:#666;}.cls-2{stroke:#000;}</style></defs><g id="styles"><g id="food-dry"><path class="cls-1" d="M303.4608,157.5879,194.6619,167.6263V143.8377a5.6114,5.6114,0,0,1,5.0959-5.5877l97.576-9.003a5.6114,5.6114,0,0,1,6.127,5.5877Z"/><path class="cls-2" d="M194.6619,167.6263l-5.034,24.7386a471.6924,471.6924,0,0,0-9.4725,94.056v77.787l29.013,10.0385"/><path class="cls-2" d="M201.8392,207.8643l-7.1773-40.238,108.7989-10.0384,7.1773,40.2379a471.6981,471.6981,0,0,1,7.3293,82.8288v83.5533l-108.799,10.0385V290.6931A471.698,471.698,0,0,0,201.8392,207.8643Z"/></g></g></svg>