<svg xmlns="http://www.w3.org/2000/svg" viewBox="0 0 500 500"><defs><style>.cls-1,.cls-2{fill:none;stroke-linecap:round;stroke-linejoin:round;stroke-width:10px;}.cls-1{stroke:#000;}.cls-2{stroke:#666;}</style></defs><g id="styles"><g id="food-wet"><line class="cls-1" x1="329.8056" y1="328.7789" x2="329.8056" y2="225.6601"/><path class="cls-1" d="M260.4438,203.3793c39.6382,2.1989,69.3618,11.3391,69.3618,22.2808"/><ellipse class="cls-2" cx="234.3038" cy="191.0168" rx="87.8078" ry="22.7844" transform="translate(-58.8942 117.3919) rotate(-25.0927)"/><line class="cls-1" x1="154.1901" y1="328.7789" x2="154.1901" y2="225.6601"/><path class="cls-1" d="M329.8056,328.7792c0,12.5834-39.3128,22.7843-87.8077,22.7843S154.19,341.3626,154.19,328.7792"/><path class="cls-1" d="M329.81,264.2005c0,10.9315-39.3168,19.7878-87.8075,19.7878-48.5018,0-87.8075-8.8563-87.8075-19.7878"/><path class="cls-1" d="M329.8056,225.66c0,12.5835-39.3128,22.7844-87.8077,22.7844S154.19,238.2436,154.19,225.66"/></g></g></svg>