<svg xmlns="http://www.w3.org/2000/svg" viewBox="0 0 500 500"><defs><style>.cls-1,.cls-2{fill:none;stroke-linecap:round;stroke-linejoin:round;stroke-width:10px;}.cls-1{stroke:#000;}.cls-2{stroke:#666;}</style></defs><g id="styles"><g id="Promote"><ellipse class="cls-1" cx="305.1974" cy="215.4787" rx="43.0226" ry="101.2082" transform="translate(-59.9325 136.3796) rotate(-23)"/><path class="cls-1" d="M307.9089,295.7258c-26.1827-21.3992-65.351-10.5869-82.3208-3.3836l-45.9407,19.5006c-19.524,8.2874-42.5812-2.0269-50.8686-21.5509s.31-43.2748,19.8339-51.5623l45.9407-19.5006c16.97-7.2033,51.9561-27.8677,54.7509-61.5671"/><path class="cls-1" d="M194.55,219.2283c-2.7184,11.7627-1.4577,26.0017,4.4192,39.8469,6.4272,15.1415,17.0286,26.6388,28.5248,32.483"/><path class="cls-2" d="M281.1656,262.7576a33.67,33.67,0,1,0-26.3118-61.9868"/><path class="cls-2" d="M219.21,295.05l26.5262,62.4918c3.853,9.0772-.7338,21.8812-11.2088,26.3276s-22.8718-1.1486-26.7248-10.2257l-26.5172-62.47"/></g></g></svg>