<svg xmlns="http://www.w3.org/2000/svg" viewBox="0 0 500 500"><defs><style>.cls-1,.cls-2{fill:none;stroke-linecap:round;stroke-linejoin:round;stroke-width:10px;}.cls-1{stroke:#000;}.cls-2{stroke:#666;}.cls-3{fill:#afafaf;}</style></defs><g id="styles"><g id="Bunny"><path class="cls-1" d="M177.7641,183.1905c26.4921,15.8339,53.7587,24.9193,57.7185,33.9191s-21.9594,48.9587-49.6786,56.5185-52.8384.16-52.8384.16"/><path class="cls-1" d="M265.7219,381.2653s10.08-38.879,26.2793-47.8788,53.9985,6.48,64.7983,1.44,26.166-13.2963,26.9992-23.3994c2.88-34.9191-22.3194-74.518-37.079-86.3977s-40.3189-19.8-50.0387-25.9194-33.3137-44.0027-60.4784-63.3583"/><path class="cls-2" d="M236.2026,135.7517c-33.7851-24.0728-86.2529-34.5777-99.7174-16.9195-13.2534,17.3814,13.3887,47.6888,41.2789,64.3583"/><circle class="cls-3" cx="301.9814" cy="249.5637" r="11.4064"/></g></g></svg>