<svg xmlns="http://www.w3.org/2000/svg" viewBox="0 0 500 500"><defs><style>.cls-1,.cls-2{fill:none;stroke-linecap:round;stroke-linejoin:round;stroke-width:10px;}.cls-1{stroke:#666;}.cls-2{stroke:#000;}</style></defs><g id="styles"><g id="Piercings"><path id="Ring" class="cls-1" d="M242.7354,294.35c12.1182,0,21.942,21.158,21.942,47.2578s-9.8238,47.2577-21.942,47.2577-21.38-25.3025-21.38-51.4022"/><path class="cls-2" d="M200.6448,309.1789c-4.1775,23.7158,25.8133,34.8588,43.8876,28.1115"/><path class="cls-2" d="M175.185,210.0515c-11.4385-57.1922,40.178-97.5472,78.5372-97.5472a82.9185,82.9185,0,0,1,82.92,82.92c0,26.1592-15.2123,53.9016-38.4216,68.4129-6.1654,3.8549-11.0588,8.2394-12.7517,13.7483-3.6256,11.7985.639,24.4416-4.5433,35.5465"/><path class="cls-2" d="M282.4834,221.5705c23.8135-30.2116,3.3492-62.0566-26.6062-62.0565-20.6424,0-37.0566,16.7892-33.79,37.3764,2.9449,18.56,12.4294,50.3367-13.9709,72.275"/></g></g></svg>