<svg xmlns="http://www.w3.org/2000/svg" viewBox="0 0 500 500"><defs><style>.cls-1,.cls-2{fill:none;stroke-linecap:round;stroke-linejoin:round;stroke-width:10px;}.cls-1{stroke:#000;}.cls-2{stroke:#666;}</style></defs><g id="styles"><g id="FirstAid"><path id="BriefCase" class="cls-1" d="M344.7036,194.6763H318.2969V155.8274a13.3706,13.3706,0,0,0-13.3315-13.3314H195.0363a13.3706,13.3706,0,0,0-13.3315,13.3314v38.8489H155.2975a19.631,19.631,0,0,0-19.6311,19.6311V330.73a19.6311,19.6311,0,0,0,19.6311,19.6311H344.7036a19.6311,19.6311,0,0,0,19.631-19.6311V214.3074A19.631,19.631,0,0,0,344.7036,194.6763Z"/><line class="cls-2" x1="250.0005" y1="303.139" x2="250.0005" y2="234.8437"/><line class="cls-2" x1="215.8528" y1="268.9913" x2="284.1482" y2="268.9913"/><line id="Handle" class="cls-2" x1="273.0671" y1="183.4891" x2="226.9381" y2="183.4891"/></g></g></svg>