<svg xmlns="http://www.w3.org/2000/svg" viewBox="0 0 500 500"><defs><style>.cls-1,.cls-2{fill:none;stroke-linecap:round;stroke-linejoin:round;stroke-width:10px;}.cls-1{stroke:#000;}.cls-2{stroke:#666;}</style></defs><g id="styles"><g id="Contact"><path class="cls-1" d="M234.0474,271.6279a151.7685,151.7685,0,0,1-32.9782-45.6055L226.01,205.6089a9.8673,9.8673,0,0,0,2.84-11.5238L209.0947,147.99a9.9955,9.9955,0,0,0-11.3592-5.7619l-42.8026,9.8775a9.8746,9.8746,0,0,0-7.6551,9.6306A191.0349,191.0349,0,0,0,273.4126,341.4226"/><path class="cls-2" d="M273.4126,341.4226a190.6844,190.6844,0,0,0,64.8309,11.2792,9.8656,9.8656,0,0,0,9.6306-7.6551l9.8775-42.8026a9.9415,9.9415,0,0,0-5.7207-11.318L305.9357,271.171a9.8524,9.8524,0,0,0-11.5238,2.84l-20.4136,24.9408a151.9728,151.9728,0,0,1-39.9509-27.3237"/></g></g></svg>