<svg xmlns="http://www.w3.org/2000/svg" viewBox="0 0 500 500"><defs><style>.cls-1,.cls-2{fill:none;stroke-linecap:round;stroke-linejoin:round;stroke-width:10px;}.cls-1{stroke:#000;}.cls-2{stroke:#666;}</style></defs><g id="styles"><g id="Services"><path class="cls-1" d="M236.8206,313.9507c37.1284-.5818,35.5734-51.508-1.1666-50.8747,0,0-38.47.0966-38.7953.0966-47.9782,0-61.984,26.7145-105.2485,26.7145H72.6822"/><path class="cls-2" d="M293.4674,156.898H272.42V135.85a22.42,22.42,0,1,0-44.8394,0V156.898H206.5322a22.42,22.42,0,0,0,0,44.84H227.58v21.0476a22.42,22.42,0,1,0,44.8394,0V201.7375h21.0477a22.42,22.42,0,1,0,0-44.84Z"/><path class="cls-1" d="M120.1869,375.0533s87.1572-.1809,114.9545-.7056c25.9775-.49,48.28-4.4124,69.9809-18.7008,39.43-25.9624,58.09-40.3235,58.09-40.3235,30.8606-24.1133-.6281-63.7657-33.1956-41.2095-15.1315,10.48-20.5746,15.1657-50.95,31.9776-16.8352,9.3175-49.1616,7.8525-73.2579,7.8525"/></g></g></svg>