<svg xmlns="http://www.w3.org/2000/svg" viewBox="0 0 500 500"><defs><style>.cls-1,.cls-2{fill:none;stroke-linecap:round;stroke-linejoin:round;stroke-width:10px;}.cls-1{stroke:#000;}.cls-2{stroke:#666;}.cls-3{fill:#afafaf;}</style></defs><g id="styles"><g id="Cow"><path class="cls-1" d="M114.7931,205.4532c62.5239-13.5632,79.9081-43.5888,107.9308-51.16,28.3056-7.648,39.7718,7.7492,105.0426-18.4837-27.7851,60.3969-67.1537,31.3467-22.3136,70.6943,9.9218,8.7065,12.4193,20.5486,12.4836,31.47,29.5075,49.8016,88.6837,25.2376,64.6966,80.754-8.4147,19.4753-36.292,41.929-76.2406,29.0778-39.7945,2.4762-65.3628,23.9989-65.3628,23.9989"/><path class="cls-2" d="M167.8066,185.6783c25.1118-4.54,29.8159-4.8112,44.3047-4.5252,17.0817.3371,30.0951,9.2907,28.8339,13.8825-6.56,23.8832-32.9263,37.4411-58.1853,35.4375"/><circle id="exclude" class="cls-3" cx="274.6018" cy="228.5829" r="11.4064"/></g></g></svg>