<svg xmlns="http://www.w3.org/2000/svg" viewBox="0 0 500 500"><defs><style>.cls-1,.cls-2{fill:none;stroke-linecap:round;stroke-linejoin:round;stroke-width:10px;}.cls-1{stroke:#666;}.cls-2{stroke:#000;}</style></defs><g id="styles"><g id="Cycle"><path class="cls-1" d="M377.51,224.2434a21.7116,21.7116,0,0,0-30.614,0l-8.0056,8.0058V215.2175c0-46.4727-28.385-69.5-70.34-69.5a22.1713,22.1713,0,0,0,.35,44.34,25.1543,25.1543,0,0,1,25.16,25.16v18.604l-9.2251-9.2251c-7.9368-7.937-20.7227-8.9195-29.3882-1.7852a21.703,21.703,0,0,0-1.5783,32.0464l43.5588,43.5591a25.8262,25.8262,0,0,0,36.5232,0L377.51,254.8576A21.7115,21.7115,0,0,0,377.51,224.2434Z"/><path class="cls-2" d="M123.4684,279.495a21.7118,21.7118,0,0,0,30.614,0l8.0056-8.0059v17.0318c0,46.4726,28.3849,69.5,70.34,69.5a22.1713,22.1713,0,0,0-.35-44.34,25.1542,25.1542,0,0,1-25.16-25.16V269.9168l9.2251,9.2251c7.9367,7.9371,20.7226,8.9195,29.3881,1.7852a21.7029,21.7029,0,0,0,1.5784-32.0464l-43.5588-43.5591a25.8262,25.8262,0,0,0-36.5232,0l-43.5593,43.5591A21.7116,21.7116,0,0,0,123.4684,279.495Z"/></g></g></svg>