<svg xmlns="http://www.w3.org/2000/svg" viewBox="0 0 500 500"><defs><style>.cls-1,.cls-2{fill:none;stroke-linecap:round;stroke-linejoin:round;stroke-width:10px;}.cls-1{stroke:#000;}.cls-2{stroke:#666;}</style></defs><g id="styles"><g id="HealthInformation"><circle class="cls-1" cx="194.699" cy="174.2043" r="34.8256"/><path class="cls-2" d="M370.125,192.3924H347.4522V169.7191a24.1509,24.1509,0,1,0-48.3018,0v22.6733H276.4771a24.1509,24.1509,0,0,0,0,48.3018H299.15V263.367a24.1509,24.1509,0,1,0,48.3018,0V240.6942H370.125a24.1509,24.1509,0,1,0,0-48.3018Z"/><path class="cls-1" d="M194.6989,372.4569a29.22,29.22,0,0,1-29.1339-29.1338V250.6769a29.1339,29.1339,0,0,1,58.2677,0v92.6462A29.2194,29.2194,0,0,1,194.6989,372.4569Z"/></g></g></svg>