<svg xmlns="http://www.w3.org/2000/svg" viewBox="0 0 500 500"><defs><style>.cls-1,.cls-2{fill:none;stroke-linecap:round;stroke-linejoin:round;stroke-width:10px;}.cls-1{stroke:#666;}.cls-2{stroke:#000;}</style></defs><g id="styles"><g id="Home"><g id="Home-2" data-name="Home"><path class="cls-1" d="M330.2113,268.6759v72.0408c0,1.4117-.81,2.5561-1.8091,2.5561H274.6159c-.6852,0-1.2407-1.1444-1.2407-2.5561v-48.63c0-1.4117-.5555-2.5561-1.2407-2.5561H226.95c-.6852,0-1.2407,1.1444-1.2407,2.5561v48.63c0,1.4117-.5554,2.5561-1.2406,2.5561H170.6826c-.9992,0-1.8091-1.1444-1.8091-2.5561V268.6759"/><path class="cls-2" d="M240.2839,146.2862l-91.155,75.4509c-10.9831,9.0909-4.5547,26.9388,9.7026,26.9388H340.5746c14.2341,0,20.6758-17.7993,9.7385-26.909L259.725,146.3161A15.2168,15.2168,0,0,0,240.2839,146.2862Z"/></g></g></g></svg>