<svg xmlns="http://www.w3.org/2000/svg" viewBox="0 0 500 500"><defs><style>.cls-1,.cls-2{fill:none;stroke-linecap:round;stroke-linejoin:round;stroke-width:10px;}.cls-1{stroke:#000;}.cls-2{stroke:#666;}</style></defs><g id="styles"><g id="Chat"><path id="Outline" class="cls-1" d="M253.3374,142.3441c-65.4195,0-118.4515,43.0067-118.4515,96.0583A81.8886,81.8886,0,0,0,149.565,284.73a74.0764,74.0764,0,0,1-22.928,39.38,3.9294,3.9294,0,0,0,2.7041,6.8571c16.9735-.32,47.8261-1.7589,68.5461-7.68a140.34,140.34,0,0,0,55.45,11.174c65.419,0,118.4515-43.0067,118.4515-96.0584S318.7564,142.3441,253.3374,142.3441Z"/><g id="_3_Dots" data-name="3 Dots"><circle class="cls-2" cx="195.796" cy="238.4025" r="20.3123"/><circle class="cls-2" cx="253.3372" cy="238.4025" r="20.3123"/><circle class="cls-2" cx="310.8785" cy="238.4026" r="20.3122"/></g></g></g></svg>