<svg xmlns="http://www.w3.org/2000/svg" viewBox="0 0 500 500"><defs><style>.cls-1,.cls-2{fill:none;stroke-linecap:round;stroke-linejoin:round;stroke-width:10px;}.cls-1{stroke:#000;}.cls-2{stroke:#666;}</style></defs><g id="styles"><g id="Hair"><path class="cls-1" d="M218.8427,361.4663c4.6473-33.0136-15.9449-35.7345-30.4481-33.8042S167.68,323.2669,164.4908,316.79c-4.5008-9.14,4.6682-30.5565-8.4332-37.1288-7.9679-3.997-12.9231-15.8971-3.578-26.4266,8.4109-9.4769,15.9866-24.1641,14.5054-30.5064,0,0-6.4991-23.7652-4.8047-33.5512-2.8081,14.9024,25.4327,60.631,60.8677,59.7668,0,0,.7987-22.2475,20.6849-23.4229,22.1308-1.3082,33.2126,32.1711,1.6668,48.16"/><path class="cls-2" d="M396.5992,260.6037c-14.5275-9.2662-42.36-35.7352-55.8131-82.1276-25.4169-87.648-160.74-86.91-178.6058,10.7008"/><path class="cls-1" d="M261.0846,260.6037c0,40.0645,21.7085,68.9908,32.7858,80.1289"/><path class="cls-2" d="M320.7464,243.67c22.2194,33.8373,41.0657,53.2119,60.6268,64.3828"/><path class="cls-1" d="M317.3648,307.7136s9.7461,16.463,19.4923,27.0027"/></g></g></svg>