<svg xmlns="http://www.w3.org/2000/svg" viewBox="0 0 500 500"><defs><style>.cls-1,.cls-2{fill:none;stroke-linecap:round;stroke-linejoin:round;stroke-width:10px;}.cls-1{stroke:#000;}.cls-2{stroke:#666;}</style></defs><g id="styles"><g id="ClickCollect"><path class="cls-1" d="M342.3636,399.798c4.1608-15.24,8.3858-31.01,9.6752-36.8324,2.78-12.5553,5.1445-20.5024,6.2651-36.2213s1.1206-27.1707,1.1206-27.1707c0-10.6932-8.749-20.9346-19.4422-20.9346h0c-6.1369,0-8.6445,2.1387-12.2143,6.6156V274.457c0-8.9535-10.3106-16.2791-19.2641-16.2791h0c-8.9535,0-13.2942,2.102-13.2942,11.0555v-4.1413c0-9.5264-10.033-17.3207-19.5594-17.3207h0c-6.3025,0-9.6058,4.1593-12.6366,9.2268V199.77c0-9.6567-7.9011-17.85-17.5569-17.72a17.3727,17.3727,0,0,0-17.0845,17.3191V328.3208L209.801,299.6827a19.4973,19.4973,0,1,0-32.7174,21.2167s39.4584,60.7894,51.2887,79.09"/><path class="cls-2" d="M341.9871,244.153l-9.5559-96.299H159.1905L148.7513,253.3893c-.7719,7.8029,3.0376,21.6312,13.0241,32.5256"/><path class="cls-2" d="M288.8609,177.6764V129.624a43.4,43.4,0,0,0-43.2724-43.2723h0a43.4,43.4,0,0,0-43.2724,43.2723v48.0524"/></g></g></svg>