<svg xmlns="http://www.w3.org/2000/svg" viewBox="0 0 500 500"><defs><style>.cls-1,.cls-2{fill:none;stroke-linecap:round;stroke-linejoin:round;stroke-width:10px;}.cls-1{stroke:#000;}.cls-2{stroke:#666;}.cls-3{fill:#afafaf;}</style></defs><g id="styles"><g id="Horse"><path class="cls-1" d="M310.5241,223.7965c3.72,7.11,55.4856,62.0573,71.5721,77.32,17.5689,16.6688-2.55,63.344-26.52,66.1654C328.503,370.4683,322.84,353.3858,310.3635,343.9c-10.67-8.1121-57.7418-9.3059-77.697-15.7645s-35.7308-26.4245-35.7308-26.4245c-9.0132,11.3406-10.9214,27.7462-10.9214,27.7462"/><path class="cls-1" d="M101.4308,217.91s26.925-34.9658,88.5025-52.9281"/><path class="cls-2" d="M189.9333,164.9816c20.2893-5.9184,50.1841-53.0347,50.1841-53.0347,15.8562,22.9314,14.6368,40.34,8.62,52.4062-6.92,13.8781,41.8625,26.9035,50.1655,35.8113s7.9009,16.5216,11.6213,23.6321"/><circle class="cls-3" cx="268.0082" cy="226.6756" r="11.4064"/></g></g></svg>