<svg xmlns="http://www.w3.org/2000/svg" viewBox="0 0 500 500"><defs><style>.cls-1,.cls-2{fill:none;stroke-linecap:round;stroke-linejoin:round;stroke-width:10px;}.cls-1{stroke:#666;}.cls-2{stroke:#000;}</style></defs><g id="styles"><g id="Allergies"><line class="cls-1" x1="250" y1="231.7697" x2="250" y2="385.8076"/><line class="cls-1" x1="171.7511" y1="183.3474" x2="171.7511" y2="224.8431"/><line class="cls-1" x1="328.2489" y1="183.3474" x2="328.2489" y2="224.8431"/><line class="cls-1" x1="250" y1="109.5113" x2="250" y2="142.8583"/><path class="cls-2" d="M239.3151,231.3943c8.4656,7.1035,16.957,24.8659,4.095,40.1943s-31.8291,10.05-40.2947,2.9469c-15.6056-13.0946-40.6774-44.77-27.8154-60.098S223.71,218.3,239.3151,231.3943Z"/><path class="cls-2" d="M260.6849,231.3943c-8.4656,7.1035-16.957,24.8659-4.095,40.1943s31.8291,10.05,40.2947,2.9469c15.6056-13.0946,40.6774-44.77,27.8154-60.098S276.29,218.3,260.6849,231.3943Z"/><path class="cls-2" d="M239.3151,296.3051c8.4656,7.1035,16.957,24.8658,4.095,40.1942s-31.8291,10.0505-40.2947,2.9469c-15.6056-13.0946-40.6774-44.77-27.8154-60.098S223.71,283.2105,239.3151,296.3051Z"/><path class="cls-2" d="M260.6849,296.3051c-8.4656,7.1035-16.957,24.8658-4.095,40.1942s31.8291,10.0505,40.2947,2.9469c15.6056-13.0946,40.6774-44.77,27.8154-60.098S276.29,283.2105,260.6849,296.3051Z"/><path class="cls-2" d="M221.8416,202.7964c0,11.0511,8.1486,28.9733,28.1584,28.9733s28.1584-17.9222,28.1584-28.9733c0-20.3716-8.1486-59.9381-28.1584-59.9381S221.8416,182.4248,221.8416,202.7964Z"/></g></g></svg>