<svg xmlns="http://www.w3.org/2000/svg" viewBox="0 0 500 500"><defs><style>.cls-1,.cls-2{fill:none;stroke-linecap:round;stroke-linejoin:round;stroke-width:10px;}.cls-1{stroke:#000;}.cls-2{stroke:#666;}</style></defs><g id="styles"><g id="Joints"><path class="cls-1" d="M215.5937,430.8853v-99.61c0-6.3077-3.1486-10.061-9.0024-14.3321-14.0088-10.2212-18.2976-24.7507-18.2976-36.8552s11.1226-22.3174,18.5142-18.6118a33.3319,33.3319,0,0,0,14.98,3.532c7.5452,0,15.09-7.7012,28.2117-7.7012s20.6665,7.7012,28.2117,7.7012a33.3319,33.3319,0,0,0,14.98-3.532c7.3916-3.7056,18.5142,6.5073,18.5142,18.6118s-4.2888,26.634-18.2976,36.8552c-5.8538,4.2711-9.0024,8.0244-9.0024,14.3321v99.61"/><path class="cls-1" d="M215.5937,72.6349v87.61c0,6.3077-.73,9.7666-9.0024,14.3321s-17.2977,16.8472-17.2977,29.8553c0,18.4973,13.9975,33.4882,32.4947,33.4882,7.5452,0,15.3078-6.7012,28.2117-6.7012s20.6665,6.7012,28.2117,6.7012c18.4972,0,32.4947-14.9909,32.4947-33.4882,0-13.0081-9.0255-25.29-17.2977-29.8553s-9.0024-8.0244-9.0024-14.3321v-87.61"/><line class="cls-2" x1="397.5933" y1="319.8178" x2="357.5933" y2="279.8178"/><line class="cls-2" x1="397.5933" y1="180.1822" x2="357.5933" y2="220.1822"/><line class="cls-2" x1="102.4067" y1="319.8178" x2="142.4067" y2="279.8178"/><line class="cls-2" x1="102.4067" y1="180.1822" x2="142.4067" y2="220.1822"/></g></g></svg>