<svg xmlns="http://www.w3.org/2000/svg" viewBox="0 0 500 500"><defs><style>.cls-1,.cls-2{fill:none;stroke-linecap:round;stroke-linejoin:round;stroke-width:10px;}.cls-1{stroke:#000;}.cls-2{stroke:#666;}.cls-3{fill:#afafaf;}</style></defs><g id="styles"><path id="head" class="cls-1" d="M186.713,357.6688c21.5249-21.1612,30.0114-36.331,90.4164-55.9578,41.1046-13.3558,78.8882-33.8241,84.1683-70.8855,4.3284-30.3812-54.4182-35.0786-56.7131-38.33s-13.646-17.8279-22.0163-21.89c-22.6874-11.0114-33.2887.9426-38.8016-1.3377-23.911-21.0989-46.9713-25.2648-60.6908-21.0577-11.0956,3.4024,6.6668,32.8076,6.3262,47.5-21.0817-19.9156-53.6126-13.7456-55.32-2.8677-.9007,5.7369,13.556,23.459,13.8426,30.3566-35.0737-6.65-36.5873,15.46-45.6539,29.117"/><path class="cls-1" d="M255.07,167.0573a36.3772,36.3772,0,0,0-10.23,4.1471,39.3687,39.3687,0,0,0-17.7709,21.7792"/><polyline class="cls-2" points="357.541 244.724 399.183 250.251 414.845 241.554"/><line class="cls-2" x1="411.125" y1="266.2605" x2="399.1833" y2="250.2511"/><circle class="cls-3" cx="265.9203" cy="207.6262" r="11.4064"/></g></svg>