<svg xmlns="http://www.w3.org/2000/svg" viewBox="0 0 500 500"><defs><style>.cls-1,.cls-2{fill:none;stroke-linecap:round;stroke-linejoin:round;stroke-width:10px;}.cls-1{stroke:#000;}.cls-2{stroke:#666;}</style></defs><g id="styles"><g id="Beauty"><g id="Lipstick"><rect class="cls-1" x="263.3276" y="285.2597" width="72.7739" height="134.3907"/><path class="cls-2" d="M320.3962,155.3484V255.9113H279.0328V186.3431c0-3.9622,6.6409-12.5229,16.34-20.6706,11.1724-9.3643,22.1664-14.6547,24.5548-11.7973A2.2411,2.2411,0,0,1,320.3962,155.3484Z"/><rect class="cls-1" x="272.5729" y="255.9095" width="54.2832" height="29.3503"/></g><g id="Brush"><line class="cls-1" x1="228.2851" y1="224.6257" x2="186.84" y2="224.6257"/><path class="cls-1" d="M185.3892,181.0748,191.4809,363.96a16.0879,16.0879,0,0,0,32.158.0006l6.0982-182.8857"/><path class="cls-2" d="M185.3892,181.0748s-40.1667-45.2762-40.1218-45.9935c1.53-24.3062,28.84-43.6564,62.2958-43.6564s60.7654,19.35,62.2958,43.6564c.0448.7173-40.1219,45.9935-40.1219,45.9935Z"/></g></g></g></svg>