<svg xmlns="http://www.w3.org/2000/svg" viewBox="0 0 500 500"><defs><style>.cls-1,.cls-2{fill:none;stroke-linecap:round;stroke-linejoin:round;stroke-width:10px;}.cls-1{stroke:#666;}.cls-2{stroke:#000;}</style></defs><g id="styles"><g id="Cream"><path class="cls-1" d="M281.5232,251.8091c-51.3708.6271-39.38-42.12-89.8-42.12,0,0,19.0193,42.12-41.5217,42.12Z"/><path class="cls-2" d="M132.707,251.8091H312.4592a0,0,0,0,1,0,0v41.4524a21.6911,21.6911,0,0,1-21.6911,21.6911H154.398a21.6911,21.6911,0,0,1-21.6911-21.6911V251.8091A0,0,0,0,1,132.707,251.8091Z"/><path class="cls-1" d="M390.0681,275.9614,288.2025,174.0958a17.8462,17.8462,0,0,0-25.2384,0l-13.9294,13.9294,127.104,127.104L390.0681,301.2A17.8462,17.8462,0,0,0,390.0681,275.9614Z"/></g></g></svg>