<svg xmlns="http://www.w3.org/2000/svg" viewBox="0 0 500 500"><defs><style>.cls-1,.cls-2{fill:none;stroke-linecap:round;stroke-linejoin:round;stroke-width:10px;}.cls-1{stroke:#666;}.cls-2{stroke:#000;}</style></defs><g id="styles"><g id="Naturopathy"><path class="cls-1" d="M345.19,151.5839A28.4689,28.4689,0,0,0,301.8067,170.57a38.8771,38.8771,0,0,1-8.3667,18.0466L254.2733,235.86H320.519l11.3352-21.6945a40.1316,40.1316,0,0,1,13.6441-14.8519,28.4694,28.4694,0,0,0-.3082-47.73Z"/><path class="cls-2" d="M295.7017,341.5524c14.8738-8.5641,49.9126-34.8121,54.15-93.7351A11.155,11.155,0,0,0,338.73,235.86H144.8946a11.155,11.155,0,0,0-11.1215,11.9612c4.266,58.9871,39.5666,85.2267,54.49,93.76a25.3211,25.3211,0,0,0,12.5729,3.336h82.2415A25.29,25.29,0,0,0,295.7017,341.5524Z"/></g></g></svg>