<svg xmlns="http://www.w3.org/2000/svg" viewBox="0 0 500 500"><defs><style>.cls-1,.cls-2{fill:none;stroke-linecap:round;stroke-linejoin:round;stroke-width:10px;}.cls-1{stroke:#000;}.cls-2{stroke:#666;}</style></defs><g id="styles"><g id="Local"><path class="cls-1" d="M210.0867,233.2821c20.8559,0,40.8614-39.705,50.1131-53.9679s6.9387-42.018,19.66-49.3422,36.2357,0,40.09,20.0453-.7709,39.705-10.0226,61.6776H355.426c28.5741,0,37.1311,32.6507,21.5622,48.22,5.2394,10.824,1.14,28.8073-4.6122,35.4646,4.931,10.1134-.8188,29.6814-10.0226,33.9227,6.0536,10.3264-11.8936,33.5937-43.8889,33.5937h-28.46c-27.58,0-40.55-21.5872-79.9181-21.5872"/><line class="cls-2" x1="210.0867" y1="341.3083" x2="132.7903" y2="341.3083"/><line class="cls-2" x1="85.2625" y1="233.2821" x2="210.0867" y2="233.2821"/></g></g></svg>