<svg xmlns="http://www.w3.org/2000/svg" viewBox="0 0 500 500"><defs><style>.cls-1,.cls-2{fill:none;stroke-linecap:round;stroke-linejoin:round;stroke-width:10px;}.cls-1{stroke:#000;}.cls-2{stroke:#666;}</style></defs><g id="styles"><g id="HealthCheck"><path class="cls-1" d="M251.8229,246.0438c14.8535,16.65,32.4269,28.4794,44.88,28.4794,30.6015,0,92.1277-71.4407,68.2166-110.2847-3.9525-6.4209-6.7086-11.8351-34.7-16.3847"/><path class="cls-1" d="M263.1863,147.8538c-27.9919,4.55-30.748,9.9638-34.7,16.3847-5.056,8.2136-6.292,17.8846-4.8081,28.03"/><path class="cls-1" d="M180.1336,319.5232c0,22.51,23.0445,55.623,58.2844,55.623s58.2844-33.113,58.2844-55.623v-45"/><path class="cls-2" d="M180.1336,319.4436l66.0287-66.0287a35.9149,35.9149,0,0,0-50.7913-50.7913l-15.2374,15.2375-15.2374-15.2375a35.9149,35.9149,0,0,0-50.7913,50.7913Z"/></g></g></svg>