<svg xmlns="http://www.w3.org/2000/svg" viewBox="0 0 500 500"><defs><style>.cls-1,.cls-2{fill:none;stroke-linecap:round;stroke-linejoin:round;stroke-width:10px;}.cls-1{stroke:#000;}.cls-2{stroke:#666;}</style></defs><g id="styles"><g id="HomeDelivery"><g id="truck"><circle class="cls-1" cx="153.1951" cy="334.9535" r="19.3895"/><circle class="cls-1" cx="279.9057" cy="334.9536" r="19.3895"/><path class="cls-1" d="M260.5162,334.9535h-4.7607V259.4341h26.5829a24.9276,24.9276,0,0,1,22.2961,13.78l12.8319,25.6639a24.9275,24.9275,0,0,1,2.6317,11.148v0a24.9346,24.9346,0,0,1-20.8062,24.5886"/><path class="cls-1" d="M133.8055,334.9535H125.209A26.7193,26.7193,0,0,1,98.49,308.2342V241.4463A26.7193,26.7193,0,0,1,125.209,214.727H229.0362a26.7193,26.7193,0,0,1,26.7193,26.7193v93.5072H172.5846"/></g><g id="Shop"><path class="cls-2" d="M266.2262,214.8212h123.327a12.2056,12.2056,0,0,0,7.8114-21.5841l-72.6619-60.52a12.2055,12.2055,0,0,0-15.5939-.0239l-76.8417,63.7141"/><polyline class="cls-2" points="381.241 214.821 381.241 290.698 340.455 290.698 340.455 247.591 301.652 247.591"/></g></g></g></svg>