<svg xmlns="http://www.w3.org/2000/svg" viewBox="0 0 500 500"><defs><style>.cls-1,.cls-2{fill:none;stroke-linecap:round;stroke-linejoin:round;stroke-width:10px;}.cls-1{stroke:#666;}.cls-2{stroke:#000;}</style></defs><g id="styles"><g id="Pills"><g id="Pill_2" data-name="Pill 2"><path id="Outline" class="cls-1" d="M268.7564,195.6989a43.6691,43.6691,0,0,1,81.6681,27.8084L336.511,303.7366A43.8326,43.8326,0,0,1,291.66,339.9108"/><line class="cls-1" x1="343.3469" y1="264.319" x2="282.8472" y2="252.8147"/></g><g id="Pill_1" data-name="Pill 1"><path id="Outline-2" data-name="Outline" class="cls-2" d="M250.2685,375.179a61.1173,61.1173,0,0,1-73.76-44.5689l-27.212-110.3069a60.9383,60.9383,0,0,1,118.3291-29.191l27.212,110.3069A61.1174,61.1174,0,0,1,250.2685,375.179Z"/><path id="Highlight" class="cls-1" d="M193.1235,178.9955c-12.16,3-20.6392,14.2009-16.8835,30.8644.0608.27,2.7239,11.0766,2.7912,11.3493"/><line class="cls-2" x1="281.468" y1="247.224" x2="162.6661" y2="274.4982"/></g></g></g></svg>