<svg xmlns="http://www.w3.org/2000/svg" viewBox="0 0 500 500"><defs><style>.cls-1,.cls-2{fill:none;stroke-linecap:round;stroke-linejoin:round;stroke-width:10px;}.cls-1{stroke:#000;}.cls-2{stroke:#666;}</style></defs><g id="styles"><g id="HealthWellbeing"><path class="cls-1" d="M272.7826,297.907l20.8766,20.8767,80.12-80.12a43.58,43.58,0,0,0-61.6308-61.6309l-18.4894,18.4893L275.17,177.0326a43.5766,43.5766,0,0,0-66.85,6.3073"/><g id="GeneralHealth"><path class="cls-1" d="M225.9647,240.79v-29.338a31.25,31.25,0,0,0-62.5,0V240.79H134.127a31.25,31.25,0,0,0,0,62.5h29.338"/><path class="cls-2" d="M163.465,303.29v29.3374a31.25,31.25,0,0,0,62.5,0V303.29h29.3374a31.25,31.25,0,1,0,0-62.5H225.9647"/></g></g></g></svg>