<svg xmlns="http://www.w3.org/2000/svg" viewBox="0 0 500 500"><defs><style>.cls-1,.cls-2{fill:none;stroke-linecap:round;stroke-linejoin:round;stroke-width:10px;}.cls-1{stroke:#666;}.cls-2{stroke:#000;}</style></defs><g id="styles"><g id="FoodTreats"><path class="cls-1" d="M164.2812,271.2141c4.98-19.8046,22.6295-31.7416,39.571-26.6626q.792.2374,1.563.5185a40.2477,40.2477,0,0,0,28.3646-.0367,27.6022,27.6022,0,0,1,18.109-.62c11.4314,3.5283,19.4366,14.14,21.9913,26.8006"/><path class="cls-2" d="M286.5778,271.2141H152.2008a14.5594,14.5594,0,0,0-13.9274,10.3164l-18.832,61.8159H319.3372l-18.832-61.8159A14.5593,14.5593,0,0,0,286.5778,271.2141Z"/><line class="cls-2" x1="96.0167" y1="343.3464" x2="317.9186" y2="343.3464"/><line class="cls-2" x1="131.3495" y1="304.2582" x2="190.1406" y2="304.2582"/><path class="cls-1" d="M345.3622,165.6631V159.15a17.8474,17.8474,0,0,0-17.8474-17.8473h-90.14A17.8473,17.8473,0,0,0,219.5273,159.15v6.513"/><path class="cls-2" d="M205.06,244.9432c-1.5116-25.0821,1.2311-53.6072,14.4675-79.28H345.3622c22.9561,44.5249,14.3486,97.6289,6.7264,126.4726a28.4922,28.4922,0,0,1-27.553,21.2107H310.1978"/></g></g></svg>