<svg xmlns="http://www.w3.org/2000/svg" viewBox="0 0 500 500"><defs><style>.cls-1,.cls-2{fill:none;stroke-linecap:round;stroke-linejoin:round;stroke-width:10px;}.cls-1{stroke:#000;}.cls-2{stroke:#666;}</style></defs><g id="styles"><g id="MedicineManagement"><g id="Clipboard"><path id="Clip" class="cls-1" d="M280.3158,132.1139H273.57a24.047,24.047,0,1,0-48.0939,0H218.351a16.601,16.601,0,0,0-16.5524,16.5524v25.5275a3.0411,3.0411,0,0,0,3.0322,3.0322H293.836a3.0411,3.0411,0,0,0,3.0323-3.0322V148.6663A16.6011,16.6011,0,0,0,280.3158,132.1139Z"/><line class="cls-2" x1="249.3334" y1="279.9767" x2="249.3334" y2="218.8933"/><line class="cls-2" x1="218.7917" y1="249.435" x2="279.8751" y2="249.435"/><line class="cls-1" x1="195.1448" y1="324.06" x2="303.8578" y2="324.06"/><path id="Board" class="cls-1" d="M296.8683,156.52h31.5393a5.4662,5.4662,0,0,1,5.45,5.45V364.7676a5.4662,5.4662,0,0,1-5.45,5.45H170.595a5.4662,5.4662,0,0,1-5.45-5.45V161.97a5.4662,5.4662,0,0,1,5.45-5.45h31.2036"/></g></g></g></svg>