<svg xmlns="http://www.w3.org/2000/svg" viewBox="0 0 500 500"><defs><style>.cls-1,.cls-2{fill:none;stroke-linecap:round;stroke-linejoin:round;stroke-width:10px;}.cls-1{stroke:#666;}.cls-2{stroke:#000;}</style></defs><g id="styles"><g id="Catalogue"><g id="Catalogue-2" data-name="Catalogue"><path class="cls-1" d="M250.304,330.2c0,1.1284.9922,1.6582,2.0786,1.1263,29.2044-14.3216,60.3334-20.1832,89.7911-17.5844,4.8178.4255,8.2807-2.6462,8.2817-7.6129V181.9209a2.6144,2.6144,0,0,0-2.0786-2.4461c-29.2044-3.7916-60.3333.8771-89.7911,14.0063a14.5266,14.5266,0,0,0-8.2817,12.5108"/><path class="cls-2" d="M248.2255,331.3268c-29.2044-14.3218-60.3334-20.1831-89.7912-17.5844-4.8178.4258-8.2805-2.6472-8.2816-7.6129V181.9209a2.6156,2.6156,0,0,1,2.0785-2.4461c29.1992-3.791,60.322.8758,89.7752,13.9992a14.5506,14.5506,0,0,1,8.2976,12.5344V330.2006C250.3036,331.3271,249.3117,331.8594,248.2255,331.3268Z"/></g></g></g></svg>