<svg xmlns="http://www.w3.org/2000/svg" viewBox="0 0 500 500"><defs><style>.cls-1,.cls-2{fill:none;stroke-linecap:round;stroke-linejoin:round;stroke-width:10px;}.cls-1{stroke:#000;}.cls-2{stroke:#666;}</style></defs><g id="styles"><g id="Children"><g id="Duck"><path class="cls-1" d="M272.0717,227.1251c10.0618-12.0227,17.57-26.6412,17.57-43.5568a62.7743,62.7743,0,0,0-62.7744-62.7744c-28.0978,0-53.421,18.0269-59.8918,43.9142-3.1927,12.773-14.4969,10.4959-19.3132,10.1833-6.8211-.4427-19.4614,3.2614-16.0012,12.9214,4.2655,11.9083,16.6632,19.6592,32.4314,22.459,13.694,2.4316,16.6386,17.2688-1.3692,41.9835-9.21,12.641-15.061,26.6965-15.061,41.98,0,46.5794,50.8963,84.3394,113.68,84.3394,42.8648,0,79.1323-17.7509,98.7-43.593,18.3306-24.2082,22.1231-49.1865,22.1265-70.7361.0027-17.6143-12.4774-29.0575-27.7428-27.7427-22.8505,1.968-23.0976,19.2338-62.523,15.8182C261.466,249.6845,266.397,233.9056,272.0717,227.1251Z"/><path class="cls-2" d="M291.6121,307.3057c2.6156-19.1013-19.6235-10.3923-39.8523-22.3091-28.8337-16.986-42.4491-3.345-44.3825,10.7744s6.4147,28.5883,29.6755,31.7736S289.6787,321.4251,291.6121,307.3057Z"/></g></g></g></svg>