<svg xmlns="http://www.w3.org/2000/svg" viewBox="0 0 500 500"><defs><style>.cls-1,.cls-2{fill:none;stroke-linecap:round;stroke-linejoin:round;stroke-width:10px;}.cls-1{stroke:#666;}.cls-2{stroke:#000;}</style></defs><g id="styles"><g id="treats"><path class="cls-1" d="M274.6654,347.2317a23.0076,23.0076,0,1,1-45.4408-5.1448,23.0082,23.0082,0,1,1,11.13-38.7036L303.3781,240.36a23.0017,23.0017,0,1,1,38.6994-11.1258,23.0119,23.0119,0,1,1-11.1258,38.7L267.9283,330.957A22.9464,22.9464,0,0,1,274.6654,347.2317Z"/><path class="cls-2" d="M173.3592,293.7472c26.4358-20.4591,7.53-48.0334,17.1158-57.6191,8.6945-8.6946,37.63-7.6542,61.17-31.1942,22.6355-22.6355,23.2937-61.8377,16.1568-68.9746s-46.3391-6.4788-68.9746,16.1566c-23.54,23.54-22.5,52.4758-31.1944,61.17-9.5857,9.5857-37.16-9.32-57.6191,18.3564,17.874,23.6054,42.2193,19.8851,42.2193,19.8851S148.5131,275.8732,173.3592,293.7472Z"/></g></g></svg>