<svg xmlns="http://www.w3.org/2000/svg" viewBox="0 0 500 500"><defs><style>.cls-1,.cls-2{fill:none;stroke-linecap:round;stroke-linejoin:round;stroke-width:10px;}.cls-1{stroke:#000;}.cls-2{stroke:#666;}</style></defs><g id="styles"><g id="Repeats"><g id="Repeats-2" data-name="Repeats"><g id="Pill"><path id="Outline" class="cls-1" d="M311.3277,368.9649a61.1175,61.1175,0,0,1-86.1365-2.729L147.4386,283.395a60.9383,60.9383,0,0,1,88.8656-83.4074l77.7527,82.841A61.1172,61.1172,0,0,1,311.3277,368.9649Z"/><path id="Highlight" class="cls-2" d="M164.884,222.3557c-9.58,8.0685-12.2308,21.8644-1.4929,35.1487.1739.2151,7.3418,8.73,7.5227,8.9448"/><line class="cls-1" x1="277.9929" y1="244.6106" x2="183.5026" y2="321.6129"/></g><g id="Arrow"><path class="cls-2" d="M340.1691,238.5109V203.2833c0-42.876-13.2812-84.9053-63.4994-84.9053"/><line class="cls-2" x1="370.6535" y1="206.2745" x2="340.1691" y2="238.5109"/><line class="cls-2" x1="309.6847" y1="206.2745" x2="340.1691" y2="238.5109"/></g></g></g></g></svg>