<svg xmlns="http://www.w3.org/2000/svg" viewBox="0 0 500 500"><defs><style>.cls-1,.cls-2{fill:none;stroke-linecap:round;stroke-linejoin:round;stroke-width:10px;}.cls-1{stroke:#000;}.cls-2{stroke:#666;}</style></defs><g id="styles"><g id="flea"><line class="cls-1" x1="321.2145" y1="189.4412" x2="358.2883" y2="189.4412"/><line class="cls-1" x1="305.5483" y1="173.775" x2="305.5483" y2="136.7012"/><polyline class="cls-2" points="304.872 234.785 343.071 247.928 362.07 235.462"/><polyline class="cls-2" points="260.116 190.029 246.973 151.831 259.44 132.831"/><polyline class="cls-2" points="216.166 197.219 202.79 170.852 166.74 175.73"/><polyline class="cls-2" points="297.71 278.762 324.077 292.139 319.199 328.189"/><polyline class="cls-2" points="175.389 237.797 143.914 229.528 119.93 246.471"/><polyline class="cls-2" points="257.302 319.709 265.57 351.184 248.627 375.169"/><path class="cls-1" d="M304.8722,234.7853a31.8,31.8,0,0,0,9.8055-6.06,34.2332,34.2332,0,1,0-48.413-48.413,31.7979,31.7979,0,0,0-6.0606,9.8057"/><path class="cls-1" d="M190.884,216.81c17.9328,36.9785,50.2964,69.336,87.2779,87.2595"/><path class="cls-1" d="M278.9344,303.2968c-36.0858,36.0858-99.4488,37.6494-112.17,24.9283s-11.1575-76.0842,24.9283-112.17,72.8033-33.7439,96.8945-9.6528S315.02,267.211,278.9344,303.2968Z"/><path class="cls-1" d="M226.1811,192.6405a199.452,199.452,0,0,0,76.176,76.149"/><path class="cls-1" d="M166.099,259.1486a200.3664,200.3664,0,0,0,69.7652,69.734"/></g></g></svg>