<svg xmlns="http://www.w3.org/2000/svg" viewBox="0 0 500 500"><defs><style>.cls-1,.cls-2{fill:none;stroke-linecap:round;stroke-linejoin:round;stroke-width:10px;}.cls-1{stroke:#000;}.cls-2{stroke:#666;}</style></defs><g id="styles"><g id="MentalWellbeing"><path id="Head" class="cls-1" d="M151.4347,378.0412c8.8827-15.2409,17.3836-27.2161,20.5086-34.6221,6.7526-16.0029,10.192-53.6587,0-71.2115s-34.8546-45.4574-25.48-95.6914c11.2775-60.43,84.617-103.0771,148.6-76.4647s52.9748,80.8077,51.8424,90.4334-2.5119,19.2121,11.5065,31.8231c15.5755,14.0119,10.2329,32.4358-.883,39.6756-18.2778,11.9042-1.1467,42.0449-6.2779,56.3112-3.6362,10.11-11.7656,20.5-33.5344,20.0646s-32.7683,4.0987-40.8991,29.6c-4.7286,14.8308-1.2209,30.7032,3.1647,45.6466"/><path id="Heart" class="cls-2" d="M290.5118,162.1446h0a22.1784,22.1784,0,0,0-31.2731,0l-9.382,9.382-9.382-9.382a22.1786,22.1786,0,0,0-31.2732,0h0a22.1786,22.1786,0,0,0,0,31.2732l9.382,9.382h0l31.2732,31.2732L281.13,202.8l9.382-9.382A22.1786,22.1786,0,0,0,290.5118,162.1446Z"/></g></g></svg>