<svg xmlns="http://www.w3.org/2000/svg" viewBox="0 0 500 500"><defs><style>.cls-1,.cls-2{fill:none;stroke-linecap:round;stroke-linejoin:round;stroke-width:10px;}.cls-1{stroke:#666;}.cls-2{stroke:#000;}</style></defs><g id="styles"><g id="HousingBedding"><line class="cls-1" x1="262.2361" y1="277.6207" x2="155.2818" y2="277.6207"/><path class="cls-2" d="M123.6667,340.8773H293.8512a14.9247,14.9247,0,0,0,14.9248-14.9247V277.9608a14.9247,14.9247,0,0,0-14.9248-14.9247H267.0976l-7.0256,21.0768A33.1648,33.1648,0,0,1,228.6091,306.79h-39.7a33.1649,33.1649,0,0,1-31.4629-22.6772L150.42,263.0361H123.6667a14.9248,14.9248,0,0,0-14.9248,14.9247v47.9918A14.9248,14.9248,0,0,0,123.6667,340.8773Z"/><g id="Home"><polyline class="cls-1" points="308.776 309.862 359.647 309.862 359.647 224.924"/><line class="cls-1" x1="210.7603" y1="224.9245" x2="210.7603" y2="277.6207"/><path class="cls-2" d="M296.41,128.3l77.7615,64.3647c13.1525,10.8866,5.4544,32.26-11.6192,32.26H207.5129c-17.0458,0-24.76-21.3154-11.6622-32.2245l77.2778-64.3647A18.2223,18.2223,0,0,1,296.41,128.3Z"/></g></g></g></svg>