<svg xmlns="http://www.w3.org/2000/svg" viewBox="0 0 500 500"><defs><style>.cls-1,.cls-2{fill:none;stroke-linecap:round;stroke-linejoin:round;stroke-width:10px;}.cls-1{stroke:#000;}.cls-2{stroke:#666;}</style></defs><g id="styles"><g id="MedicalMarijuana"><path class="cls-1" d="M279.253,209.4837c0,54.2412-29.253,98.2124-29.253,98.2124s-29.2529-43.9712-29.2529-98.2124S250,111.2713,250,111.2713,279.253,155.2425,279.253,209.4837Z"/><line class="cls-2" x1="250" y1="307.6961" x2="250" y2="388.9815"/><line class="cls-2" x1="281.7498" y1="351.7724" x2="250" y2="307.6961"/><line class="cls-2" x1="218.2501" y1="351.7724" x2="249.9999" y2="307.6961"/><path class="cls-1" d="M273.5246,252.6916A123.41,123.41,0,0,1,287.79,235.48c30.3775-30.3775,72.2164-37.79,72.2164-37.79s-7.4127,41.8389-37.79,72.2164S250,307.6961,250,307.6961"/><path class="cls-1" d="M226.4743,252.6906a123.4094,123.4094,0,0,0-14.265-17.2109c-30.3775-30.3775-72.2164-37.79-72.2164-37.79s7.4128,41.8389,37.79,72.2164S250,307.6961,250,307.6961"/><path class="cls-1" d="M301.6474,286.4093a86.5046,86.5046,0,0,1,11.274-.751c34.7506,0,62.9215,22.038,62.9215,22.038s-28.1709,22.038-62.9215,22.038S250,307.6963,250,307.6963"/><path class="cls-1" d="M198.3532,286.4093a86.5325,86.5325,0,0,0-11.2746-.751c-34.7506,0-62.9215,22.038-62.9215,22.038s28.1709,22.038,62.9215,22.038S250,307.6963,250,307.6963"/></g></g></svg>