<svg xmlns="http://www.w3.org/2000/svg" viewBox="0 0 500 500"><defs><style>.cls-1,.cls-2{fill:none;stroke-linecap:round;stroke-linejoin:round;stroke-width:10px;}.cls-1{stroke:#000;}.cls-2{stroke:#666;}.cls-3{fill:#afafaf;}</style></defs><g id="styles"><g id="Dog"><path class="cls-1" d="M158.8414,184.4273c-38.3159,27.03-53.94,72.2761-53.94,72.2761"/><path class="cls-1" d="M226.602,331.4766s9.3123-23.41,25.8709-29.8176,60.6713,5.6507,88.5683-1.7119,36.8693-56.3978,26.9476-71.0988c-11.9-17.6318-50.239-20.5143-60.8945-24.25-7.993-2.8021-13.29-11.4888-22.6892-22.16-9.1414-10.3788-23.5067-17.86-49.0233-18.5172"/><path class="cls-2" d="M231.4777,156.2369c-6.2463-9.292-24.3963-3.0213-53.2106,4.1679-38.7867,9.6775-13.5884,90.7435,9.2932,95.63S254.8112,190.9474,231.4777,156.2369Z"/><circle class="cls-3" cx="263.4957" cy="212.8076" r="11.4064"/></g></g></svg>