<svg xmlns="http://www.w3.org/2000/svg" viewBox="0 0 500 500"><defs><style>.cls-1,.cls-2{fill:none;stroke-linecap:round;stroke-linejoin:round;stroke-width:10px;}.cls-1{stroke:#000;}.cls-2{stroke:#666;}</style></defs><g id="styles"><g id="SexualHealth"><circle class="cls-1" cx="180.7853" cy="268.8306" r="41.6338"/><circle class="cls-1" cx="322.0523" cy="268.8306" r="41.6338"/><path class="cls-2" d="M302.3821,118.3015l0,0a27.802,27.802,0,0,0-39.2025,0l-11.7607,11.7608L239.658,118.3014a27.802,27.802,0,0,0-39.2025,0v0a27.8018,27.8018,0,0,0,0,39.2025l11.7607,11.7607h0l39.2026,39.2025,39.2025-39.2025,11.7608-11.7607A27.802,27.802,0,0,0,302.3821,118.3015Z"/><path class="cls-1" d="M207.9167,300.3992a70.8874,70.8874,0,0,1,43.5021,65.1842v18.9138"/><path class="cls-1" d="M110.1518,365.5834a70.8851,70.8851,0,0,1,43.2078-65.06"/><path class="cls-1" d="M294.9132,300.4024a70.8874,70.8874,0,0,0-43.4944,65.181v18.9138"/><path class="cls-1" d="M392.6857,365.5834a70.8873,70.8873,0,0,0-43.4945-65.181"/></g></g></svg>