<svg xmlns="http://www.w3.org/2000/svg" viewBox="0 0 500 500"><defs><style>.cls-1,.cls-2{fill:none;stroke-linecap:round;stroke-linejoin:round;stroke-width:10px;}.cls-1{stroke:#000;}.cls-2{stroke:#666;}</style></defs><g id="styles"><g id="worms"><path class="cls-1" d="M151.3723,349.0941a148.4038,148.4038,0,0,1-15.2366-8.34,25.326,25.326,0,1,1,26.8353-42.9591c21.3692,13.3473,43.1613,16.58,65.5853,9.7252,20.9858-6.4138,38.9855-20.9925,49.4307-32.568a25.3258,25.3258,0,1,1,37.6059,33.9321c-11.6323,12.8919-36.4847,36.15-72.2315,47.0758C212.3614,365.4352,180.8687,363.029,151.3723,349.0941Z"/><line class="cls-1" x1="174.1791" y1="303.8492" x2="153.4482" y2="350.0748"/><line class="cls-1" x1="207.1161" y1="311.0022" x2="205.4095" y2="361.6477"/><line class="cls-1" x1="236.4244" y1="304.6934" x2="257.4544" y2="350.8241"/><line class="cls-1" x1="266.7623" y1="285.7991" x2="297.2934" y2="326.3646"/><path class="cls-2" d="M331.0689,147.647a148.41,148.41,0,0,1,16.9928,3.599,25.326,25.326,0,0,1-13.3281,48.867c-24.3076-6.6284-46.1075-3.4488-65.6078,9.5727-18.25,12.1853-31.2892,31.33-37.9585,45.4226a25.3259,25.3259,0,0,1-45.7842-21.6657c7.4272-15.6956,24.5295-45.1251,55.616-65.8817C267.9575,149.5605,298.8092,142.7962,331.0689,147.647Z"/><line class="cls-2" x1="322.2569" y1="197.5429" x2="328.7985" y2="147.3056"/><line class="cls-2" x1="288.6552" y1="200.1775" x2="275.7056" y2="151.1857"/><line class="cls-2" x1="262.4051" y1="214.6587" x2="228.9821" y2="176.5378"/><line class="cls-2" x1="238.7931" y1="241.4888" x2="197.8739" y2="211.4333"/></g></g></svg>