<svg xmlns="http://www.w3.org/2000/svg" viewBox="0 0 500 500"><defs><style>.cls-1,.cls-2{fill:none;stroke-linecap:round;stroke-linejoin:round;stroke-width:10px;}.cls-1{stroke:#000;}.cls-2{stroke:#666;}</style></defs><g id="styles"><g id="Foot"><path class="cls-1" d="M270.0405,307.0736c-5.2379-16.6542-11.074-29.5741-10.2456-40.3957.5006-6.5388,1.1211-13.0239,4.4494-18.1752,5.475-8.4738,30.0345-56.1843,81.9314-116.9366"/><path class="cls-1" d="M269.86,89.1785c-28.0143,64.8783-73.5186,117.6724-94.6441,130.69-21.7139,13.38-36.3967,42.8265-9.844,69.3063,28.519,28.4407,28.4078,46.57,51.8547,83.1721"/><path class="cls-2" d="M217.2266,372.3465a38.1957,38.1957,0,0,0,32.1969,17.72h42.8936c32.4148,0,34.9454-28.9122,5.0922-40.6151-13.394-5.2507-22.9284-28.26-27.3688-42.3778"/></g></g></svg>