<svg xmlns="http://www.w3.org/2000/svg" viewBox="0 0 500 500"><defs><style>.cls-1,.cls-2{fill:none;stroke-linecap:round;stroke-linejoin:round;stroke-width:10px;}.cls-1{stroke:#000;}.cls-2{stroke:#666;}</style></defs><g id="styles"><g id="SkinCare"><path class="cls-1" d="M141.8422,344.62s93.2263-.1935,122.9592-.7548c27.7865-.5244,51.6423-4.72,74.8539-20.0031C381.8312,296.0915,401.79,280.73,401.79,280.73c33.01-25.7924-.6719-68.206-35.5072-44.0791-16.1852,11.21-22.0073,16.2218-54.4984,34.2043-18.0074,9.9664-52.5849,8.3994-78.359,8.3994"/><path class="cls-1" d="M266.5976,279.2621c39.7137-.6223,38.05-55.0947-1.2478-54.4173,0,0-41.1487.1034-41.4968.1034-51.3192,0-66.3,28.5746-112.5774,28.5746H71.03"/><path class="cls-2" d="M338.7107,255.29c5.6763-5.9841,8.8858-13.7769,8.8858-23.823,0-9.5707-6.3435-25.2812-32.9734-37.618-23.9551-11.0977-39.0564-32.766-53.58-40.9633,5.9062,17.5479-14.9981,30.9461-40.4848,42.2475-25.0857,11.1236-29.3159,27.18-30.0187,34.4483"/></g></g></svg>