<svg xmlns="http://www.w3.org/2000/svg" viewBox="0 0 500 500"><defs><style>.cls-1,.cls-2{fill:none;stroke-linecap:round;stroke-linejoin:round;stroke-width:10px;}.cls-1{stroke:#666;}.cls-2{stroke:#000;}</style></defs><g id="styles"><g id="Shop"><g id="Shop-2" data-name="Shop"><path class="cls-1" d="M301.3953,262.9044v34.8921c0,1.2327-.6853,2.232-1.5307,2.232H199.184c-.8453,0-1.5306-.9993-1.5306-2.232V262.9044H150v72.8088h0A14.087,14.087,0,0,0,164.087,349.8H334.9617a14.087,14.087,0,0,0,14.087-14.087h0V262.9044Z"/><path class="cls-2" d="M374.93,224.08,335.1653,156.505a13.4653,13.4653,0,0,0-11.9822-7.3225H175.8655a13.4644,13.4644,0,0,0-11.9818,7.3225L124.1188,224.08a12.9273,12.9273,0,0,0,11.5039,18.824H363.426A12.9272,12.9272,0,0,0,374.93,224.08Z"/></g></g></g></svg>