<svg xmlns="http://www.w3.org/2000/svg" viewBox="0 0 500 500"><defs><style>.cls-1,.cls-2{fill:none;stroke-linecap:round;stroke-linejoin:round;stroke-width:10px;}.cls-1{stroke:#000;}.cls-2{stroke:#666;}</style></defs><g id="styles"><g id="Hygiene"><path class="cls-1" d="M162.3965,345.8282s65.45-.1489,88.3284-.5807c21.38-.4036,39.7364-3.6316,57.5967-15.3915,32.4525-21.368,47.81-33.1877,47.81-33.1877,25.3994-19.846-.517-52.4814-27.3212-33.9169-12.4537,8.6255-16.9336,12.482-41.934,26.3187-13.856,7.6687-40.4618,6.4629-60.2938,6.4629"/><path class="cls-1" d="M252.1069,295.5385c30.558-.4788,29.2781-42.3929-.96-41.8717,0,0-31.6621.08-31.93.08-39.4878,0-60.1209,21.9869-95.7291,21.9869"/><path class="cls-2" d="M292.5126,177.1154c0-19.3183-35.3154-58.9436-35.3154-58.9436s-35.3154,39.6253-35.3154,58.9436a35.317,35.317,0,0,0,70.6308,0Z"/></g></g></svg>