<svg xmlns="http://www.w3.org/2000/svg" viewBox="0 0 500 500"><defs><style>.cls-1,.cls-2{fill:none;stroke-linecap:round;stroke-linejoin:round;stroke-width:10px;}.cls-1{stroke:#000;}.cls-2{stroke:#666;}</style></defs><g id="styles"><g id="Sanitiser"><rect class="cls-1" x="184.4239" y="204.4244" width="115.099" height="162.1301" rx="19.0367"/><path class="cls-1" d="M227.9413,166.7657h28.0641a11.0063,11.0063,0,0,1,11.0063,11.0063v26.6524a0,0,0,0,1,0,0H216.9351a0,0,0,0,1,0,0V177.7719A11.0063,11.0063,0,0,1,227.9413,166.7657Z"/><line class="cls-1" x1="241.9734" y1="166.7657" x2="241.9734" y2="129.4455"/><path class="cls-1" d="M216.9351,129.4455h62.5957c14.659,0,34.0453,13.7711,34.0453,13.7711"/><path class="cls-2" d="M265.0492,293.319c0-12.623-23.0758-38.5151-23.0758-38.5151s-23.0759,25.8921-23.0759,38.5151a23.0769,23.0769,0,0,0,46.1517,0Z"/></g></g></svg>