<svg xmlns="http://www.w3.org/2000/svg" viewBox="0 0 500 500"><defs><style>.cls-1,.cls-2{fill:none;stroke-linecap:round;stroke-linejoin:round;stroke-width:10px;}.cls-1{stroke:#000;}.cls-2{stroke:#666;}</style></defs><g id="styles"><g id="ExpressShipping"><g id="truck"><circle class="cls-1" cx="186.8389" cy="313.8571" r="24.1731"/><circle class="cls-1" cx="344.8099" cy="313.8572" r="24.1731"/><line class="cls-2" x1="174.7878" y1="238.2435" x2="260.3628" y2="238.2435"/><line class="cls-2" x1="230.7589" y1="210.2486" x2="260.3628" y2="238.2435"/><line class="cls-2" x1="230.7589" y1="266.2384" x2="260.3628" y2="238.2435"/><path class="cls-1" d="M320.6369,313.8571h-5.9352V219.7064h33.1412A31.0777,31.0777,0,0,1,375.64,236.8857l15.9977,31.9955a31.0776,31.0776,0,0,1,3.2809,13.8983h0a31.086,31.086,0,0,1-25.9351,30.6541"/><path class="cls-1" d="M162.6657,313.8571H151.9483a33.3111,33.3111,0,0,1-33.3111-33.3111V197.2809A33.3111,33.3111,0,0,1,151.9483,163.97H281.3906a33.3111,33.3111,0,0,1,33.3111,33.3111V313.8571h-103.69"/></g></g></g></svg>