<svg xmlns="http://www.w3.org/2000/svg" viewBox="0 0 500 500"><defs><style>.cls-1,.cls-2{fill:none;stroke-linecap:round;stroke-linejoin:round;stroke-width:10px;}.cls-1{stroke:#666;}.cls-2{stroke:#000;}</style></defs><g id="styles"><g id="FAQ"><circle class="cls-1" cx="240.7091" cy="363.7921" r="30.4933"/><path class="cls-2" d="M265.7027,281.8954v9.6214c0,31.3537-50.2915,29.9413-50.2915-.5146V275.095c0-10.1963,1.3235-18.0117,4.7479-22.9393,25.9385-37.324,58.4545-35.0478,58.7-63.9056.1256-14.7905-11.4653-27.027-25.8033-27.027-11.2983,0-21.9423,2.4821-33.4752,15.9562-21.1555,24.7162-56.5388-6.6393-35.1626-33.5182,13.4625-16.928,33.82-32.0174,69.9387-32.0174,24.7856,0,75.488,12.85,75.488,77.7986C329.8442,248.6725,265.7027,258.7942,265.7027,281.8954Z"/></g></g></svg>