<svg xmlns="http://www.w3.org/2000/svg" viewBox="0 0 500 500"><defs><style>.cls-1,.cls-2{fill:none;stroke-linecap:round;stroke-linejoin:round;stroke-width:10px;}.cls-1{stroke:#666;}.cls-2{stroke:#000;}</style></defs><g id="styles"><g id="Oral"><path class="cls-1" d="M257.7874,164.6625a57.0511,57.0511,0,0,1,92.4463,44.7409c0,49.0056-43.2172,58.4381-44.0078,127.2441-.1105,9.6172-10.2652,17.3915-20.2578,17.3915-7.5225,0-15.669-3.32-17.7249-10.0228-4.9765-16.2254.2412-22.1555-19.0791-55.11"/><path class="cls-2" d="M259.1269,277.1168c-17.4,15.5579-23.2294,42.0806-29.3821,64.293-2.151,7.7658-10.4878,12.6292-19.0529,12.6292-9.9926,0-19.9494-6.8977-20.2578-16.5106-2.15-67.0046-40.7726-82.2164-40.6676-128.125a63.4939,63.4939,0,0,1,63.4424-63.4424c14.5673,0,38.5283,3.912,59.2534,37.9151"/></g></g></svg>