<svg xmlns="http://www.w3.org/2000/svg" viewBox="0 0 500 500"><defs><style>.cls-1,.cls-2{fill:none;stroke-linecap:round;stroke-linejoin:round;stroke-width:10px;}.cls-1{stroke:#666;}.cls-2{stroke:#000;}</style></defs><g id="styles"><g id="MedicalTools"><circle class="cls-1" cx="159.1347" cy="266.9061" r="28.2026"/><circle class="cls-2" cx="225.6531" cy="333.4246" r="28.2026"/><path class="cls-2" d="M245.5954,353.3668a34.6362,34.6362,0,0,0,0,48.9832"/><line class="cls-1" x1="233.0023" y1="247.1134" x2="186.3783" y2="259.6063"/><line class="cls-2" x1="245.4459" y1="259.5569" x2="232.9517" y2="306.1861"/><path class="cls-1" d="M254.5593,259.5593l93.1434-24.9577a35.2024,35.2024,0,0,0,24.8918-43.1139h0l-97.7021,26.1792"/><path class="cls-2" d="M245.4459,259.5569A17.6012,17.6012,0,0,1,233,238l24.9577-93.1434a35.2024,35.2024,0,0,1,43.1139-24.8918h0L267.0029,247.111A17.6011,17.6011,0,0,1,245.4459,259.5569Z"/></g></g></svg>