<svg xmlns="http://www.w3.org/2000/svg" viewBox="0 0 500 500"><defs><style>.cls-1,.cls-2{fill:none;stroke-linecap:round;stroke-linejoin:round;stroke-width:10px;}.cls-1{stroke:#000;}.cls-2{stroke:#666;}</style></defs><g id="styles"><g id="Vaccination"><rect class="cls-1" x="142.4381" y="289.2604" width="26.6658" height="43.6664" transform="translate(265.6007 -19.0295) rotate(45)"/><line class="cls-1" x1="139.8639" y1="264.3098" x2="202.5549" y2="327.0007"/><line class="cls-1" x1="120.5632" y1="306.7626" x2="160.102" y2="346.3014"/><line class="cls-2" x1="331.1046" y1="135.76" x2="276.1415" y2="190.7231"/><line class="cls-2" x1="174.9314" y1="249.4579" x2="189.1346" y2="263.6612"/><line class="cls-2" x1="200.5705" y1="223.8188" x2="214.7738" y2="238.022"/><line class="cls-2" x1="225.4202" y1="198.9691" x2="239.6234" y2="213.1723"/><path class="cls-2" d="M384.2483,243.55c0-15.9422-29.1437-48.6426-29.1437-48.6426s-29.1437,32.7-29.1437,48.6426a29.145,29.145,0,0,0,58.2874,0Z"/><path class="cls-1" d="M276.1415,190.7231a30.0346,30.0346,0,0,0-42.4753,0l-83.6945,83.6945,42.4754,42.4753,83.6944-83.6945A30.0345,30.0345,0,0,0,276.1415,190.7231Z"/></g></g></svg>