<svg xmlns="http://www.w3.org/2000/svg" viewBox="0 0 500 500"><defs><style>.cls-1,.cls-2{fill:none;stroke-linecap:round;stroke-linejoin:round;stroke-width:10px;}.cls-1{stroke:#000;}.cls-2{stroke:#666;}</style></defs><g id="styles"><g id="Diabetes"><path class="cls-1" d="M179.679,343.07c13.9453,3.0882,22.7722,5.7141,40.2314,6.9587s30.179,1.2447,30.179,1.2447c11.877,0,23.2523-9.7176,23.2523-21.5947h0c0-6.8163-2.3755-9.6015-7.3481-13.5666h11.9931c9.9448,0,18.0814-11.4521,18.0814-21.3969h0c0-9.9448-2.3347-14.766-12.28-14.766h4.6c10.5811,0,19.2384-11.1438,19.2384-21.7249v0c0-7-4.62-10.6692-10.2484-14.0356h63.5647c10.7259,0,19.8269-8.7759,19.6816-19.5007a19.2963,19.2963,0,0,0-19.2366-18.976H218.1594l31.8088-20.6274a21.72,21.72,0,0,0,6.387-29.9526v0a21.72,21.72,0,0,0-29.9527-6.387s-67.52,43.8271-87.8469,56.9671c-11.5447,7.4627-39.7254,11.6565-46.8479,13.8873"/><path class="cls-2" d="M379.7972,313.9935c0-13.9051-25.42-42.4269-25.42-42.4269s-25.42,28.5218-25.42,42.4269a25.4208,25.4208,0,0,0,50.8393,0Z"/></g></g></svg>