<svg xmlns="http://www.w3.org/2000/svg" viewBox="0 0 500 500"><defs><style>.cls-1,.cls-2{fill:none;stroke-linecap:round;stroke-linejoin:round;stroke-width:10px;}.cls-1{stroke:#666;}.cls-2{stroke:#000;}</style></defs><g id="styles"><g id="AccessoriesToys"><path class="cls-1" d="M151.3545,199.7567c10.9565,17.1112,14.41,37.2261,7.6751,55.73s-22.311,31.6937-41.704,37.7586"/><path class="cls-1" d="M225.0034,332.4357c-10.9567-17.1112-14.41-37.2263-7.6754-55.73s22.31-31.6929,41.7022-37.758"/><circle class="cls-2" cx="188.1531" cy="266.0866" r="75.8507"/><line class="cls-1" x1="286.841" y1="311.9731" x2="396.841" y2="311.9731"/><path class="cls-2" d="M253.5728,304.4611a80.1279,80.1279,0,1,0-37.5375-108.8918"/><path class="cls-2" d="M274.0212,152.8632c21.7226,11.3087,45.5968,35.9337,52.5971,66.5773"/><path class="cls-2" d="M238.1852,168.6937c38.7953,20.6685,56.7682,61.6593,56.8551,64.8553"/><path class="cls-2" d="M263.1767,277.3475c42.15.2225,78.9267-18.9607,104.436-45.7157"/><path class="cls-2" d="M260.1573,242.2352c28.6967-4.1518,61.0229-16.0437,100.1323-43.8831"/></g></g></svg>