<svg xmlns="http://www.w3.org/2000/svg" viewBox="0 0 500 500"><defs><style>.cls-1,.cls-2{fill:none;stroke-linecap:round;stroke-linejoin:round;stroke-width:10px;}.cls-1{stroke:#000;}.cls-2{stroke:#666;}</style></defs><g id="styles"><g id="SleepApnoea"><path class="cls-1" d="M134.99,373.3184c8.0108-27.029,19.195-39.48,22.6729-47.7226,4.688-11.11,7.0759-37.2531,0-49.4393s-24.1982-31.5593-17.69-66.4348c7.8295-41.9544,58.7462-71.5623,103.1671-53.0864s36.7783,56.1016,35.9921,62.7844-1.7439,13.3381,7.9885,22.0935c10.8134,9.7279,7.1043,22.5189-.6131,27.5452-12.69,8.2646-.7961,29.19-4.3584,39.0946-2.5245,7.0191-8.1685,14.2323-23.2817,13.93s-22.75,2.8455-28.3946,20.55c-5.2553,16.4827,20.99,41.29,19.66,77.2435"/><polyline class="cls-2" points="308.99 106.612 350.859 106.612 308.99 155.699 350.859 155.699"/><polyline class="cls-2" points="349.766 199.225 382.264 199.225 349.766 237.325 382.264 237.325"/><polyline class="cls-2" points="330.973 277.853 343.733 277.853 330.973 292.813 343.733 292.813"/></g></g></svg>