<svg xmlns="http://www.w3.org/2000/svg" viewBox="0 0 500 500"><defs><style>.cls-1,.cls-2{fill:none;stroke-linecap:round;stroke-linejoin:round;stroke-width:10px;}.cls-1{stroke:#000;}.cls-2{stroke:#666;}</style></defs><g id="styles"><g id="Careers"><path id="BriefCase" class="cls-1" d="M347.3164,194.6763H318.2969V155.8274a13.3706,13.3706,0,0,0-13.3315-13.3314H195.0363a13.3706,13.3706,0,0,0-13.3315,13.3314v38.8489h-29.02a17.0182,17.0182,0,0,0-17.0182,17.0182V333.3424a17.0182,17.0182,0,0,0,17.0182,17.0182H347.3164a17.0182,17.0182,0,0,0,17.0182-17.0182V211.6945A17.0182,17.0182,0,0,0,347.3164,194.6763Z"/><line id="Handle" class="cls-2" x1="273.0671" y1="183.4891" x2="226.9381" y2="183.4891"/><line class="cls-2" x1="135.6664" y1="296.7881" x2="364.3346" y2="296.7881"/></g></g></svg>