<svg xmlns="http://www.w3.org/2000/svg" viewBox="0 0 500 500"><defs><style>.cls-1,.cls-2{fill:none;stroke-linecap:round;stroke-linejoin:round;stroke-width:10px;}.cls-1{stroke:#000;}.cls-2{stroke:#666;}</style></defs><g id="styles"><g id="FreeShipping"><circle class="cls-1" cx="186.8388" cy="313.8572" r="24.1731"/><circle class="cls-1" cx="344.81" cy="313.8571" r="24.1731"/><polyline class="cls-2" points="277.912 183.919 215.748 254.958 182.256 222.978"/><path class="cls-1" d="M320.6368,313.8571h-5.9351V219.7064h33.1412A31.0777,31.0777,0,0,1,375.64,236.8857l15.9977,31.9955a31.0776,31.0776,0,0,1,3.2809,13.8983h0a31.086,31.086,0,0,1-25.9351,30.6541"/><path class="cls-1" d="M162.6657,313.8571H151.9483a33.3111,33.3111,0,0,1-33.3111-33.3111V197.2809A33.3111,33.3111,0,0,1,151.9483,163.97H254"/><polyline class="cls-1" points="314.702 187.281 314.702 313.857 211.012 313.857"/></g></g></svg>