<svg xmlns="http://www.w3.org/2000/svg" viewBox="0 0 500 500"><defs><style>.cls-1,.cls-2{fill:none;stroke-linecap:round;stroke-linejoin:round;stroke-width:10px;}.cls-1{stroke:#000;}.cls-2{stroke:#666;}</style></defs><g id="styles"><g id="JusticeOfPeace"><path class="cls-1" d="M194.9718,245.8228c-15.689-2.36-25.004-24.4475-45.7534-19.6914-17.1272,3.9258-16.1861,20.2979-40.4581,35.5418,0,0,39.0406-6.6505,52.8236,24.3613s34.3483,37.3789,57.9224,35.5948,58.0727-5.7064,93.8673,48.5627c0,0,67.418-8.8315,43.6522-77.4294,0,0-24.7144,38.9877-67.37,3.7106,0,0,75.5655-27.4766,46.4207-132.204-5.2886-19.0038-34.5517-24.7716-43.6418.453C276.176,209.84,249.64,254.0451,194.9718,245.8228Z"/><path class="cls-2" d="M198.1487,219.348c10.5348-19.3139,13.6107-41.1978,15.0719-53.4073,2.4858-20.7709,36.7245-29.1158,49.0152,2.4888"/></g></g></svg>