<svg xmlns="http://www.w3.org/2000/svg" viewBox="0 0 500 500"><defs><style>.cls-1,.cls-2{fill:none;stroke-linecap:round;stroke-linejoin:round;stroke-width:10px;}.cls-1{stroke:#000;}.cls-2{stroke:#666;}</style></defs><g id="styles"><g id="Community"><circle class="cls-1" cx="250.1285" cy="201.0112" r="53.5601"/><path class="cls-1" d="M297.433,226.1444a37.9535,37.9535,0,1,0,4.7676-37.6944"/><path class="cls-1" d="M356.0028,241.1193c21.3333,7.1135,37.6141,26.45,41.2637,49.1654a8.2869,8.2869,0,0,1-8.1665,9.6226H338.7139"/><path class="cls-1" d="M161.5427,299.9073H111.1571a8.2868,8.2868,0,0,1-8.1665-9.6226c3.6494-22.7139,19.9287-42.05,41.2605-49.1643"/><path class="cls-1" d="M198.0552,188.4483a37.9394,37.9394,0,1,0,4.7529,37.7338"/><path class="cls-1" d="M283.4318,242.945c30.1095,10.0422,53.0875,37.335,58.2386,69.3954a11.697,11.697,0,0,1-11.5271,13.5824H310.1285"/><path class="cls-1" d="M190.1285,325.9228H170.1137a11.6969,11.6969,0,0,1-11.527-13.5824c5.15-32.0563,28.1232-59.3462,58.2271-69.3915"/><path class="cls-2" d="M278.3769,303.1747a15.41,15.41,0,0,0-21.7295,0l-6.5189,6.5189-6.5189-6.5189a15.3651,15.3651,0,1,0-21.7295,21.73l28.2484,28.2484,28.2484-28.2484A15.41,15.41,0,0,0,278.3769,303.1747Z"/></g></g></svg>