<svg xmlns="http://www.w3.org/2000/svg" viewBox="0 0 500 500"><defs><style>.cls-1,.cls-2{fill:none;stroke-linecap:round;stroke-linejoin:round;stroke-width:10px;}.cls-1{stroke:#000;}.cls-2{stroke:#666;}</style></defs><g id="styles"><g id="WomensHealth"><g id="WomensHealth-2" data-name="WomensHealth"><path class="cls-1" d="M284,329.1237l0,52.496a17,17,0,0,1-16.9995,17h0A17,17,0,0,1,250,381.62v0a17,17,0,0,1-17,17h0A17,17,0,0,1,216.0011,381.62l0-52.4962"/><path class="cls-2" d="M302.0508,281.1905l1.14,3.5825A16.9939,16.9939,0,0,0,324.54,295.8111h0A16.994,16.994,0,0,0,335.574,274.452L309.6759,193.29A26.9519,26.9519,0,0,0,284,174.5314h-67.999A26.9519,26.9519,0,0,0,190.3241,193.29L164.426,274.452a16.994,16.994,0,0,0,11.0345,21.3591h0a16.9939,16.9939,0,0,0,21.3483-11.0381l1.14-3.5825"/><path class="cls-1" d="M284,225.1l28.0139,87.1622a12.9108,12.9108,0,0,1-12.2916,16.8614h-99.443a12.9109,12.9109,0,0,1-12.2917-16.8614L216.0011,225.1"/><circle class="cls-1" cx="250.0003" cy="130.0177" r="28.637"/></g></g></g></svg>