<svg xmlns="http://www.w3.org/2000/svg" viewBox="0 0 500 500"><defs><style>.cls-1,.cls-2{fill:none;stroke-linecap:round;stroke-linejoin:round;stroke-width:10px;}.cls-1{stroke:#666;}.cls-2{stroke:#000;}</style></defs><g id="styles"><g id="Facemask"><path class="cls-1" d="M356.62,282.6133s55.1225-22.9411,55.1225-64.1322-60.1336,0-60.1336,0"/><path class="cls-1" d="M143.38,282.6133s-55.1225-22.9411-55.1225-64.1322,60.1336,0,60.1336,0"/><path class="cls-2" d="M356.62,282.6133s-47.789,80.12-106.62,80.12-106.62-80.12-106.62-80.12l5.0111-64.1322h15.05a84.6138,84.6138,0,0,0,34.526-7.343c12.807-5.7221,32.4436-16.71,52.0329-16.71s39.2259,10.9883,52.0329,16.71a84.6138,84.6138,0,0,0,34.526,7.343h15.05Z"/><line class="cls-2" x1="223.3216" y1="249.5259" x2="274.8647" y2="249.5259"/><line class="cls-2" x1="235.8617" y1="322.5132" x2="262.3246" y2="322.5132"/><line class="cls-2" x1="213.2994" y1="286.0195" x2="284.8869" y2="286.0195"/></g></g></svg>