<svg xmlns="http://www.w3.org/2000/svg" viewBox="0 0 500 500"><defs><style>.cls-1,.cls-2{fill:none;stroke-linecap:round;stroke-linejoin:round;stroke-width:10px;}.cls-1{stroke:#000;}.cls-2{stroke:#666;}</style></defs><g id="styles"><g id="Repellent"><rect class="cls-1" x="191.2095" y="238.7495" width="110.7962" height="129.5057" rx="19.0367"/><path class="cls-1" d="M229.4192,199.7808h34.3767a11.0063,11.0063,0,0,1,11.0063,11.0063V238.75a0,0,0,0,1,0,0H218.413a0,0,0,0,1,0,0V210.7871A11.0063,11.0063,0,0,1,229.4192,199.7808Z"/><path class="cls-1" d="M237.78,148.7022h17.81a7.9039,7.9039,0,0,1,7.9039,7.9039v43.1747a0,0,0,0,1,0,0H229.7206a0,0,0,0,1,0,0V156.7621A8.06,8.06,0,0,1,237.78,148.7022Z"/><line class="cls-2" x1="302.7658" y1="168.2579" x2="347.0859" y2="168.2579"/><line class="cls-2" x1="295.241" y1="140.7537" x2="315.3004" y2="127.9715"/><line class="cls-2" x1="295.241" y1="195.762" x2="315.3004" y2="208.5442"/><line class="cls-2" x1="227.6101" y1="284.5049" x2="265.605" y2="322.4998"/><line class="cls-2" x1="265.605" y1="284.5049" x2="227.6101" y2="322.4998"/><circle class="cls-1" cx="256.6081" cy="168.23" r="4.9428"/></g></g></svg>