<svg xmlns="http://www.w3.org/2000/svg" viewBox="0 0 500 500"><defs><style>.cls-1,.cls-2{fill:none;stroke-linecap:round;stroke-linejoin:round;stroke-width:10px;}.cls-1{stroke:#666;}.cls-2{stroke:#000;}</style></defs><g id="styles"><g id="Cold"><line class="cls-1" x1="249.9987" y1="251.0697" x2="287.4704" y2="302.6856"/><line class="cls-1" x1="249.9987" y1="251.0697" x2="310.6677" y2="231.3822"/><line class="cls-2" x1="249.9987" y1="251.0697" x2="250.0226" y2="187.2863"/><line class="cls-2" x1="249.9987" y1="251.0697" x2="189.3445" y2="231.3369"/><line class="cls-2" x1="249.9987" y1="251.0697" x2="212.4886" y2="302.6576"/><line class="cls-2" x1="250.0144" y1="187.2863" x2="281.1182" y2="144.5092"/><line class="cls-2" x1="250.0144" y1="187.2863" x2="218.9425" y2="144.486"/><line class="cls-2" x1="189.3445" y1="231.3369" x2="158.2726" y2="188.5365"/><line class="cls-2" x1="189.3445" y1="231.3369" x2="139.0372" y2="247.662"/><line class="cls-1" x1="287.477" y1="302.6807" x2="287.4573" y2="355.5706"/><line class="cls-1" x1="287.477" y1="302.6807" x2="337.7721" y2="319.0434"/><line class="cls-1" x1="310.6677" y1="231.3822" x2="360.9628" y2="247.7449"/><line class="cls-1" x1="310.6677" y1="231.3822" x2="341.7715" y2="188.6051"/><line class="cls-2" x1="212.4886" y1="302.6209" x2="162.1812" y2="318.9459"/><line class="cls-2" x1="212.4886" y1="302.6209" x2="212.4688" y2="355.5107"/></g></g></svg>