<svg xmlns="http://www.w3.org/2000/svg" viewBox="0 0 500 500"><defs><style>.cls-1,.cls-2{fill:none;stroke-linecap:round;stroke-linejoin:round;stroke-width:10px;}.cls-1{stroke:#000;}.cls-2{stroke:#666;}</style></defs><g id="styles"><g id="Team"><circle class="cls-1" cx="250.1285" cy="200.5281" r="53.5601"/><path class="cls-1" d="M297.433,225.6612a37.9534,37.9534,0,1,0,4.7676-37.6943"/><path class="cls-1" d="M356.0028,240.6362c21.3333,7.1135,37.6141,26.45,41.2637,49.1653a8.2869,8.2869,0,0,1-8.1665,9.6227H338.7139"/><path class="cls-1" d="M161.5427,299.4242H111.1571a8.2869,8.2869,0,0,1-8.1665-9.6227c3.6494-22.7138,19.9287-42.05,41.2605-49.1643"/><path class="cls-1" d="M198.0552,187.9651a37.9395,37.9395,0,1,0,4.7529,37.7339"/><path class="cls-1" d="M283.4318,242.4619c30.1095,10.0422,53.0875,37.3349,58.2386,69.3953A11.697,11.697,0,0,1,330.1433,325.44H320.1285"/><path class="cls-1" d="M180.1285,325.44H170.1137a11.697,11.697,0,0,1-11.527-13.5825c5.15-32.0563,28.1232-59.3462,58.2271-69.3915"/><line class="cls-2" x1="250.1285" y1="356.2535" x2="250.1285" y2="295.5921"/><line class="cls-2" x1="219.7978" y1="325.9228" x2="280.4592" y2="325.9228"/></g></g></svg>