<svg xmlns="http://www.w3.org/2000/svg" viewBox="0 0 500 500"><defs><style>.cls-1,.cls-2{fill:none;stroke-linecap:round;stroke-linejoin:round;stroke-width:10px;}.cls-1{stroke:#000;}.cls-2{stroke:#666;}</style></defs><g id="styles"><g id="Sting"><g id="Bee"><path class="cls-1" d="M216.5174,167.75c18.7186,18.7186,35.1515,81.6584,35.1515,81.6584s-62.94-16.4329-81.6585-35.1515-23.4822-44.3041-10.64-57.1466S197.7987,149.0312,216.5174,167.75Z"/><path class="cls-1" d="M333.3273,284.56c-18.7186-18.7186-81.6584-35.1515-81.6584-35.1515s16.4329,62.94,35.1515,81.6585,44.3041,23.4822,57.1466,10.64S352.046,303.2785,333.3273,284.56Z"/><path class="cls-1" d="M265.9177,293.095a50.4838,50.4838,0,0,1-14.2488,28.03c-19.8041,19.8041-97.65,25.9332-97.65,25.9332s6.1291-77.8461,25.9332-97.65a50.4836,50.4836,0,0,1,28.03-14.2487"/><path class="cls-2" d="M168.541,270.1384a99.1367,99.1367,0,0,0,62.3977,62.3978"/><line class="cls-2" x1="310.4821" y1="208.9578" x2="353.9369" y2="208.9578"/><line class="cls-2" x1="292.1194" y1="190.5951" x2="292.1194" y2="147.1403"/><path class="cls-1" d="M291.327,262.1064c4.8115-2.0729,8.82-4.4308,11.4931-7.1036a40.1253,40.1253,0,0,0-56.7457-56.7457c-2.6728,2.6728-5.0309,6.6818-7.1037,11.4934"/><path class="cls-2" d="M194.7034,239.101a105.9267,105.9267,0,0,0,67.2515,67.2309"/></g></g></g></svg>