<svg xmlns="http://www.w3.org/2000/svg" viewBox="0 0 500 500"><defs><style>.cls-1,.cls-2{fill:none;stroke-linecap:round;stroke-linejoin:round;stroke-width:10px;}.cls-1{stroke:#000;}.cls-2{stroke:#666;}.cls-3{fill:#afafaf;}</style></defs><g id="styles"><g id="Sheep"><path class="cls-1" d="M155.9294,210.7155c11.13-8.2912,21.3726-13.1335,22.0962-18.9187,1.8437-14.7386-27.6385-28.6206-23.8176-57.9689,1.7188-13.2023,57.9949,39.38,79.2807,38.576s26.0159-9.5073,44.9-7.8049c21,1.8932,28.6261,15.1925,35.5664,24.2688,6.03,7.8855,55.2029,16.1059,74.8987,57.1368,5.6409,11.7515-12.7975,40.3861-19.2477,43.2861s-34.4032-1.3658-43.0982,0-29.0784,10.5833-30.9637,14.2265c-2.4563,4.7468-23.736,29.9764-42.7971,42.6514"/><path class="cls-2" d="M103.971,212.5246c32.8807-20.2855,86.3913,0,76.366,56.6347,0,0,59.4424.5313,56.8622,61.3652,0,0,45.4175,29.8726,15.3805,78.517"/><circle class="cls-3" cx="275.0082" cy="204.8502" r="11.4064"/></g></g></svg>