<svg xmlns="http://www.w3.org/2000/svg" viewBox="0 0 500 500"><defs><style>.cls-1,.cls-2{fill:none;stroke-linecap:round;stroke-linejoin:round;stroke-width:10px;}.cls-1{stroke:#000;}.cls-2{stroke:#666;}</style></defs><g id="styles"><g id="Photos"><path class="cls-1" d="M345.9323,338.8182H154.8393a16.8567,16.8567,0,0,1-16.8072-16.8072V205.82a16.8567,16.8567,0,0,1,16.8072-16.8072l30.4589-.1344,18.1782-27.2755a15.8128,15.8128,0,0,1,13.1564-7.0433l67.6991-.008a15.8128,15.8128,0,0,1,13.1582,7.04l18.1766,27.26,30.2656-.1078A16.8565,16.8565,0,0,1,362.74,205.5515v116.46A16.8566,16.8566,0,0,1,345.9323,338.8182Z"/><circle class="cls-2" cx="250.4825" cy="256.2405" r="40.9797"/></g></g></svg>