<svg xmlns="http://www.w3.org/2000/svg" viewBox="0 0 500 500"><defs><style>.cls-1,.cls-2{fill:none;stroke-linecap:round;stroke-linejoin:round;stroke-width:10px;}.cls-1{stroke:#000;}.cls-2{stroke:#666;}</style></defs><g id="styles"><g id="Support"><g id="Support-2" data-name="Support"><path class="cls-1" d="M292.3948,203.052a60.4952,60.4952,0,0,1,18.7675,44.38M206.6559,205.7259a60.4888,60.4888,0,0,1,45.2352-19.256M210.9124,291.9842a60.49,60.49,0,0,1-20.38-44.568m105.102,39.7659a60.5,60.5,0,0,1-43.0409,19.8893M359.4709,263.87a110.0874,110.0874,0,0,0-47.0854-108.22M234.7672,355.5579a110.0894,110.0894,0,0,0,107.5909-47.8114m-200.02-78.7612a110.0719,110.0719,0,0,0,48.837,110.152M269.577,138.4279a110.0688,110.0688,0,0,0-110.9109,48.4052"/><rect class="cls-2" x="197.0766" y="284.5418" width="49.2987" height="80.732" rx="24.6493" transform="translate(132.7826 -58.2587) rotate(21.2422)"/><rect class="cls-2" x="257.4068" y="129.3408" width="49.2987" height="80.732" rx="24.6493" transform="translate(80.6505 -90.6618) rotate(21.2422)"/><rect class="cls-2" x="149.6412" y="176.7762" width="49.2987" height="80.732" rx="24.6493" transform="translate(439.8269 133.3666) rotate(111.2422)"/><rect class="cls-2" x="304.8422" y="237.1063" width="49.2987" height="80.732" rx="24.6493" transform="translate(707.4901 70.8989) rotate(111.2422)"/></g></g></g></svg>