<svg xmlns="http://www.w3.org/2000/svg" viewBox="0 0 500 500"><defs><style>.cls-1,.cls-2{fill:none;stroke-linecap:round;stroke-linejoin:round;stroke-width:10px;}.cls-1{stroke:#666;}.cls-2{stroke:#000;}</style></defs><g id="styles"><g id="MensHealth"><path class="cls-1" d="M283.9992,277.5507v3.7541a17,17,0,0,0,17,17h0a17,17,0,0,0,17-17V208.53a33.999,33.999,0,0,0-33.999-33.999H216.0008a33.999,33.999,0,0,0-33.999,33.9989l0,72.7745a17,17,0,0,0,17,17h0a17,17,0,0,0,17-17v-3.7541"/><path class="cls-2" d="M283.9992,222.4289l0,159.1908a17,17,0,0,1-16.9994,17h0a17,17,0,0,1-17-17v0a17,17,0,0,1-16.9994,17h0a17,17,0,0,1-17-16.9994l0-159.191"/><circle class="cls-2" cx="250" cy="130.0177" r="28.637"/></g></g></svg>