<svg xmlns="http://www.w3.org/2000/svg" viewBox="0 0 500 500"><defs><style>.cls-1{fill:none;stroke:#000;stroke-linecap:round;stroke-linejoin:round;stroke-width:10px;}.cls-2{fill:#afafaf;}</style></defs><g id="styles"><g id="SkinCondition"><path class="cls-1" d="M303.3309,232.6794v-55.43a16.5525,16.5525,0,0,1,16.5041-16.504h.276a16.5525,16.5525,0,0,1,16.504,16.504V277.55c-1.23,17.2531-3.8248,25.9758-6.8766,39.7565-.7653,3.4562-3.0318,13.7826-5.7256,26.7592-3.5882,17.285-9.1333,41.8914-12.5253,68.4153"/><path class="cls-1" d="M270.0468,135.2352V113.9588a19.067,19.067,0,0,0-19.0112-19.0112h0a19.0671,19.0671,0,0,0-19.0112,19.0112V224.06"/><path class="cls-1" d="M303.3309,177.249V135.2352a16.5526,16.5526,0,0,0-16.504-16.5041h-.276a16.5526,16.5526,0,0,0-16.5041,16.5041V224.06"/><path class="cls-1" d="M232.0243,138.1821c0-10.5993-8.6723-19.5928-19.27-19.4493a19.0686,19.0686,0,0,0-18.752,19.01V279.28L173.6179,247.847a21.4633,21.4633,0,0,0-29.5991-6.3116h0a21.4631,21.4631,0,0,0-6.3116,29.5991s29.6665,46.264,47.48,73.1955c6.5056,9.8354,12.442,32.8381,15.1846,67.3919"/><g id="Bumps"><circle class="cls-2" cx="249.9834" cy="284.6982" r="13.9924"/><circle class="cls-2" cx="226.2558" cy="314.9375" r="9.2742"/><circle class="cls-2" cx="256.02" cy="326.7025" r="13.9924"/><circle class="cls-2" cx="245.998" cy="363.0402" r="9.2742"/><circle class="cls-2" cx="282.1309" cy="300.5368" r="9.2742"/><circle class="cls-2" cx="285.1526" cy="338.3389" r="9.2742"/></g></g></g></svg>