<svg xmlns="http://www.w3.org/2000/svg" viewBox="0 0 500 500"><defs><style>.cls-1,.cls-2{fill:none;stroke-linecap:round;stroke-linejoin:round;stroke-width:10px;}.cls-1{stroke:#000;}.cls-2{stroke:#666;}</style></defs><g id="styles"><g id="Digestion"><path class="cls-1" d="M108.9826,330.3223c11.7889-37.5663,31.4465-58.105,38.9176-62.7026,24.7832-15.2512,47.7789-11.0425,94.0341-14.4689C284.47,250,296.22,209.8722,272.6369,182.1981c-10.3808-12.1817-18.0709-25.9233-21.2335-41.6486-1.2127-6.03-1.94-20.0788.2944-41.5861"/><path class="cls-1" d="M299.3183,97.2474c-2.0187,17.5346-1.2594,31.6376,1.08,40.7214,1.8467,7.1714,5.7236,13.7349,11.9643,17.7215,15.1473,9.6763,46.3885,6.4218,66.61,37.2606S405.004,302.0825,319.624,340.43c-48.9768,21.9972-93.0053,1.154-110.1086-13.513-8.8548-7.5935-22.459-22.7221-38.9491-10.7443-7.8543,5.7051-20.521,16.8112-30.8711,41.2708"/><path class="cls-2" d="M231.8833,307.661c11.1782,8.0856,38.5255,13.5768,53.1223,10.3051s40.8437-12.79,60.6522-35.9887c24.2081-28.3509-38.84-23.1955-55.6089-12.3108-11.7185,7.6066-26.7414,14.8793-49.7338,13.6758C210.68,281.7912,211.8009,293.1346,231.8833,307.661Z"/></g></g></svg>