<svg xmlns="http://www.w3.org/2000/svg" viewBox="0 0 500 500"><defs><style>.cls-1,.cls-2{fill:none;stroke-linecap:round;stroke-linejoin:round;stroke-width:10px;}.cls-1{stroke:#272659;}.cls-2{stroke:#4c77b0;}</style></defs><g id="styles"><g id="thin"><g id="WomensHealth"><g id="WomensHealth-2" data-name="WomensHealth"><path class="cls-1" d="M284,329.12v52.5a17,17,0,0,1-17,17h0a17,17,0,0,1-17-17v0a17,17,0,0,1-17,17h0a17,17,0,0,1-17-17v-52.5"/><path class="cls-2" d="M302.05,281.19l1.14,3.58a17,17,0,0,0,21.35,11h0a17,17,0,0,0,11-21.36l-25.89-81.16A27,27,0,0,0,284,174.53H216a27,27,0,0,0-25.68,18.76l-25.89,81.16a17,17,0,0,0,11,21.36h0a17,17,0,0,0,21.35-11l1.14-3.58"/><path class="cls-1" d="M284,225.1l28,87.16a12.9,12.9,0,0,1-12.29,16.86H200.28A12.9,12.9,0,0,1,188,312.26l28-87.16"/><circle class="cls-1" cx="250" cy="130.02" r="28.64"/></g></g></g></g></svg>