<svg xmlns="http://www.w3.org/2000/svg" viewBox="0 0 500 500"><defs><style>.cls-1,.cls-2{fill:none;stroke-linecap:round;stroke-linejoin:round;stroke-width:10px;}.cls-1{stroke:#4c77b0;}.cls-2{stroke:#272659;}</style></defs><g id="styles"><g id="thin"><g id="HomeDelivery"><g id="Shop"><path class="cls-1" d="M266.23,214.82H389.55a12.2,12.2,0,0,0,7.81-21.58L324.7,132.72a12.21,12.21,0,0,0-15.59,0l-76.84,63.72"/><polyline class="cls-1" points="381.24 214.82 381.24 290.7 340.45 290.7 340.45 247.59 301.65 247.59"/></g><g id="truck"><circle class="cls-2" cx="153.2" cy="334.95" r="19.39"/><circle class="cls-2" cx="279.91" cy="334.95" r="19.39"/><path class="cls-2" d="M260.52,335h-4.76V259.43h26.58a24.93,24.93,0,0,1,22.29,13.78l12.84,25.67A24.94,24.94,0,0,1,320.1,310h0a24.92,24.92,0,0,1-20.81,24.58"/><path class="cls-2" d="M133.81,335h-8.6a26.72,26.72,0,0,1-26.72-26.72V241.45a26.72,26.72,0,0,1,26.72-26.72H229a26.72,26.72,0,0,1,26.72,26.72V335H172.58"/></g></g></g></g></svg>