<svg xmlns="http://www.w3.org/2000/svg" viewBox="0 0 500 500"><defs><style>.cls-1{fill:#272659;}.cls-2{fill:#4c77b0;}.cls-3{fill:none;stroke:#232323;}.cls-4{fill:#232323;}</style></defs><g id="styles"><g id="thin"><g id="Bird"><path class="cls-1" d="M307.94,407.4l-.42,0A5,5,0,0,1,303,402c3.2-38.28,12.52-49.9,22.11-56.75l.93-.67c15.56-11.62,37.05-9.08,46.44-7.2,2.06-7,5.12-21.94-1.21-34.86-5-10.09-14.82-17.21-29.34-21.16a5,5,0,0,1-3.67-4.47c-.57-8.06-7.8-78.87-86-83.47-35.4-2.09-66.4-19.16-89.66-49.39a160,160,0,0,1-24.61-45.35,5,5,0,1,1,9.55-3,153.08,153.08,0,0,0,23.18,42.48c21.72,28.09,49.35,43.32,82.12,45.24,33,2,58.39,14.81,75.53,38.24,14.38,19.66,18.41,41.18,19.54,51,15.64,4.95,26.52,13.51,32.37,25.5,10.53,21.57.52,46,.09,47a5,5,0,0,1-6,2.86c-.25-.07-26.33-7.43-42.33,4.51-.34.26-.71.52-1.1.8-4.77,3.41-14.7,10.5-17.95,49.45A5,5,0,0,1,307.94,407.4Z"/><path class="cls-1" d="M150.89,345.7a5,5,0,0,1-3.87-8.16c.21-.26,21.76-27.17,24.67-60.59.88-10.06-2.6-14.16-8.36-20.94-1.78-2.1-3.8-4.48-5.81-7.22a5,5,0,1,1,8.07-5.91c1.8,2.45,3.61,4.59,5.37,6.66,6.14,7.23,11.94,14.06,10.7,28.28-3.2,36.56-25.92,64.85-26.89,66A5,5,0,0,1,150.89,345.7Z"/><path class="cls-2" d="M196.49,230.63a5,5,0,0,1-2.11-.47c-1.39-.65-34.39-16.36-56-53.35a5,5,0,1,1,8.63-5c20,34.32,51.27,49.18,51.58,49.33a5,5,0,0,1-2.12,9.53Z"/><circle class="cls-1" cx="296" cy="271.81" r="11.41"/></g><g id="Bird-2" data-name="Bird"><path class="cls-3" d="M307.94,407.4l-.42,0A5,5,0,0,1,303,402c3.2-38.28,12.52-49.9,22.11-56.75l.93-.67c15.56-11.62,37.05-9.08,46.44-7.2,2.06-7,5.12-21.94-1.21-34.86-5-10.09-14.82-17.21-29.34-21.16a5,5,0,0,1-3.67-4.47c-.57-8.06-7.8-78.87-86-83.47-35.4-2.09-66.4-19.16-89.66-49.39a160,160,0,0,1-24.61-45.35,5,5,0,1,1,9.55-3,153.08,153.08,0,0,0,23.18,42.48c21.72,28.09,49.35,43.32,82.12,45.24,33,2,58.39,14.81,75.53,38.24,14.38,19.66,18.41,41.18,19.54,51,15.64,4.95,26.52,13.51,32.37,25.5,10.53,21.57.52,46,.09,47a5,5,0,0,1-6,2.86c-.25-.07-26.33-7.43-42.33,4.51-.34.26-.71.52-1.1.8-4.77,3.41-14.7,10.5-17.95,49.45A5,5,0,0,1,307.94,407.4Z"/><path class="cls-3" d="M150.89,345.7a5,5,0,0,1-3.87-8.16c.21-.26,21.76-27.17,24.67-60.59.88-10.06-2.6-14.16-8.36-20.94-1.78-2.1-3.8-4.48-5.81-7.22a5,5,0,1,1,8.07-5.91c1.8,2.45,3.61,4.59,5.37,6.66,6.14,7.23,11.94,14.06,10.7,28.28-3.2,36.56-25.92,64.85-26.89,66A5,5,0,0,1,150.89,345.7Z"/><path class="cls-3" d="M196.49,230.63a5,5,0,0,1-2.11-.47c-1.39-.65-34.39-16.36-56-53.35a5,5,0,1,1,8.63-5c20,34.32,51.27,49.18,51.58,49.33a5,5,0,0,1-2.12,9.53Z"/><circle class="cls-3" cx="296" cy="271.81" r="11.41"/></g><g id="Bird-3" data-name="Bird"><path class="cls-4" d="M307.94,407.4l-.42,0A5,5,0,0,1,303,402c3.2-38.28,12.52-49.9,22.11-56.75l.93-.67c15.56-11.62,37.05-9.08,46.44-7.2,2.06-7,5.12-21.94-1.21-34.86-5-10.09-14.82-17.21-29.34-21.16a5,5,0,0,1-3.67-4.47c-.57-8.06-7.8-78.87-86-83.47-35.4-2.09-66.4-19.16-89.66-49.39a160,160,0,0,1-24.61-45.35,5,5,0,1,1,9.55-3,153.08,153.08,0,0,0,23.18,42.48c21.72,28.09,49.35,43.32,82.12,45.24,33,2,58.39,14.81,75.53,38.24,14.38,19.66,18.41,41.18,19.54,51,15.64,4.95,26.52,13.51,32.37,25.5,10.53,21.57.52,46,.09,47a5,5,0,0,1-6,2.86c-.25-.07-26.33-7.43-42.33,4.51-.34.26-.71.52-1.1.8-4.77,3.41-14.7,10.5-17.95,49.45A5,5,0,0,1,307.94,407.4Z"/><path class="cls-4" d="M150.89,345.7a5,5,0,0,1-3.87-8.16c.21-.26,21.76-27.17,24.67-60.59.88-10.06-2.6-14.16-8.36-20.94-1.78-2.1-3.8-4.48-5.81-7.22a5,5,0,1,1,8.07-5.91c1.8,2.45,3.61,4.59,5.37,6.66,6.14,7.23,11.94,14.06,10.7,28.28-3.2,36.56-25.92,64.85-26.89,66A5,5,0,0,1,150.89,345.7Z"/><path class="cls-4" d="M196.49,230.63a5,5,0,0,1-2.11-.47c-1.39-.65-34.39-16.36-56-53.35a5,5,0,1,1,8.63-5c20,34.32,51.27,49.18,51.58,49.33a5,5,0,0,1-2.12,9.53Z"/><circle class="cls-4" cx="296" cy="271.81" r="11.41"/></g></g></g></svg>