<svg xmlns="http://www.w3.org/2000/svg" xmlns:xlink="http://www.w3.org/1999/xlink" viewBox="0 0 500 500"><defs><style>.cls-1{fill:#272659;}.cls-2,.cls-3{fill:none;stroke-linecap:round;stroke-linejoin:round;stroke-width:10px;}.cls-2{stroke:#272659;}.cls-3{stroke:#4c77b0;}</style><symbol id="Eye" data-name="Eye" viewBox="0 0 22.81 22.81"><circle class="cls-1" cx="11.41" cy="11.41" r="11.41"/></symbol><symbol id="thin-fish" data-name="thin-fish" viewBox="0 0 240.56 257.42"><g id="Fish"><path class="cls-2" d="M23.11,53.86c142.38,0,212.45,44.25,212.45,81.88,0,33.39-78.22,84.46-170.35,83.1-41.06-.6-47.78-1.23-47.78-1.23"/><path class="cls-2" d="M110.79,60.41S79.6,5,5,5"/><path class="cls-3" d="M74.65,145.75c-.24,18.77,7.94,37.54,7.94,37.54"/><path class="cls-3" d="M40.92,145.75c-.6,18.77,7.95,37.54,7.95,37.54"/><path class="cls-2" d="M95.51,217.43c-9.76,12.5-33.94,30.55-59.21,35"/><use width="22.81" height="22.81" transform="translate(160.3 116.21)" xlink:href="#Eye"/></g></symbol></defs><g id="styles"><g id="thin"><use width="240.56" height="257.41" transform="translate(145.26 125.97)" xlink:href="#thin-fish"/></g></g></svg>