<svg xmlns="http://www.w3.org/2000/svg" xmlns:xlink="http://www.w3.org/1999/xlink" viewBox="0 0 500 500"><defs><style>.cls-1{fill:#272659;}.cls-2,.cls-3{fill:none;stroke-linecap:round;stroke-linejoin:round;stroke-width:10px;}.cls-2{stroke:#4c77b0;}.cls-3{stroke:#272659;}</style><symbol id="Eye" data-name="Eye" viewBox="0 0 22.81 22.81"><circle class="cls-1" cx="11.41" cy="11.41" r="11.41"/></symbol><symbol id="thin-lizard" data-name="thin-lizard" viewBox="0 0 322.57 220.93"><g id="Lizard"><polyline class="cls-2" points="260.27 102.98 301.91 108.51 317.57 99.81"/><line class="cls-2" x1="313.85" y1="124.52" x2="301.91" y2="108.51"/><use width="22.81" height="22.81" transform="translate(157.24 54.48)" xlink:href="#Eye"/><path class="cls-3" d="M89.44,215.93c21.53-21.16,30-36.33,90.42-56C221,146.62,258.75,126.15,264,89.09c4.33-30.38-54.42-35.08-56.72-38.33s-13.64-17.83-22-21.89c-22.69-11-33.29.94-38.8-1.34-23.91-21.1-47-25.27-60.69-21.06-11.1,3.4,6.66,32.81,6.32,47.5C71.05,34.06,38.52,40.23,36.81,51.1c-.9,5.74,13.56,23.46,13.84,30.36C15.58,74.81,14.07,96.92,5,110.58"/><path class="cls-3" d="M157.8,25.32a36.18,36.18,0,0,0-10.23,4.15A39.33,39.33,0,0,0,129.8,51.24"/></g></symbol></defs><g id="styles"><g id="thin"><use width="322.57" height="220.93" transform="translate(97.27 141.74)" xlink:href="#thin-lizard"/></g></g></svg>