<svg xmlns="http://www.w3.org/2000/svg" viewBox="0 0 500 500"><defs><style>.cls-1,.cls-2{fill:none;stroke-linecap:round;stroke-linejoin:round;stroke-width:10px;}.cls-1{stroke:#272659;}.cls-2{stroke:#4c77b0;}</style></defs><g id="styles"><g id="thin"><g id="Beauty"><g id="Lipstick"><rect class="cls-1" x="263.33" y="285.26" width="72.77" height="134.39"/><path class="cls-2" d="M320.4,155.35V255.91H279V186.34c0-4,6.64-12.52,16.34-20.67,11.18-9.36,22.17-14.65,24.56-11.79A2.23,2.23,0,0,1,320.4,155.35Z"/><rect class="cls-1" x="272.57" y="255.91" width="54.28" height="29.35"/></g><g id="Brush"><line class="cls-1" x1="228.29" y1="224.63" x2="186.84" y2="224.63"/><path class="cls-1" d="M185.39,181.07,191.48,364a16.09,16.09,0,0,0,32.16,0l6.1-182.89"/><path class="cls-2" d="M185.39,181.07s-40.17-45.27-40.12-46c1.53-24.3,28.84-43.66,62.29-43.66s60.77,19.36,62.3,43.66c0,.72-40.12,46-40.12,46Z"/></g></g></g></g></svg>