<svg xmlns="http://www.w3.org/2000/svg" viewBox="0 0 500 500"><defs><style>.cls-1,.cls-2{fill:none;stroke-linecap:round;stroke-linejoin:round;stroke-width:10px;}.cls-1{stroke:#4c77b0;}.cls-2{stroke:#272659;}</style></defs><g id="styles"><g id="thin"><g id="Pills"><g id="Pill_2" data-name="Pill 2"><path id="Outline" class="cls-1" d="M268.76,195.7a43.66,43.66,0,0,1,81.66,27.81l-13.91,80.23a43.84,43.84,0,0,1-44.85,36.17"/><line class="cls-1" x1="343.35" y1="264.32" x2="282.85" y2="252.81"/></g><g id="Pill_1" data-name="Pill 1"><path id="Outline-2" data-name="Outline" class="cls-2" d="M250.27,375.18a61.12,61.12,0,0,1-73.76-44.57L149.3,220.3a60.94,60.94,0,0,1,118.33-29.19l27.21,110.31A61.12,61.12,0,0,1,250.27,375.18Z"/><path id="Highlight" class="cls-1" d="M193.12,179c-12.16,3-20.64,14.2-16.88,30.86.06.27,2.72,11.08,2.79,11.35"/><line class="cls-2" x1="281.47" y1="247.22" x2="162.67" y2="274.5"/></g></g></g></g></svg>