<svg xmlns="http://www.w3.org/2000/svg" viewBox="0 0 500 500"><defs><style>.cls-1{fill:#272659;}.cls-2{fill:#4c77b0;}.cls-3{fill:none;stroke:#232323;}.cls-4{fill:#232323;}</style></defs><g id="styles"><g id="thin"><g id="Cow"><path class="cls-1" d="M241,376.8a5,5,0,0,1-3.22-8.82c1.1-.92,27.3-22.62,68.27-25.16a5,5,0,0,1,1.84.23c21,6.74,36.7,2.56,46.2-2.14,10.74-5.32,19.68-14.35,23.92-24.17,5-11.48,6.34-19.64,4.21-24.95-2.52-6.27-10.54-9.65-20.7-13.93-15.32-6.46-34.39-14.5-47.92-37.34a5,5,0,0,1-.69-2.52c-.08-12.36-3.6-21.44-10.78-27.74-16.7-14.65-22.5-20.34-22-26.62.39-5,4.61-7.64,9.5-10.72,6.8-4.28,17.41-11,27.53-27.73C282.36,157.7,264.27,157.3,249.44,157c-8.64-.19-16.1-.36-25.41,2.16-10,2.71-19,8.82-29.43,15.9C177,187,155.17,201.81,115.85,210.34a5,5,0,0,1-2.12-9.77c37.42-8.12,58.39-22.37,75.25-33.82,11.16-7.59,20.8-14.14,32.44-17.28,10.7-2.9,19.22-2.7,28.24-2.5,16.4.36,35,.78,76.24-15.8a5,5,0,0,1,6.41,6.73C319.37,166,303.51,176,295,181.38a41.41,41.41,0,0,0-4.71,3.24c1.57,3.3,12.07,12.51,18.47,18.13,9.17,8,13.81,19.11,14.17,33.8,11.8,19.14,28.1,26,42.51,32.09,11.82,5,22,9.29,26.1,19.43,3.22,8,1.85,18.39-4.31,32.64-5.15,11.93-15.87,22.83-28.66,29.16-11,5.45-29.06,10.35-52.78,3-37,2.6-61.29,22.57-61.54,22.77A4.93,4.93,0,0,1,241,376.8Z"/><path class="cls-2" d="M187.8,235.67c-1.8,0-3.61-.07-5.44-.21a5,5,0,0,1,.8-10c24.33,1.92,46.8-11.32,52.72-30.92-1.71-2.33-10.6-8.16-23.87-8.42-14.33-.28-18.84,0-43.31,4.45a5,5,0,0,1-1.78-9.84c25.22-4.56,30.35-4.9,45.29-4.61s27.23,6.5,31.69,12.47c2.41,3.23,2.35,6,1.87,7.74C239.42,219.45,215.05,235.67,187.8,235.67Z"/><circle class="cls-1" cx="274.6" cy="228.58" r="11.41"/></g><g id="Cow-2" data-name="Cow"><path class="cls-3" d="M241,376.8a5,5,0,0,1-3.22-8.82c1.1-.92,27.3-22.62,68.27-25.16a5,5,0,0,1,1.84.23c21,6.74,36.7,2.56,46.2-2.14,10.74-5.32,19.68-14.35,23.92-24.17,5-11.48,6.34-19.64,4.21-24.95-2.52-6.27-10.54-9.65-20.7-13.93-15.32-6.46-34.39-14.5-47.92-37.34a5,5,0,0,1-.69-2.52c-.08-12.36-3.6-21.44-10.78-27.74-16.7-14.65-22.5-20.34-22-26.62.39-5,4.61-7.64,9.5-10.72,6.8-4.28,17.41-11,27.53-27.73C282.36,157.7,264.27,157.3,249.44,157c-8.64-.19-16.1-.36-25.41,2.16-10,2.71-19,8.82-29.43,15.9C177,187,155.17,201.81,115.85,210.34a5,5,0,0,1-2.12-9.77c37.42-8.12,58.39-22.37,75.25-33.82,11.16-7.59,20.8-14.14,32.44-17.28,10.7-2.9,19.22-2.7,28.24-2.5,16.4.36,35,.78,76.24-15.8a5,5,0,0,1,6.41,6.73C319.37,166,303.51,176,295,181.38a41.41,41.41,0,0,0-4.71,3.24c1.57,3.3,12.07,12.51,18.47,18.13,9.17,8,13.81,19.11,14.17,33.8,11.8,19.14,28.1,26,42.51,32.09,11.82,5,22,9.29,26.1,19.43,3.22,8,1.85,18.39-4.31,32.64-5.15,11.93-15.87,22.83-28.66,29.16-11,5.45-29.06,10.35-52.78,3-37,2.6-61.29,22.57-61.54,22.77A4.93,4.93,0,0,1,241,376.8Z"/><path class="cls-3" d="M187.8,235.67c-1.8,0-3.61-.07-5.44-.21a5,5,0,0,1,.8-10c24.33,1.92,46.8-11.32,52.72-30.92-1.71-2.33-10.6-8.16-23.87-8.42-14.33-.28-18.84,0-43.31,4.45a5,5,0,0,1-1.78-9.84c25.22-4.56,30.35-4.9,45.29-4.61s27.23,6.5,31.69,12.47c2.41,3.23,2.35,6,1.87,7.74C239.42,219.45,215.05,235.67,187.8,235.67Z"/><circle class="cls-3" cx="274.6" cy="228.58" r="11.41"/></g><g id="Cow-3" data-name="Cow"><path class="cls-4" d="M241,376.8a5,5,0,0,1-3.22-8.82c1.1-.92,27.3-22.62,68.27-25.16a5,5,0,0,1,1.84.23c21,6.74,36.7,2.56,46.2-2.14,10.74-5.32,19.68-14.35,23.92-24.17,5-11.48,6.34-19.64,4.21-24.95-2.52-6.27-10.54-9.65-20.7-13.93-15.32-6.46-34.39-14.5-47.92-37.34a5,5,0,0,1-.69-2.52c-.08-12.36-3.6-21.44-10.78-27.74-16.7-14.65-22.5-20.34-22-26.62.39-5,4.61-7.64,9.5-10.72,6.8-4.28,17.41-11,27.53-27.73C282.36,157.7,264.27,157.3,249.44,157c-8.64-.19-16.1-.36-25.41,2.16-10,2.71-19,8.82-29.43,15.9C177,187,155.17,201.81,115.85,210.34a5,5,0,0,1-2.12-9.77c37.42-8.12,58.39-22.37,75.25-33.82,11.16-7.59,20.8-14.14,32.44-17.28,10.7-2.9,19.22-2.7,28.24-2.5,16.4.36,35,.78,76.24-15.8a5,5,0,0,1,6.41,6.73C319.37,166,303.51,176,295,181.38a41.41,41.41,0,0,0-4.71,3.24c1.57,3.3,12.07,12.51,18.47,18.13,9.17,8,13.81,19.11,14.17,33.8,11.8,19.14,28.1,26,42.51,32.09,11.82,5,22,9.29,26.1,19.43,3.22,8,1.85,18.39-4.31,32.64-5.15,11.93-15.87,22.83-28.66,29.16-11,5.45-29.06,10.35-52.78,3-37,2.6-61.29,22.57-61.54,22.77A4.93,4.93,0,0,1,241,376.8Z"/><path class="cls-4" d="M187.8,235.67c-1.8,0-3.61-.07-5.44-.21a5,5,0,0,1,.8-10c24.33,1.92,46.8-11.32,52.72-30.92-1.71-2.33-10.6-8.16-23.87-8.42-14.33-.28-18.84,0-43.31,4.45a5,5,0,0,1-1.78-9.84c25.22-4.56,30.35-4.9,45.29-4.61s27.23,6.5,31.69,12.47c2.41,3.23,2.35,6,1.87,7.74C239.42,219.45,215.05,235.67,187.8,235.67Z"/><circle class="cls-4" cx="274.6" cy="228.58" r="11.41"/></g></g></g></svg>