<svg xmlns="http://www.w3.org/2000/svg" viewBox="0 0 500 500"><defs><style>.cls-1,.cls-2{fill:none;stroke-linecap:round;stroke-linejoin:round;stroke-width:10px;}.cls-1{stroke:#272659;}.cls-2{stroke:#4c77b0;}</style></defs><g id="styles"><g id="thin"><g id="MedicalMarijuana"><path class="cls-1" d="M279.25,209.48c0,54.24-29.25,98.22-29.25,98.22s-29.25-44-29.25-98.22S250,111.27,250,111.27,279.25,155.24,279.25,209.48Z"/><line class="cls-2" x1="250" y1="307.7" x2="250" y2="388.98"/><line class="cls-2" x1="281.75" y1="351.77" x2="250" y2="307.7"/><line class="cls-2" x1="218.25" y1="351.77" x2="250" y2="307.7"/><path class="cls-1" d="M273.52,252.69a124.13,124.13,0,0,1,14.27-17.21C318.17,205.1,360,197.69,360,197.69s-7.42,41.84-37.79,72.22S250,307.7,250,307.7"/><path class="cls-1" d="M226.47,252.69a123.33,123.33,0,0,0-14.26-17.21C181.83,205.1,140,197.69,140,197.69s7.42,41.84,37.79,72.22S250,307.7,250,307.7"/><path class="cls-1" d="M301.65,286.41a86.59,86.59,0,0,1,11.27-.75c34.75,0,62.92,22,62.92,22s-28.17,22-62.92,22-62.92-22-62.92-22"/><path class="cls-1" d="M198.35,286.41a86.48,86.48,0,0,0-11.27-.75c-34.75,0-62.92,22-62.92,22s28.17,22,62.92,22,62.92-22,62.92-22"/></g></g></g></svg>