<svg xmlns="http://www.w3.org/2000/svg" viewBox="0 0 500 500"><defs><style>.cls-1{fill:#272659;}.cls-2{fill:#4c77b0;}.cls-3{fill:none;stroke:#232323;}.cls-4{fill:#232323;}</style></defs><g id="styles"><g id="thin"><g id="Dog"><path class="cls-1" d="M104.9,261.7a5.16,5.16,0,0,1-1.63-.27,5,5,0,0,1-3.09-6.36c.66-1.91,16.6-47.09,55.78-74.73a5,5,0,1,1,5.76,8.17c-36.48,25.74-51.94,69.39-52.09,69.83A5,5,0,0,1,104.9,261.7Z"/><path class="cls-1" d="M226.6,336.48a5,5,0,0,1-4.64-6.85c.41-1,10.33-25.52,28.71-32.63,8.9-3.45,23.11-2.33,39.57-1,16.71,1.31,35.65,2.8,49.52-.86,12.82-3.38,19.67-17,22.61-24.83,6.09-16.19,5.5-32.66,1.47-38.63C356,220,332.22,215.18,318,212.3a110.67,110.67,0,0,1-12.58-3c-7.34-2.58-12.31-8.6-18.59-16.23-1.93-2.35-3.93-4.78-6.2-7.35-9.62-10.92-24-16.27-45.4-16.82a5,5,0,0,1,.26-10c24,.62,41.21,7.23,52.65,20.21,2.37,2.7,4.51,5.3,6.41,7.6,5.5,6.68,9.47,11.5,14.18,13.15A107.15,107.15,0,0,0,320,202.5c16.71,3.39,42,8.51,52.12,23.55,6.53,9.68,6.36,29.76-.4,47.75-6.25,16.62-16.69,27.62-29.41,31-15.52,4.1-35.36,2.54-52.86,1.16-14.61-1.15-28.41-2.24-35.18.38-14.29,5.53-22.95,26.8-23,27A5,5,0,0,1,226.6,336.48Z"/><path class="cls-2" d="M189.91,261.28a16.52,16.52,0,0,1-3.39-.35c-11.21-2.4-19.4-16.38-23.28-24.51a103.63,103.63,0,0,1-10.1-41.3c-.36-21.26,8.36-35.68,23.92-39.57,3.66-.91,7.15-1.81,10.47-2.66,24.49-6.31,40.68-10.48,48.1.56,7.09,10.55,9.16,24.74,6,41C239,208,232.83,222.42,224.33,235,213,251.74,200.4,261.28,189.91,261.28Zm30.28-104.72c-6.86,0-17.64,2.78-30.17,6-3.34.86-6.85,1.77-10.54,2.69-7.65,1.91-16.7,8.61-16.34,29.69.44,25.75,15,54,25.46,56.2,5.36,1.14,16.23-5.18,27.45-21.77,14.15-20.92,23.71-51.86,11.28-70.35h0C226.16,157.28,223.68,156.56,220.19,156.56Z"/><circle class="cls-1" cx="263.5" cy="212.81" r="11.41"/></g><g id="Dog-2" data-name="Dog"><path class="cls-3" d="M104.9,261.7a5.16,5.16,0,0,1-1.63-.27,5,5,0,0,1-3.09-6.36c.66-1.91,16.6-47.09,55.78-74.73a5,5,0,1,1,5.76,8.17c-36.48,25.74-51.94,69.39-52.09,69.83A5,5,0,0,1,104.9,261.7Z"/><path class="cls-3" d="M226.6,336.48a5,5,0,0,1-4.64-6.85c.41-1,10.33-25.52,28.71-32.63,8.9-3.45,23.11-2.33,39.57-1,16.71,1.31,35.65,2.8,49.52-.86,12.82-3.38,19.67-17,22.61-24.83,6.09-16.19,5.5-32.66,1.47-38.63C356,220,332.22,215.18,318,212.3a110.67,110.67,0,0,1-12.58-3c-7.34-2.58-12.31-8.6-18.59-16.23-1.93-2.35-3.93-4.78-6.2-7.35-9.62-10.92-24-16.27-45.4-16.82a5,5,0,0,1,.26-10c24,.62,41.21,7.23,52.65,20.21,2.37,2.7,4.51,5.3,6.41,7.6,5.5,6.68,9.47,11.5,14.18,13.15A107.15,107.15,0,0,0,320,202.5c16.71,3.39,42,8.51,52.12,23.55,6.53,9.68,6.36,29.76-.4,47.75-6.25,16.62-16.69,27.62-29.41,31-15.52,4.1-35.36,2.54-52.86,1.16-14.61-1.15-28.41-2.24-35.18.38-14.29,5.53-22.95,26.8-23,27A5,5,0,0,1,226.6,336.48Z"/><path class="cls-3" d="M189.91,261.28a16.52,16.52,0,0,1-3.39-.35c-11.21-2.4-19.4-16.38-23.28-24.51a103.63,103.63,0,0,1-10.1-41.3c-.36-21.26,8.36-35.68,23.92-39.57,3.66-.91,7.15-1.81,10.47-2.66,24.49-6.31,40.68-10.48,48.1.56,7.09,10.55,9.16,24.74,6,41C239,208,232.83,222.42,224.33,235,213,251.74,200.4,261.28,189.91,261.28Zm30.28-104.72c-6.86,0-17.64,2.78-30.17,6-3.34.86-6.85,1.77-10.54,2.69-7.65,1.91-16.7,8.61-16.34,29.69.44,25.75,15,54,25.46,56.2,5.36,1.14,16.23-5.18,27.45-21.77,14.15-20.92,23.71-51.86,11.28-70.35h0C226.16,157.28,223.68,156.56,220.19,156.56Z"/><circle class="cls-3" cx="263.5" cy="212.81" r="11.41"/></g><g id="Dog-3" data-name="Dog"><path class="cls-4" d="M104.9,261.7a5.16,5.16,0,0,1-1.63-.27,5,5,0,0,1-3.09-6.36c.66-1.91,16.6-47.09,55.78-74.73a5,5,0,1,1,5.76,8.17c-36.48,25.74-51.94,69.39-52.09,69.83A5,5,0,0,1,104.9,261.7Z"/><path class="cls-4" d="M226.6,336.48a5,5,0,0,1-4.64-6.85c.41-1,10.33-25.52,28.71-32.63,8.9-3.45,23.11-2.33,39.57-1,16.71,1.31,35.65,2.8,49.52-.86,12.82-3.38,19.67-17,22.61-24.83,6.09-16.19,5.5-32.66,1.47-38.63C356,220,332.22,215.18,318,212.3a110.67,110.67,0,0,1-12.58-3c-7.34-2.58-12.31-8.6-18.59-16.23-1.93-2.35-3.93-4.78-6.2-7.35-9.62-10.92-24-16.27-45.4-16.82a5,5,0,0,1,.26-10c24,.62,41.21,7.23,52.65,20.21,2.37,2.7,4.51,5.3,6.41,7.6,5.5,6.68,9.47,11.5,14.18,13.15A107.15,107.15,0,0,0,320,202.5c16.71,3.39,42,8.51,52.12,23.55,6.53,9.68,6.36,29.76-.4,47.75-6.25,16.62-16.69,27.62-29.41,31-15.52,4.1-35.36,2.54-52.86,1.16-14.61-1.15-28.41-2.24-35.18.38-14.29,5.53-22.95,26.8-23,27A5,5,0,0,1,226.6,336.48Z"/><path class="cls-4" d="M189.91,261.28a16.52,16.52,0,0,1-3.39-.35c-11.21-2.4-19.4-16.38-23.28-24.51a103.63,103.63,0,0,1-10.1-41.3c-.36-21.26,8.36-35.68,23.92-39.57,3.66-.91,7.15-1.81,10.47-2.66,24.49-6.31,40.68-10.48,48.1.56,7.09,10.55,9.16,24.74,6,41C239,208,232.83,222.42,224.33,235,213,251.74,200.4,261.28,189.91,261.28Zm30.28-104.72c-6.86,0-17.64,2.78-30.17,6-3.34.86-6.85,1.77-10.54,2.69-7.65,1.91-16.7,8.61-16.34,29.69.44,25.75,15,54,25.46,56.2,5.36,1.14,16.23-5.18,27.45-21.77,14.15-20.92,23.71-51.86,11.28-70.35h0C226.16,157.28,223.68,156.56,220.19,156.56Z"/><circle class="cls-4" cx="263.5" cy="212.81" r="11.41"/></g></g></g></svg>