<svg xmlns="http://www.w3.org/2000/svg" viewBox="0 0 500 500"><defs><style>.cls-1{fill:#272659;}.cls-2{fill:#4c77b0;}.cls-3{fill:none;stroke:#232323;}.cls-4{fill:#232323;}</style></defs><g id="styles"><g id="thin"><g id="GuineaPig_" data-name="GuineaPig
"><path class="cls-1" d="M227.45,154.34a5,5,0,0,1-.76-.06c-23-3.53-48.23-4-75-1.51a5,5,0,0,1-.93-10c27.59-2.6,53.65-2.06,77.46,1.59a5,5,0,0,1-.76,9.94Z"/><path class="cls-1" d="M198,378.5a5,5,0,0,1-1.32-9.82c50.92-13.95,130.26-37.13,140.12-43.81,17.62-11.94,34.3-47.3,34.3-56.31,0-7.44-20.31-70.86-96.22-101.35a5,5,0,1,1,3.72-9.28c42.1,16.91,67.24,43.49,80.93,62.81,14.72,20.78,21.57,40.82,21.57,47.82,0,12.32-18.3,50.78-38.69,64.59-14.4,9.75-130,41.57-143.09,45.17A5,5,0,0,1,198,378.5Z"/><path class="cls-2" d="M220.3,257.11a31.33,31.33,0,0,1-17.11-5.24c-8.25-5.29-15.73-18.92-22.86-41.69-5.06-16.13-7.93-30.65-8.05-31.26a2.93,2.93,0,0,1-.05-.29c-1.19-8.75.45-15.85,4.88-21.12,9.79-11.65,31-12.45,57.83-13.47,3.59-.14,7.29-.28,11.06-.45,19-.85,28.52,6.86,33.17,13.48,8.33,11.83,7.26,28.81,2.5,40.39a149.27,149.27,0,0,1-18.76,31.87c-10.75,13.94-21.71,22.74-32.59,26.18A33.25,33.25,0,0,1,220.3,257.11Zm-38.18-80c4.33,21.91,15.3,59.16,26.46,66.31A21.14,21.14,0,0,0,227.31,246c20.51-6.47,39.25-38,45.11-52.31,3.6-8.76,4.69-22.15-1.42-30.84-4.69-6.65-12.93-9.76-24.55-9.24-3.8.18-7.52.32-11.13.45-23.4.89-43.61,1.65-50.55,9.91C182.22,167,181.35,171.3,182.12,177.14Z"/><circle class="cls-1" cx="307.63" cy="232.08" r="11.41"/></g><g id="GuineaPig_2" data-name="GuineaPig
"><path class="cls-3" d="M227.45,154.34a5,5,0,0,1-.76-.06c-23-3.53-48.23-4-75-1.51a5,5,0,0,1-.93-10c27.59-2.6,53.65-2.06,77.46,1.59a5,5,0,0,1-.76,9.94Z"/><path class="cls-3" d="M198,378.5a5,5,0,0,1-1.32-9.82c50.92-13.95,130.26-37.13,140.12-43.81,17.62-11.94,34.3-47.3,34.3-56.31,0-7.44-20.31-70.86-96.22-101.35a5,5,0,1,1,3.72-9.28c42.1,16.91,67.24,43.49,80.93,62.81,14.72,20.78,21.57,40.82,21.57,47.82,0,12.32-18.3,50.78-38.69,64.59-14.4,9.75-130,41.57-143.09,45.17A5,5,0,0,1,198,378.5Z"/><path class="cls-3" d="M220.3,257.11a31.33,31.33,0,0,1-17.11-5.24c-8.25-5.29-15.73-18.92-22.86-41.69-5.06-16.13-7.93-30.65-8.05-31.26a2.93,2.93,0,0,1-.05-.29c-1.19-8.75.45-15.85,4.88-21.12,9.79-11.65,31-12.45,57.83-13.47,3.59-.14,7.29-.28,11.06-.45,19-.85,28.52,6.86,33.17,13.48,8.33,11.83,7.26,28.81,2.5,40.39a149.27,149.27,0,0,1-18.76,31.87c-10.75,13.94-21.71,22.74-32.59,26.18A33.25,33.25,0,0,1,220.3,257.11Zm-38.18-80c4.33,21.91,15.3,59.16,26.46,66.31A21.14,21.14,0,0,0,227.31,246c20.51-6.47,39.25-38,45.11-52.31,3.6-8.76,4.69-22.15-1.42-30.84-4.69-6.65-12.93-9.76-24.55-9.24-3.8.18-7.52.32-11.13.45-23.4.89-43.61,1.65-50.55,9.91C182.22,167,181.35,171.3,182.12,177.14Z"/><circle class="cls-3" cx="307.63" cy="232.08" r="11.41"/></g><g id="GuineaPig_3" data-name="GuineaPig
"><path class="cls-4" d="M227.45,154.34a5,5,0,0,1-.76-.06c-23-3.53-48.23-4-75-1.51a5,5,0,0,1-.93-10c27.59-2.6,53.65-2.06,77.46,1.59a5,5,0,0,1-.76,9.94Z"/><path class="cls-4" d="M198,378.5a5,5,0,0,1-1.32-9.82c50.92-13.95,130.26-37.13,140.12-43.81,17.62-11.94,34.3-47.3,34.3-56.31,0-7.44-20.31-70.86-96.22-101.35a5,5,0,1,1,3.72-9.28c42.1,16.91,67.24,43.49,80.93,62.81,14.72,20.78,21.57,40.82,21.57,47.82,0,12.32-18.3,50.78-38.69,64.59-14.4,9.75-130,41.57-143.09,45.17A5,5,0,0,1,198,378.5Z"/><path class="cls-4" d="M220.3,257.11a31.33,31.33,0,0,1-17.11-5.24c-8.25-5.29-15.73-18.92-22.86-41.69-5.06-16.13-7.93-30.65-8.05-31.26a2.93,2.93,0,0,1-.05-.29c-1.19-8.75.45-15.85,4.88-21.12,9.79-11.65,31-12.45,57.83-13.47,3.59-.14,7.29-.28,11.06-.45,19-.85,28.52,6.86,33.17,13.48,8.33,11.83,7.26,28.81,2.5,40.39a149.27,149.27,0,0,1-18.76,31.87c-10.75,13.94-21.71,22.74-32.59,26.18A33.25,33.25,0,0,1,220.3,257.11Zm-38.18-80c4.33,21.91,15.3,59.16,26.46,66.31A21.14,21.14,0,0,0,227.31,246c20.51-6.47,39.25-38,45.11-52.31,3.6-8.76,4.69-22.15-1.42-30.84-4.69-6.65-12.93-9.76-24.55-9.24-3.8.18-7.52.32-11.13.45-23.4.89-43.61,1.65-50.55,9.91C182.22,167,181.35,171.3,182.12,177.14Z"/><circle class="cls-4" cx="307.63" cy="232.08" r="11.41"/></g></g></g></svg>