<svg xmlns="http://www.w3.org/2000/svg" viewBox="0 0 500 500"><defs><style>.cls-1,.cls-2{fill:none;stroke-linecap:round;stroke-linejoin:round;stroke-width:10px;}.cls-1{stroke:#4c77b0;}.cls-2{stroke:#272659;}</style></defs><g id="styles"><g id="thin"><g id="Catalogue"><g id="Catalogue-2" data-name="Catalogue"><path class="cls-1" d="M250.3,330.2c0,1.13,1,1.66,2.08,1.13,29.21-14.32,60.34-20.19,89.79-17.59,4.82.43,8.28-2.64,8.29-7.61V181.92a2.63,2.63,0,0,0-2.08-2.45c-29.21-3.79-60.34.88-89.79,14A14.55,14.55,0,0,0,250.3,206"/><path class="cls-2" d="M248.23,331.33C219,317,187.89,311.14,158.43,313.74c-4.81.43-8.28-2.64-8.28-7.61V181.92a2.64,2.64,0,0,1,2.08-2.45c29.2-3.79,60.32.88,89.78,14A14.58,14.58,0,0,1,250.3,206V330.2C250.3,331.33,249.31,331.86,248.23,331.33Z"/></g></g></g></g></svg>