<svg xmlns="http://www.w3.org/2000/svg" viewBox="0 0 500 500"><defs><style>.cls-1,.cls-2{fill:none;stroke-linecap:round;stroke-linejoin:round;stroke-width:10px;}.cls-1{stroke:#272659;}.cls-2{stroke:#4c77b0;}</style></defs><g id="styles"><g id="thin"><g id="Foot"><path class="cls-1" d="M270,307.07c-5.24-16.65-11.07-29.57-10.25-40.39.51-6.54,1.13-13,4.45-18.18,5.48-8.47,30-56.18,81.94-116.93"/><path class="cls-1" d="M269.86,89.18c-28,64.88-73.52,117.67-94.64,130.69-21.72,13.38-36.4,42.82-9.85,69.3,28.52,28.45,28.41,46.57,51.86,83.18"/><path class="cls-2" d="M217.23,372.35a38.21,38.21,0,0,0,32.19,17.72h42.9c32.41,0,34.94-28.92,5.09-40.62C284,344.2,274.48,321.19,270,307.07"/></g></g></g></svg>