<svg xmlns="http://www.w3.org/2000/svg" viewBox="0 0 500 500"><defs><style>.cls-1,.cls-2{fill:none;stroke-linecap:round;stroke-linejoin:round;stroke-width:10px;}.cls-1{stroke:#272659;}.cls-2{stroke:#4c77b0;}</style></defs><g id="styles"><g id="thin"><g id="MedicineManagement"><g id="Clipboard"><path id="Clip" class="cls-1" d="M280.32,132.11h-6.75a24,24,0,0,0-48.09,0h-7.13a16.6,16.6,0,0,0-16.55,16.56v25.52a3,3,0,0,0,3,3h89a3,3,0,0,0,3-3V148.67A16.6,16.6,0,0,0,280.32,132.11Z"/><line class="cls-2" x1="249.33" y1="279.98" x2="249.33" y2="218.89"/><line class="cls-2" x1="218.79" y1="249.43" x2="279.88" y2="249.43"/><line class="cls-1" x1="195.14" y1="324.06" x2="303.86" y2="324.06"/><path id="Board" class="cls-1" d="M296.87,156.52h31.54a5.46,5.46,0,0,1,5.45,5.45v202.8a5.46,5.46,0,0,1-5.45,5.45H170.59a5.47,5.47,0,0,1-5.45-5.45V162a5.47,5.47,0,0,1,5.45-5.45H201.8"/></g></g></g></g></svg>