<svg xmlns="http://www.w3.org/2000/svg" viewBox="0 0 500 500"><defs><style>.cls-1,.cls-2{fill:none;stroke-linecap:round;stroke-linejoin:round;stroke-width:10px;}.cls-1{stroke:#4c77b0;}.cls-2{stroke:#272659;}</style></defs><g id="styles"><g id="thin"><g id="MentalWellbeing"><path id="Heart" class="cls-1" d="M290.51,162.14h0a22.17,22.17,0,0,0-31.27,0l-9.38,9.39-9.39-9.39a22.17,22.17,0,0,0-31.27,0h0a22.19,22.19,0,0,0,0,31.28l9.38,9.38h0l31.28,31.27,31.27-31.27,9.38-9.38A22.19,22.19,0,0,0,290.51,162.14Z"/><path id="Head" class="cls-2" d="M151.43,378c8.89-15.24,17.39-27.21,20.51-34.62,6.76-16,10.2-53.66,0-71.21s-34.85-45.46-25.48-95.69c11.28-60.43,84.62-103.08,148.6-76.47s53,80.81,51.85,90.43-2.52,19.22,11.5,31.83c15.58,14,10.24,32.43-.88,39.67-18.28,11.91-1.15,42-6.28,56.31-3.63,10.11-11.76,20.5-33.53,20.07s-32.77,4.1-40.9,29.6c-4.73,14.83-1.22,30.7,3.16,45.65"/></g></g></g></svg>