<svg xmlns="http://www.w3.org/2000/svg" viewBox="0 0 500 500"><defs><style>.cls-1,.cls-2{fill:none;stroke-linecap:round;stroke-linejoin:round;stroke-width:10px;}.cls-1{stroke:#4c77b0;}.cls-2{stroke:#272659;}</style></defs><g id="styles"><g id="thin"><g id="Cream"><path class="cls-1" d="M281.52,251.81c-51.37.63-39.38-42.12-89.8-42.12,0,0,19,42.12-41.52,42.12Z"/><path class="cls-2" d="M132.71,251.81H312.46a0,0,0,0,1,0,0v41.45A21.69,21.69,0,0,1,290.77,315H154.4a21.69,21.69,0,0,1-21.69-21.69V251.81A0,0,0,0,1,132.71,251.81Z"/><path class="cls-1" d="M390.07,276,288.2,174.1a17.85,17.85,0,0,0-25.24,0L249,188l127.11,127.1,13.93-13.93A17.85,17.85,0,0,0,390.07,276Z"/></g></g></g></svg>