<svg xmlns="http://www.w3.org/2000/svg" viewBox="0 0 500 500"><defs><style>.cls-1,.cls-2{fill:none;stroke-linecap:round;stroke-linejoin:round;stroke-width:10px;}.cls-1{stroke:#272659;}.cls-2{stroke:#4c77b0;}</style></defs><g id="styles"><g id="thin"><g id="Local"><path class="cls-1" d="M210.09,233.28c20.85,0,40.86-39.7,50.11-54s6.94-42,19.66-49.34S316.1,130,320,150s-.77,39.7-10,61.67h45.5c28.57,0,37.13,32.66,21.56,48.22,5.24,10.83,1.14,28.81-4.61,35.47,4.93,10.11-.82,29.68-10,33.92,6.06,10.33-11.89,33.6-43.89,33.6H290c-27.58,0-40.54-21.59-79.91-21.59"/><line class="cls-2" x1="210.09" y1="341.31" x2="132.79" y2="341.31"/><line class="cls-2" x1="85.26" y1="233.28" x2="210.09" y2="233.28"/></g></g></g></svg>