<svg xmlns="http://www.w3.org/2000/svg" viewBox="0 0 500 500"><defs><style>.cls-1{fill:none;stroke:#272659;stroke-linecap:round;stroke-linejoin:round;stroke-width:10px;}.cls-2{fill:#4c77b0;}</style></defs><g id="styles"><g id="thin"><g id="SkinCondition"><path class="cls-1" d="M303.33,232.68V177.25a16.56,16.56,0,0,1,16.5-16.51h.28a16.56,16.56,0,0,1,16.51,16.51v100.3c-1.23,17.25-3.83,26-6.88,39.76-.77,3.45-3,13.78-5.73,26.76-3.59,17.28-9.13,41.89-12.52,68.41"/><path class="cls-1" d="M270.05,135.24V114a19.07,19.07,0,0,0-19-19h0a19.07,19.07,0,0,0-19,19v110.1"/><path class="cls-1" d="M303.33,177.25v-42a16.56,16.56,0,0,0-16.5-16.51h-.28a16.55,16.55,0,0,0-16.5,16.51v88.82"/><path class="cls-1" d="M232,138.18c0-10.6-8.67-19.59-19.27-19.45a19.07,19.07,0,0,0-18.75,19V279.28l-20.38-31.43a21.46,21.46,0,0,0-29.6-6.31h0a21.44,21.44,0,0,0-6.31,29.59s29.66,46.27,47.48,73.2c6.5,9.84,12.44,32.84,15.18,67.39"/><g id="Bumps"><circle class="cls-2" cx="249.98" cy="284.7" r="13.99"/><circle class="cls-2" cx="226.26" cy="314.94" r="9.27"/><circle class="cls-2" cx="256.02" cy="326.7" r="13.99"/><circle class="cls-2" cx="246" cy="363.04" r="9.27"/><circle class="cls-2" cx="282.13" cy="300.54" r="9.27"/><circle class="cls-2" cx="285.15" cy="338.34" r="9.27"/></g></g></g></g></svg>