<svg xmlns="http://www.w3.org/2000/svg" viewBox="0 0 500 500"><defs><style>.cls-1,.cls-2{fill:none;stroke-linecap:round;stroke-linejoin:round;stroke-width:10px;}.cls-1{stroke:#272659;}.cls-2{stroke:#4c77b0;}</style></defs><g id="styles"><g id="thin"><g id="HealthCheck"><path class="cls-1" d="M251.82,246c14.86,16.65,32.43,28.48,44.88,28.48,30.6,0,92.13-71.44,68.22-110.28-3.95-6.42-6.71-11.84-34.7-16.39"/><path class="cls-1" d="M263.19,147.85c-28,4.55-30.75,10-34.7,16.39-5.06,8.21-6.3,17.88-4.81,28"/><path class="cls-1" d="M180.13,319.52c0,22.51,23.05,55.63,58.29,55.63S296.7,342,296.7,319.52v-45"/><path class="cls-2" d="M180.13,319.44l66-66a35.91,35.91,0,0,0-50.79-50.79l-15.24,15.24L164.9,202.62a35.92,35.92,0,0,0-50.8,50.79Z"/></g></g></g></svg>