<svg xmlns="http://www.w3.org/2000/svg" viewBox="0 0 500 500"><defs><style>.cls-1,.cls-2{fill:none;stroke-linecap:round;stroke-linejoin:round;stroke-width:10px;}.cls-1{stroke:#4c77b0;}.cls-2{stroke:#272659;}</style></defs><g id="styles"><g id="thin"><g id="treats"><path class="cls-1" d="M274.67,347.23a23,23,0,1,1-45.45-5.14,23,23,0,1,1,11.13-38.71l63-63a23,23,0,1,1,38.7-11.13A23,23,0,1,1,331,267.93l-63,63A23,23,0,0,1,274.67,347.23Z"/><path class="cls-2" d="M173.36,293.75c26.44-20.46,7.53-48,17.11-57.62,8.7-8.7,37.64-7.66,61.18-31.2,22.63-22.63,23.29-61.83,16.15-69s-46.34-6.48-69,16.16c-23.54,23.54-22.5,52.47-31.2,61.17-9.58,9.58-37.16-9.32-57.62,18.35,17.88,23.61,42.22,19.89,42.22,19.89S148.51,275.87,173.36,293.75Z"/></g></g></g></svg>