<svg xmlns="http://www.w3.org/2000/svg" viewBox="0 0 500 500"><defs><style>.cls-1,.cls-2{fill:none;stroke-linecap:round;stroke-linejoin:round;stroke-width:10px;}.cls-1{stroke:#272659;}.cls-2{stroke:#4c77b0;}</style></defs><g id="styles"><g id="thin"><g id="Sanitiser"><rect class="cls-1" x="184.42" y="204.42" width="115.1" height="162.13" rx="19.04"/><path class="cls-1" d="M227.94,166.77H256a11,11,0,0,1,11,11v26.65a0,0,0,0,1,0,0H216.94a0,0,0,0,1,0,0V177.77A11,11,0,0,1,227.94,166.77Z"/><line class="cls-1" x1="241.97" y1="166.77" x2="241.97" y2="129.45"/><path class="cls-1" d="M216.94,129.45h62.59c14.66,0,34.05,13.77,34.05,13.77"/><path class="cls-2" d="M265.05,293.32c0-12.62-23.08-38.52-23.08-38.52s-23.07,25.9-23.07,38.52a23.08,23.08,0,0,0,46.15,0Z"/></g></g></g></svg>