<svg xmlns="http://www.w3.org/2000/svg" viewBox="0 0 500 500"><defs><style>.cls-1,.cls-2{fill:none;stroke-linecap:round;stroke-linejoin:round;stroke-width:10px;}.cls-1{stroke:#272659;}.cls-2{stroke:#4c77b0;}</style></defs><g id="styles"><g id="thin"><g id="Community"><circle class="cls-1" cx="250.13" cy="201.01" r="53.56"/><path class="cls-1" d="M297.43,226.14a38,38,0,1,0,4.77-37.69"/><path class="cls-1" d="M356,241.12c21.34,7.11,37.62,26.45,41.27,49.16a8.29,8.29,0,0,1-8.17,9.63H338.71"/><path class="cls-1" d="M161.54,299.91H111.16a8.29,8.29,0,0,1-8.17-9.63c3.65-22.71,19.93-42,41.26-49.16"/><path class="cls-1" d="M198.06,188.45a37.94,37.94,0,1,0,4.75,37.73"/><path class="cls-1" d="M283.43,243c30.11,10,53.09,37.33,58.24,69.39a11.7,11.7,0,0,1-11.53,13.58h-20"/><path class="cls-1" d="M190.13,325.92h-20a11.69,11.69,0,0,1-11.52-13.58c5.15-32.06,28.12-59.35,58.22-69.39"/><path class="cls-2" d="M278.38,303.17a15.42,15.42,0,0,0-21.73,0l-6.52,6.52-6.52-6.52a15.37,15.37,0,1,0-21.73,21.73l28.25,28.25,28.25-28.25A15.42,15.42,0,0,0,278.38,303.17Z"/></g></g></g></svg>