<svg xmlns="http://www.w3.org/2000/svg" viewBox="0 0 500 500"><defs><style>.cls-1,.cls-2{fill:none;stroke-linecap:round;stroke-linejoin:round;stroke-width:10px;}.cls-1{stroke:#4c77b0;}.cls-2{stroke:#272659;}</style></defs><g id="styles"><g id="thin"><g id="FoodTreats"><path class="cls-1" d="M345.36,165.66v-6.51a17.85,17.85,0,0,0-17.85-17.85H237.37a17.85,17.85,0,0,0-17.84,17.85v6.51"/><path class="cls-2" d="M205.06,244.94c-1.51-25.08,1.23-53.6,14.47-79.28H345.36c23,44.53,14.35,97.63,6.73,126.48a28.5,28.5,0,0,1-27.55,21.21H310.2"/><path class="cls-1" d="M164.28,271.21c5-19.8,22.63-31.74,39.57-26.66.53.16,1.05.33,1.57.52a40.2,40.2,0,0,0,28.36,0,27.7,27.7,0,0,1,18.11-.62c11.43,3.53,19.44,14.14,22,26.8"/><path class="cls-2" d="M286.58,271.21H152.2a14.56,14.56,0,0,0-13.93,10.32l-18.83,61.82h199.9l-18.83-61.82A14.57,14.57,0,0,0,286.58,271.21Z"/><line class="cls-2" x1="96.02" y1="343.35" x2="317.92" y2="343.35"/><line class="cls-2" x1="131.35" y1="304.26" x2="190.14" y2="304.26"/></g></g></g></svg>