<svg xmlns="http://www.w3.org/2000/svg" viewBox="0 0 500 500"><defs><style>.cls-1,.cls-2{fill:none;stroke-linecap:round;stroke-linejoin:round;stroke-width:10px;}.cls-1{stroke:#272659;}.cls-2{stroke:#4c77b0;}</style></defs><g id="styles"><g id="thin"><g id="Support"><g id="Support-2" data-name="Support"><path class="cls-1" d="M292.39,203.05a60.47,60.47,0,0,1,18.77,44.38m-104.5-41.7a60.5,60.5,0,0,1,45.23-19.26M210.91,292a60.52,60.52,0,0,1-20.38-44.56m105.1,39.76a60.45,60.45,0,0,1-43,19.89m106.88-43.2a110.09,110.09,0,0,0-47.08-108.22M234.77,355.56a110.09,110.09,0,0,0,107.59-47.81M142.34,229a110.08,110.08,0,0,0,48.83,110.15m78.41-200.71a110.06,110.06,0,0,0-110.91,48.4"/><rect class="cls-2" x="197.08" y="284.54" width="49.3" height="80.73" rx="24.65" transform="translate(132.78 -58.26) rotate(21.24)"/><rect class="cls-2" x="257.41" y="129.34" width="49.3" height="80.73" rx="24.65" transform="translate(80.65 -90.66) rotate(21.24)"/><rect class="cls-2" x="149.64" y="176.78" width="49.3" height="80.73" rx="24.65" transform="translate(439.83 133.37) rotate(111.24)"/><rect class="cls-2" x="304.84" y="237.11" width="49.3" height="80.73" rx="24.65" transform="translate(707.49 70.9) rotate(111.24)"/></g></g></g></g></svg>