<svg xmlns="http://www.w3.org/2000/svg" viewBox="0 0 500 500"><defs><style>.cls-1,.cls-2{fill:none;stroke-linecap:round;stroke-linejoin:round;stroke-width:10px;}.cls-1{stroke:#272659;}.cls-2{stroke:#4c77b0;}</style></defs><g id="styles"><g id="thin"><g id="Children"><g id="Duck"><path class="cls-1" d="M272.07,227.13c10.06-12,17.57-26.65,17.57-43.56a62.77,62.77,0,0,0-62.77-62.78c-28.1,0-53.42,18-59.89,43.92-3.2,12.77-14.5,10.49-19.32,10.18-6.82-.44-19.46,3.26-16,12.92,4.27,11.91,16.66,19.66,32.43,22.46,13.7,2.43,16.64,17.27-1.37,42-9.21,12.64-15.06,26.69-15.06,42,0,46.57,50.9,84.34,113.68,84.34,42.87,0,79.13-17.76,98.7-43.6,18.33-24.21,22.13-49.18,22.13-70.73,0-17.62-12.48-29.06-27.74-27.75-22.85,2-23.1,19.24-62.53,15.82C261.47,249.68,266.4,233.91,272.07,227.13Z"/><path class="cls-2" d="M291.61,307.31c2.62-19.11-19.62-10.4-39.85-22.31-28.83-17-42.45-3.35-44.38,10.77s6.41,28.59,29.67,31.77S289.68,321.43,291.61,307.31Z"/></g></g></g></g></svg>