<svg xmlns="http://www.w3.org/2000/svg" viewBox="0 0 500 500"><defs><style>.cls-1,.cls-2{fill:none;stroke-linecap:round;stroke-linejoin:round;stroke-width:10px;}.cls-1{stroke:#4c77b0;}.cls-2{stroke:#272659;}</style></defs><g id="styles"><g id="thin"><g id="Team"><line class="cls-1" x1="250.13" y1="356.25" x2="250.13" y2="295.59"/><line class="cls-1" x1="219.8" y1="325.92" x2="280.46" y2="325.92"/><circle class="cls-2" cx="250.13" cy="200.53" r="53.56"/><path class="cls-2" d="M297.43,225.66A38,38,0,1,0,302.2,188"/><path class="cls-2" d="M356,240.64c21.34,7.11,37.62,26.45,41.27,49.16a8.29,8.29,0,0,1-8.17,9.62H338.71"/><path class="cls-2" d="M161.54,299.42H111.16A8.29,8.29,0,0,1,103,289.8c3.65-22.71,19.93-42.05,41.26-49.16"/><path class="cls-2" d="M198.06,188a37.93,37.93,0,1,0,4.75,37.73"/><path class="cls-2" d="M283.43,242.46c30.11,10,53.09,37.34,58.24,69.4a11.7,11.7,0,0,1-11.53,13.58h-10"/><path class="cls-2" d="M180.13,325.44h-10a11.69,11.69,0,0,1-11.52-13.58c5.15-32.06,28.12-59.35,58.22-69.39"/></g></g></g></svg>