<svg xmlns="http://www.w3.org/2000/svg" viewBox="0 0 500 500"><defs><style>.cls-1{fill:#4c77b0;}.cls-2{fill:#272659;}.cls-3{fill:none;stroke:#232323;}.cls-4{fill:#232323;}</style></defs><g id="styles"><g id="thin"><g id="Lizard"><path class="cls-1" d="M399.18,255.25a4.87,4.87,0,0,1-.66,0l-41.64-5.53a5,5,0,0,1,1.32-9.91l40,5.31,14.22-7.9a5,5,0,1,1,4.85,8.75l-15.66,8.69A5,5,0,0,1,399.18,255.25Z"/><path class="cls-1" d="M411.13,271.26a5,5,0,0,1-4-2l-11.94-16a5,5,0,1,1,8-6l11.94,16a5,5,0,0,1-1,7A4.94,4.94,0,0,1,411.13,271.26Z"/><circle class="cls-2" cx="265.92" cy="207.63" r="11.41"/><path class="cls-2" d="M186.71,362.67a5,5,0,0,1-3.5-8.57c2.79-2.74,5.38-5.41,7.89-8C208.34,328.39,222,314.38,275.58,297c51-16.56,76.63-37.8,80.77-66.84,2.38-16.71-20.92-24.56-44-30-7.64-1.81-10.21-2.42-11.82-4.7-3-4.27-13.38-17-20.12-20.28-13.63-6.61-21.94-4-28-2-3.63,1.15-7.06,2.24-10.51.82a4.92,4.92,0,0,1-1.4-.87c-14.41-12.72-37.68-25.59-55.87-20.05-1.18,2.62,2.42,13.48,4.38,19.36,2.74,8.27,5.59,16.82,5.43,23.5a5,5,0,0,1-8.43,3.51c-13.64-12.88-31.87-13-40.79-10-4,1.38-5.85,3.2-6.13,4.13.23,2.08,3.93,8.35,6.15,12.12,4.68,8,7.54,13.1,7.72,17.38a5,5,0,0,1-5.93,5.12c-24.43-4.63-29.29,5.2-35.44,17.64a84.65,84.65,0,0,1-5.11,9.33,5,5,0,0,1-8.34-5.53,75.83,75.83,0,0,0,4.49-8.23c3.19-6.46,6.82-13.79,13.77-18.72,6.17-4.36,14-6.17,23.91-5.46-1.21-2.25-2.62-4.63-3.69-6.45-5.07-8.62-8.14-14.12-7.44-18.62.84-5.32,5.38-9.64,12.81-12.17,10.63-3.64,26.42-3.23,40.37,4.49-.84-2.88-1.85-5.91-2.84-8.91-3.74-11.23-7-20.93-3.71-27.22a9.59,9.59,0,0,1,5.84-4.83c14.29-4.38,38.59-1.08,64.31,21.08.86-.16,2.3-.62,3.41-1,6.81-2.17,18.2-5.79,35.42,2.57,9.24,4.48,20.33,18.71,23.21,22.54,1.32.43,4.14,1.1,6.67,1.7,18.05,4.28,55.61,13.18,51.62,41.18-2.62,18.35-12.91,34.38-30.6,47.63-14,10.45-32.59,19.38-57,27.31-51.27,16.66-64.13,29.88-80.4,46.62-2.55,2.61-5.18,5.32-8.05,8.14A5,5,0,0,1,186.71,362.67ZM139,193.38m169.57-3.85c0,.05.05.08.06.08Z"/><path class="cls-2" d="M227.07,198a5.1,5.1,0,0,1-1.62-.27,5,5,0,0,1-3.11-6.35,44.46,44.46,0,0,1,20-24.49,40.38,40.38,0,0,1,11.8-4.73A5,5,0,0,1,256,172a32.21,32.21,0,0,0-8.69,3.57A34.18,34.18,0,0,0,231.8,194.6,5,5,0,0,1,227.07,198Z"/></g><g id="Lizard-2" data-name="Lizard"><path class="cls-3" d="M399.18,255.25a4.87,4.87,0,0,1-.66,0l-41.64-5.53a5,5,0,0,1,1.32-9.91l40,5.31,14.22-7.9a5,5,0,1,1,4.85,8.75l-15.66,8.69A5,5,0,0,1,399.18,255.25Z"/><path class="cls-3" d="M411.13,271.26a5,5,0,0,1-4-2l-11.94-16a5,5,0,1,1,8-6l11.94,16a5,5,0,0,1-1,7A4.94,4.94,0,0,1,411.13,271.26Z"/><circle class="cls-3" cx="265.92" cy="207.63" r="11.41"/><path class="cls-3" d="M186.71,362.67a5,5,0,0,1-3.5-8.57c2.79-2.74,5.38-5.41,7.89-8C208.34,328.39,222,314.38,275.58,297c51-16.56,76.63-37.8,80.77-66.84,2.38-16.71-20.92-24.56-44-30-7.64-1.81-10.21-2.42-11.82-4.7-3-4.27-13.38-17-20.12-20.28-13.63-6.61-21.94-4-28-2-3.63,1.15-7.06,2.24-10.51.82a4.92,4.92,0,0,1-1.4-.87c-14.41-12.72-37.68-25.59-55.87-20.05-1.18,2.62,2.42,13.48,4.38,19.36,2.74,8.27,5.59,16.82,5.43,23.5a5,5,0,0,1-8.43,3.51c-13.64-12.88-31.87-13-40.79-10-4,1.38-5.85,3.2-6.13,4.13.23,2.08,3.93,8.35,6.15,12.12,4.68,8,7.54,13.1,7.72,17.38a5,5,0,0,1-5.93,5.12c-24.43-4.63-29.29,5.2-35.44,17.64a84.65,84.65,0,0,1-5.11,9.33,5,5,0,0,1-8.34-5.53,75.83,75.83,0,0,0,4.49-8.23c3.19-6.46,6.82-13.79,13.77-18.72,6.17-4.36,14-6.17,23.91-5.46-1.21-2.25-2.62-4.63-3.69-6.45-5.07-8.62-8.14-14.12-7.44-18.62.84-5.32,5.38-9.64,12.81-12.17,10.63-3.64,26.42-3.23,40.37,4.49-.84-2.88-1.85-5.91-2.84-8.91-3.74-11.23-7-20.93-3.71-27.22a9.59,9.59,0,0,1,5.84-4.83c14.29-4.38,38.59-1.08,64.31,21.08.86-.16,2.3-.62,3.41-1,6.81-2.17,18.2-5.79,35.42,2.57,9.24,4.48,20.33,18.71,23.21,22.54,1.32.43,4.14,1.1,6.67,1.7,18.05,4.28,55.61,13.18,51.62,41.18-2.62,18.35-12.91,34.38-30.6,47.63-14,10.45-32.59,19.38-57,27.31-51.27,16.66-64.13,29.88-80.4,46.62-2.55,2.61-5.18,5.32-8.05,8.14A5,5,0,0,1,186.71,362.67ZM139,193.38m169.57-3.85c0,.05.05.08.06.08Z"/><path class="cls-3" d="M227.07,198a5.1,5.1,0,0,1-1.62-.27,5,5,0,0,1-3.11-6.35,44.46,44.46,0,0,1,20-24.49,40.38,40.38,0,0,1,11.8-4.73A5,5,0,0,1,256,172a32.21,32.21,0,0,0-8.69,3.57A34.18,34.18,0,0,0,231.8,194.6,5,5,0,0,1,227.07,198Z"/></g><g id="Lizard-3" data-name="Lizard"><path class="cls-4" d="M399.18,255.25a4.87,4.87,0,0,1-.66,0l-41.64-5.53a5,5,0,0,1,1.32-9.91l40,5.31,14.22-7.9a5,5,0,1,1,4.85,8.75l-15.66,8.69A5,5,0,0,1,399.18,255.25Z"/><path class="cls-4" d="M411.13,271.26a5,5,0,0,1-4-2l-11.94-16a5,5,0,1,1,8-6l11.94,16a5,5,0,0,1-1,7A4.94,4.94,0,0,1,411.13,271.26Z"/><circle class="cls-4" cx="265.92" cy="207.63" r="11.41"/><path class="cls-4" d="M186.71,362.67a5,5,0,0,1-3.5-8.57c2.79-2.74,5.38-5.41,7.89-8C208.34,328.39,222,314.38,275.58,297c51-16.56,76.63-37.8,80.77-66.84,2.38-16.71-20.92-24.56-44-30-7.64-1.81-10.21-2.42-11.82-4.7-3-4.27-13.38-17-20.12-20.28-13.63-6.61-21.94-4-28-2-3.63,1.15-7.06,2.24-10.51.82a4.92,4.92,0,0,1-1.4-.87c-14.41-12.72-37.68-25.59-55.87-20.05-1.18,2.62,2.42,13.48,4.38,19.36,2.74,8.27,5.59,16.82,5.43,23.5a5,5,0,0,1-8.43,3.51c-13.64-12.88-31.87-13-40.79-10-4,1.38-5.85,3.2-6.13,4.13.23,2.08,3.93,8.35,6.15,12.12,4.68,8,7.54,13.1,7.72,17.38a5,5,0,0,1-5.93,5.12c-24.43-4.63-29.29,5.2-35.44,17.64a84.65,84.65,0,0,1-5.11,9.33,5,5,0,0,1-8.34-5.53,75.83,75.83,0,0,0,4.49-8.23c3.19-6.46,6.82-13.79,13.77-18.72,6.17-4.36,14-6.17,23.91-5.46-1.21-2.25-2.62-4.63-3.69-6.45-5.07-8.62-8.14-14.12-7.44-18.62.84-5.32,5.38-9.64,12.81-12.17,10.63-3.64,26.42-3.23,40.37,4.49-.84-2.88-1.85-5.91-2.84-8.91-3.74-11.23-7-20.93-3.71-27.22a9.59,9.59,0,0,1,5.84-4.83c14.29-4.38,38.59-1.08,64.31,21.08.86-.16,2.3-.62,3.41-1,6.81-2.17,18.2-5.79,35.42,2.57,9.24,4.48,20.33,18.71,23.21,22.54,1.32.43,4.14,1.1,6.67,1.7,18.05,4.28,55.61,13.18,51.62,41.18-2.62,18.35-12.91,34.38-30.6,47.63-14,10.45-32.59,19.38-57,27.31-51.27,16.66-64.13,29.88-80.4,46.62-2.55,2.61-5.18,5.32-8.05,8.14A5,5,0,0,1,186.71,362.67ZM139,193.38m169.57-3.85c0,.05.05.08.06.08Z"/><path class="cls-4" d="M227.07,198a5.1,5.1,0,0,1-1.62-.27,5,5,0,0,1-3.11-6.35,44.46,44.46,0,0,1,20-24.49,40.38,40.38,0,0,1,11.8-4.73A5,5,0,0,1,256,172a32.21,32.21,0,0,0-8.69,3.57A34.18,34.18,0,0,0,231.8,194.6,5,5,0,0,1,227.07,198Z"/></g></g></g></svg>