<svg xmlns="http://www.w3.org/2000/svg" viewBox="0 0 500 500"><defs><style>.cls-1,.cls-2{fill:none;stroke-linecap:round;stroke-linejoin:round;stroke-width:10px;}.cls-1{stroke:#272659;}.cls-2{stroke:#4c77b0;}</style></defs><g id="styles"><g id="thin"><g id="Digestion"><path class="cls-1" d="M109,330.32c11.79-37.56,31.45-58.1,38.92-62.7,24.78-15.25,47.78-11,94-14.47,42.54-3.15,54.29-43.28,30.71-71-10.38-12.18-18.07-25.93-21.24-41.65-1.21-6-1.94-20.08.3-41.59"/><path class="cls-1" d="M299.32,97.25c-2,17.53-1.26,31.64,1.08,40.72,1.84,7.17,5.72,13.73,12,17.72,15.15,9.68,46.39,6.42,66.61,37.26s26,109.13-59.35,147.48c-49,22-93,1.15-110.1-13.51-8.86-7.6-22.46-22.73-39-10.75-7.86,5.71-20.52,16.81-30.87,41.27"/><path class="cls-2" d="M231.88,307.66c11.18,8.09,38.53,13.58,53.13,10.31s40.84-12.79,60.65-36c24.21-28.35-38.84-23.2-55.61-12.31-11.72,7.6-26.74,14.88-49.73,13.67C210.68,281.79,211.8,293.13,231.88,307.66Z"/></g></g></g></svg>