<svg xmlns="http://www.w3.org/2000/svg" viewBox="0 0 500 500"><defs><style>.cls-1,.cls-2{fill:none;stroke-linecap:round;stroke-linejoin:round;stroke-width:10px;}.cls-1{stroke:#272659;}.cls-2{stroke:#4c77b0;}</style></defs><g id="styles"><g id="thin"><g id="Chat"><path id="Outline" class="cls-1" d="M253.34,142.34c-65.42,0-118.45,43-118.45,96.06a81.94,81.94,0,0,0,14.67,46.33,74.07,74.07,0,0,1-22.92,39.38,3.93,3.93,0,0,0,2.7,6.86c17-.32,47.83-1.76,68.55-7.68a140.37,140.37,0,0,0,55.45,11.17c65.42,0,118.45-43,118.45-96.06S318.76,142.34,253.34,142.34Z"/><g id="_3_Dots" data-name="3 Dots"><circle class="cls-2" cx="195.8" cy="238.4" r="20.31"/><circle class="cls-2" cx="253.34" cy="238.4" r="20.31"/><circle class="cls-2" cx="310.88" cy="238.4" r="20.31"/></g></g></g></g></svg>