<svg xmlns="http://www.w3.org/2000/svg" viewBox="0 0 500 500"><defs><style>.cls-1{fill:#272659;}.cls-2{fill:#4c77b0;}.cls-3{fill:none;stroke:#232323;}.cls-4{fill:#232323;}</style></defs><g id="styles"><g id="thin"><g id="Bunny"><path class="cls-1" d="M159.39,282.05a106.62,106.62,0,0,1-27.84-3.47,5,5,0,0,1,2.83-9.59c.23.07,24.18,6.88,50.11-.19,10.81-2.94,23-12.09,33.4-25.1,10.06-12.55,13.44-22.33,13-24.66-1.85-3.88-14.58-10.18-25.82-15.73-9.14-4.52-19.5-9.64-29.85-15.83a5,5,0,1,1,5.13-8.58c10,6,20.18,11,29.16,15.44,16.5,8.16,27.4,13.55,30.57,20.76,1.7,3.86.79,9.37-2.78,16.84-4.17,8.76-11.49,18.85-19.59,27-6.95,7-17.89,16.06-30.57,19.52A105.59,105.59,0,0,1,159.39,282.05Zm71.52-62.93h0Z"/><path class="cls-1" d="M265.72,386.27a5,5,0,0,1-4.84-6.26c1.09-4.19,11.13-41.23,28.69-51,10.72-6,27.75-3,42.77-.47,8.5,1.46,19.08,3.27,22.34,1.75,19.38-9.05,23.82-15.48,24.14-19.28,2.72-33.09-21.49-71-35.23-82.1-8.77-7-22.17-12.89-32.94-17.57-6.82-3-12.71-5.54-16.63-8-4.51-2.83-10.34-10-18.42-19.88-11.11-13.61-26.33-32.26-42.3-43.64a5,5,0,1,1,5.8-8.14c17.07,12.16,32.78,31.4,44.25,45.46,6.62,8.11,12.88,15.78,16,17.74,3.28,2.06,8.85,4.49,15.3,7.3,11.32,4.92,25.4,11,35.21,18.95,15.62,12.58,42,53.64,38.93,90.71-1,12.52-16.5,21.28-29.87,27.52-6.09,2.84-15.87,1.17-28.26-.95-12.73-2.18-28.58-4.9-36.22-.65-11.73,6.51-21.21,34.52-23.87,44.76A5,5,0,0,1,265.72,386.27Z"/><path class="cls-2" d="M177.76,188.19a5,5,0,0,1-2.56-.71c-20.56-12.28-43-33.33-46.69-52.66-1.38-7.2,0-13.77,4-19,16-21,72-8.79,106.59,15.88a5,5,0,0,1-5.8,8.14c-34.9-24.87-82.66-31.3-92.84-18-2.29,3-3,6.62-2.13,11.06,2.63,13.67,20.3,33,42,46a5,5,0,0,1-2.57,9.29Z"/><circle class="cls-1" cx="301.98" cy="249.56" r="11.41"/></g><g id="Bunny-2" data-name="Bunny"><path class="cls-3" d="M159.39,282.05a106.62,106.62,0,0,1-27.84-3.47,5,5,0,0,1,2.83-9.59c.23.07,24.18,6.88,50.11-.19,10.81-2.94,23-12.09,33.4-25.1,10.06-12.55,13.44-22.33,13-24.66-1.85-3.88-14.58-10.18-25.82-15.73-9.14-4.52-19.5-9.64-29.85-15.83a5,5,0,1,1,5.13-8.58c10,6,20.18,11,29.16,15.44,16.5,8.16,27.4,13.55,30.57,20.76,1.7,3.86.79,9.37-2.78,16.84-4.17,8.76-11.49,18.85-19.59,27-6.95,7-17.89,16.06-30.57,19.52A105.59,105.59,0,0,1,159.39,282.05Zm71.52-62.93h0Z"/><path class="cls-3" d="M265.72,386.27a5,5,0,0,1-4.84-6.26c1.09-4.19,11.13-41.23,28.69-51,10.72-6,27.75-3,42.77-.47,8.5,1.46,19.08,3.27,22.34,1.75,19.38-9.05,23.82-15.48,24.14-19.28,2.72-33.09-21.49-71-35.23-82.1-8.77-7-22.17-12.89-32.94-17.57-6.82-3-12.71-5.54-16.63-8-4.51-2.83-10.34-10-18.42-19.88-11.11-13.61-26.33-32.26-42.3-43.64a5,5,0,1,1,5.8-8.14c17.07,12.16,32.78,31.4,44.25,45.46,6.62,8.11,12.88,15.78,16,17.74,3.28,2.06,8.85,4.49,15.3,7.3,11.32,4.92,25.4,11,35.21,18.95,15.62,12.58,42,53.64,38.93,90.71-1,12.52-16.5,21.28-29.87,27.52-6.09,2.84-15.87,1.17-28.26-.95-12.73-2.18-28.58-4.9-36.22-.65-11.73,6.51-21.21,34.52-23.87,44.76A5,5,0,0,1,265.72,386.27Z"/><path class="cls-3" d="M177.76,188.19a5,5,0,0,1-2.56-.71c-20.56-12.28-43-33.33-46.69-52.66-1.38-7.2,0-13.77,4-19,16-21,72-8.79,106.59,15.88a5,5,0,0,1-5.8,8.14c-34.9-24.87-82.66-31.3-92.84-18-2.29,3-3,6.62-2.13,11.06,2.63,13.67,20.3,33,42,46a5,5,0,0,1-2.57,9.29Z"/><circle class="cls-3" cx="301.98" cy="249.56" r="11.41"/></g><g id="Bunny-3" data-name="Bunny"><path class="cls-4" d="M159.39,282.05a106.62,106.62,0,0,1-27.84-3.47,5,5,0,0,1,2.83-9.59c.23.07,24.18,6.88,50.11-.19,10.81-2.94,23-12.09,33.4-25.1,10.06-12.55,13.44-22.33,13-24.66-1.85-3.88-14.58-10.18-25.82-15.73-9.14-4.52-19.5-9.64-29.85-15.83a5,5,0,1,1,5.13-8.58c10,6,20.18,11,29.16,15.44,16.5,8.16,27.4,13.55,30.57,20.76,1.7,3.86.79,9.37-2.78,16.84-4.17,8.76-11.49,18.85-19.59,27-6.95,7-17.89,16.06-30.57,19.52A105.59,105.59,0,0,1,159.39,282.05Zm71.52-62.93h0Z"/><path class="cls-4" d="M265.72,386.27a5,5,0,0,1-4.84-6.26c1.09-4.19,11.13-41.23,28.69-51,10.72-6,27.75-3,42.77-.47,8.5,1.46,19.08,3.27,22.34,1.75,19.38-9.05,23.82-15.48,24.14-19.28,2.72-33.09-21.49-71-35.23-82.1-8.77-7-22.17-12.89-32.94-17.57-6.82-3-12.71-5.54-16.63-8-4.51-2.83-10.34-10-18.42-19.88-11.11-13.61-26.33-32.26-42.3-43.64a5,5,0,1,1,5.8-8.14c17.07,12.16,32.78,31.4,44.25,45.46,6.62,8.11,12.88,15.78,16,17.74,3.28,2.06,8.85,4.49,15.3,7.3,11.32,4.92,25.4,11,35.21,18.95,15.62,12.58,42,53.64,38.93,90.71-1,12.52-16.5,21.28-29.87,27.52-6.09,2.84-15.87,1.17-28.26-.95-12.73-2.18-28.58-4.9-36.22-.65-11.73,6.51-21.21,34.52-23.87,44.76A5,5,0,0,1,265.72,386.27Z"/><path class="cls-4" d="M177.76,188.19a5,5,0,0,1-2.56-.71c-20.56-12.28-43-33.33-46.69-52.66-1.38-7.2,0-13.77,4-19,16-21,72-8.79,106.59,15.88a5,5,0,0,1-5.8,8.14c-34.9-24.87-82.66-31.3-92.84-18-2.29,3-3,6.62-2.13,11.06,2.63,13.67,20.3,33,42,46a5,5,0,0,1-2.57,9.29Z"/><circle class="cls-4" cx="301.98" cy="249.56" r="11.41"/></g></g></g></svg>