<svg xmlns="http://www.w3.org/2000/svg" xmlns:xlink="http://www.w3.org/1999/xlink" viewBox="0 0 500 500"><defs><style>.cls-1{fill:#272659;}.cls-2,.cls-3{fill:none;stroke-linecap:round;stroke-linejoin:round;stroke-width:10px;}.cls-2{stroke:#272659;}.cls-3{stroke:#4c77b0;}</style><symbol id="Eye" data-name="Eye" viewBox="0 0 22.81 22.81"><circle class="cls-1" cx="11.41" cy="11.41" r="11.41"/></symbol><symbol id="thin-cat" data-name="thin-cat" viewBox="0 0 238.1 263.24"><g id="Cat"><path class="cls-2" d="M118.45,68.38c53.64,9.34,63.61,27.32,68.85,35.37,5.47,8.4,6.43,19.43,11.86,29.61s30.62,18.92,33.57,34.55-12.08,39.38-27.15,49.44-41.64,10.33-56.76,15.72-26.16,25.17-26.16,25.17"/><path class="cls-2" d="M5,98.25s12.34-16,39.17-25.69"/><path class="cls-3" d="M38.43,107.31C43.85,40.8,76.77,1.83,91.23,5.2c22.88,5.34,16,54.49,34.16,74.57"/><use width="22.81" height="22.81" transform="translate(141.38 119.6)" xlink:href="#Eye"/></g></symbol></defs><g id="styles"><g id="thin"><use width="238.1" height="263.24" transform="translate(128.15 101.24)" xlink:href="#thin-cat"/></g></g></svg>