<svg xmlns="http://www.w3.org/2000/svg" viewBox="0 0 500 500"><defs><style>.cls-1,.cls-2{fill:none;stroke-linecap:round;stroke-linejoin:round;stroke-width:10px;}.cls-1{stroke:#4c77b0;}.cls-2{stroke:#272659;}</style></defs><g id="styles"><g id="thin"><g id="Naturopathy"><path class="cls-1" d="M345.19,151.58a28.46,28.46,0,0,0-43.38,19,39,39,0,0,1-8.37,18.05l-39.17,47.24h66.25l11.33-21.69a40.09,40.09,0,0,1,13.65-14.86,28.25,28.25,0,0,0,8.22-8.29A28.59,28.59,0,0,0,345.19,151.58Z"/><path class="cls-2" d="M295.7,341.55c14.88-8.56,49.91-34.81,54.15-93.73a11.15,11.15,0,0,0-11.12-12H144.89a11.16,11.16,0,0,0-11.12,12c4.27,59,39.57,85.23,54.49,93.76a25.35,25.35,0,0,0,12.58,3.34h82.24A25.29,25.29,0,0,0,295.7,341.55Z"/></g></g></g></svg>