<svg xmlns="http://www.w3.org/2000/svg" viewBox="0 0 500 500"><defs><style>.cls-1,.cls-2{fill:none;stroke-linecap:round;stroke-linejoin:round;stroke-width:10px;}.cls-1{stroke:#4c77b0;}.cls-2{stroke:#272659;}</style></defs><g id="styles"><g id="thin"><g id="MensHealth"><path class="cls-1" d="M284,277.55v3.75a17,17,0,0,0,17,17h0a17,17,0,0,0,17-17V208.53a34,34,0,0,0-34-34H216a34,34,0,0,0-34,34V281.3a17,17,0,0,0,17,17h0a17,17,0,0,0,17-17v-3.75"/><path class="cls-2" d="M284,222.43V381.62a17,17,0,0,1-17,17h0a17,17,0,0,1-17-17v0a17,17,0,0,1-17,17h0a17,17,0,0,1-17-17V222.43"/><circle class="cls-2" cx="250" cy="130.02" r="28.64"/></g></g></g></svg>