<svg xmlns="http://www.w3.org/2000/svg" viewBox="0 0 500 500"><defs><style>.cls-1,.cls-2{fill:none;stroke-linecap:round;stroke-linejoin:round;stroke-width:10px;}.cls-1{stroke:#4c77b0;}.cls-2{stroke:#272659;}</style></defs><g id="styles"><g id="thin"><g id="Sting"><g id="Bee"><path class="cls-1" d="M168.54,270.14a99.14,99.14,0,0,0,62.4,62.4"/><line class="cls-1" x1="310.48" y1="208.96" x2="353.94" y2="208.96"/><line class="cls-1" x1="292.12" y1="190.6" x2="292.12" y2="147.14"/><path class="cls-2" d="M291.33,262.11c4.81-2.08,8.82-4.43,11.49-7.11a40.12,40.12,0,0,0-56.75-56.74c-2.67,2.67-5,6.68-7.1,11.49"/><path class="cls-1" d="M194.7,239.1A105.93,105.93,0,0,0,262,306.33"/><path class="cls-2" d="M216.52,167.75c18.72,18.72,35.15,81.66,35.15,81.66S188.73,233,170,214.26,146.53,170,159.37,157.11,197.8,149,216.52,167.75Z"/><path class="cls-2" d="M333.33,284.56c-18.72-18.72-81.66-35.15-81.66-35.15s16.43,62.94,35.15,81.66,44.3,23.48,57.15,10.64S352.05,303.28,333.33,284.56Z"/><path class="cls-2" d="M265.92,293.09a50.56,50.56,0,0,1-14.25,28C231.86,340.93,154,347.06,154,347.06s6.13-77.85,25.93-97.65a50.44,50.44,0,0,1,28-14.25"/></g></g></g></g></svg>